<svg version="1.1" xmlns="http://www.w3.org/2000/svg" xmlns:xlink="http://www.w3.org/1999/xlink" width="1443" height="685"><defs></defs><g><g transform="translate(-46,-22) scale(1,1)"><rect fill="#C0C0C0" stroke="none" x="119" y="91" width="79" height="43" opacity="0.2"></rect></g><g transform="translate(-46,-22) scale(1,1)"><rect fill="#C0C0C0" stroke="none" x="112" y="84" width="79" height="43"></rect></g><g transform="translate(-46,-22) scale(1,1)"><path fill="none" stroke="#000000" d="M 112 84 L 191 84 L 191 127 L 112 127 L 112 84 Z Z" stroke-miterlimit="10"></path></g><g transform="translate(-46,-22) scale(1,1)"><path fill="none" stroke="#000000" d="M 112 107 L 191 107" stroke-miterlimit="10"></path></g><g transform="translate(-46,-22) scale(1,1)"><g><path fill="none" stroke="none"></path><text fill="#000000" stroke="none" font-family="Arial" font-size="11px" font-style="normal" font-weight="bold" text-decoration="none" x="127" y="101.5">NodeView</text></g></g><g transform="translate(-46,-22) scale(1,1)"><rect fill="#C0C0C0" stroke="none" x="1167" y="39" width="79" height="43" opacity="0.2"></rect></g><g transform="translate(-46,-22) scale(1,1)"><rect fill="#C0C0C0" stroke="none" x="1160" y="32" width="79" height="43"></rect></g><g transform="translate(-46,-22) scale(1,1)"><path fill="none" stroke="#000000" d="M 1160 32 L 1239 32 L 1239 75 L 1160 75 L 1160 32 Z Z" stroke-miterlimit="10"></path></g><g transform="translate(-46,-22) scale(1,1)"><path fill="none" stroke="#000000" d="M 1160 55 L 1239 55" stroke-miterlimit="10"></path></g><g transform="translate(-46,-22) scale(1,1)"><g><path fill="none" stroke="none"></path><text fill="#000000" stroke="none" font-family="Arial" font-size="11px" font-style="normal" font-weight="bold" text-decoration="none" x="1175.5" y="49.5">EdgeView</text></g></g><g transform="translate(-46,-22) scale(1,1)"><rect fill="#C0C0C0" stroke="none" x="99" y="191" width="132" height="43" opacity="0.2"></rect></g><g transform="translate(-46,-22) scale(1,1)"><rect fill="#FFFFFF" stroke="none" x="92" y="184" width="132" height="43"></rect></g><g transform="translate(-46,-22) scale(1,1)"><path fill="none" stroke="#000000" d="M 92 184 L 224 184 L 224 227 L 92 227 L 92 184 Z Z" stroke-miterlimit="10"></path></g><g transform="translate(-46,-22) scale(1,1)"><path fill="none" stroke="#000000" d="M 92 207 L 224 207" stroke-miterlimit="10"></path></g><g transform="translate(-46,-22) scale(1,1)"><g><path fill="none" stroke="none"></path><text fill="#000000" stroke="none" font-family="Arial" font-size="11px" font-style="normal" font-weight="bold" text-decoration="none" x="102.5" y="201.5">UMLGeneralNodeView</text></g></g><g transform="translate(-46,-22) scale(1,1)"><rect fill="#C0C0C0" stroke="none" x="1135" y="123" width="131" height="116" opacity="0.2"></rect></g><g transform="translate(-46,-22) scale(1,1)"><rect fill="#FFFFFF" stroke="none" x="1128" y="116" width="131" height="116"></rect></g><g transform="translate(-46,-22) scale(1,1)"><path fill="none" stroke="#000000" d="M 1128 116 L 1259 116 L 1259 232 L 1128 232 L 1128 116 Z Z" stroke-miterlimit="10"></path></g><g transform="translate(-46,-22) scale(1,1)"><path fill="none" stroke="#000000" d="M 1128 139 L 1259 139" stroke-miterlimit="10"></path></g><g transform="translate(-46,-22) scale(1,1)"><g><path fill="none" stroke="none"></path><text fill="#000000" stroke="none" font-family="Arial" font-size="11px" font-style="normal" font-weight="bold" text-decoration="none" x="1138.5" y="133.5">UMLGeneralEdgeView</text></g></g><g transform="translate(-46,-22) scale(1,1)"><path fill="none" stroke="#000000" d="M 156 184 L 156 127" stroke-miterlimit="10"></path></g><g transform="translate(-46,-22) scale(1,1)"><path fill="#FFFFFF" stroke="none" d="M 164.41903551203197 147.3253497152483 L 156 127 L 147.58096448796803 147.3253497152483"></path></g><g transform="translate(-46,-22) scale(1,1)"><path fill="none" stroke="#000000" d="M 164.41903551203197 147.3253497152483 L 156 127 L 147.58096448796803 147.3253497152483 L 164.41903551203197 147.3253497152483" stroke-miterlimit="10"></path></g><g transform="translate(-46,-22) scale(1,1)"><path fill="none" stroke="#000000" d="M 1198 116 L 1198 75" stroke-miterlimit="10"></path></g><g transform="translate(-46,-22) scale(1,1)"><path fill="#FFFFFF" stroke="none" d="M 1206.419035512032 95.32534971524831 L 1198 75 L 1189.580964487968 95.32534971524831"></path></g><g transform="translate(-46,-22) scale(1,1)"><path fill="none" stroke="#000000" d="M 1206.419035512032 95.32534971524831 L 1198 75 L 1189.580964487968 95.32534971524831 L 1206.419035512032 95.32534971524831" stroke-miterlimit="10"></path></g><g transform="translate(-46,-22) scale(1,1)"><rect fill="#C0C0C0" stroke="none" x="895" y="87" width="104" height="168" opacity="0.2"></rect></g><g transform="translate(-46,-22) scale(1,1)"><rect fill="#C0C0C0" stroke="none" x="888" y="80" width="104" height="168"></rect></g><g transform="translate(-46,-22) scale(1,1)"><path fill="none" stroke="#000000" d="M 888 80 L 992 80 L 992 248 L 888 248 L 888 80 Z Z" stroke-miterlimit="10"></path></g><g transform="translate(-46,-22) scale(1,1)"><path fill="none" stroke="#000000" d="M 888 103 L 992 103" stroke-miterlimit="10"></path></g><g transform="translate(-46,-22) scale(1,1)"><g><path fill="none" stroke="none"></path><text fill="#000000" stroke="none" font-family="Arial" font-size="11px" font-style="normal" font-weight="bold" text-decoration="none" x="903" y="97.5">EdgeLabelView</text></g></g><g transform="translate(-46,-22) scale(1,1)"><path fill="none" stroke="#000000" d="M 1128 132 L 992 132" stroke-miterlimit="10"></path></g><g transform="translate(-46,-22) scale(1,1)"><path fill="none" stroke="#000000" d="M 1002.1626748576241 127.79048224398402 L 992 132 L 1002.1626748576241 136.209517756016" stroke-miterlimit="10"></path></g><g transform="translate(-46,-22) scale(1,1)"><g><path fill="none" stroke="none"></path><text fill="#000000" stroke="none" font-family="Arial" font-size="11px" font-style="normal" font-weight="normal" text-decoration="none" x="996" y="147">+nameLabel</text></g></g><g transform="translate(-46,-22) scale(1,1)"><path fill="none" stroke="#000000" d="M 1128 192 L 992 192" stroke-miterlimit="10"></path></g><g transform="translate(-46,-22) scale(1,1)"><path fill="none" stroke="#000000" d="M 1002.1626748576241 187.790482243984 L 992 192 L 1002.1626748576241 196.209517756016" stroke-miterlimit="10"></path></g><g transform="translate(-46,-22) scale(1,1)"><g><path fill="none" stroke="none"></path><text fill="#000000" stroke="none" font-family="Arial" font-size="11px" font-style="normal" font-weight="normal" text-decoration="none" x="997" y="207">+propertyLabel</text></g></g><g transform="translate(-46,-22) scale(1,1)"><path fill="none" stroke="#000000" d="M 1128 160 L 992 160" stroke-miterlimit="10"></path></g><g transform="translate(-46,-22) scale(1,1)"><path fill="none" stroke="#000000" d="M 1002.1626748576241 155.790482243984 L 992 160 L 1002.1626748576241 164.209517756016" stroke-miterlimit="10"></path></g><g transform="translate(-46,-22) scale(1,1)"><g><path fill="none" stroke="none"></path><text fill="#000000" stroke="none" font-family="Arial" font-size="11px" font-style="normal" font-weight="normal" text-decoration="none" x="992" y="175">+stereotypeLabel</text></g></g><g transform="translate(-46,-22) scale(1,1)"><rect fill="#C0C0C0" stroke="none" x="103" y="311" width="114" height="60" opacity="0.2"></rect></g><g transform="translate(-46,-22) scale(1,1)"><rect fill="#FFFFFF" stroke="none" x="96" y="304" width="114" height="60"></rect></g><g transform="translate(-46,-22) scale(1,1)"><path fill="none" stroke="#000000" d="M 96 304 L 210 304 L 210 364 L 96 364 L 96 304 Z Z" stroke-miterlimit="10"></path></g><g transform="translate(-46,-22) scale(1,1)"><path fill="none" stroke="#000000" d="M 96 327 L 210 327" stroke-miterlimit="10"></path></g><g transform="translate(-46,-22) scale(1,1)"><g><path fill="none" stroke="none"></path><text fill="#000000" stroke="none" font-family="Arial" font-size="11px" font-style="normal" font-weight="bold" text-decoration="none" x="107.5" y="321.5">UMLClassifierView</text></g></g><g transform="translate(-46,-22) scale(1,1)"><path fill="none" stroke="#000000" d="M 156 304 L 156 227" stroke-miterlimit="10"></path></g><g transform="translate(-46,-22) scale(1,1)"><path fill="#FFFFFF" stroke="none" d="M 164.41903551203197 247.3253497152483 L 156 227 L 147.58096448796803 247.3253497152483"></path></g><g transform="translate(-46,-22) scale(1,1)"><path fill="none" stroke="#000000" d="M 164.41903551203197 247.3253497152483 L 156 227 L 147.58096448796803 247.3253497152483 L 164.41903551203197 247.3253497152483" stroke-miterlimit="10"></path></g><g transform="translate(-46,-22) scale(1,1)"><rect fill="#C0C0C0" stroke="none" x="79" y="431" width="107" height="43" opacity="0.2"></rect></g><g transform="translate(-46,-22) scale(1,1)"><rect fill="#FFFFFF" stroke="none" x="72" y="424" width="107" height="43"></rect></g><g transform="translate(-46,-22) scale(1,1)"><path fill="none" stroke="#000000" d="M 72 424 L 179 424 L 179 467 L 72 467 L 72 424 Z Z" stroke-miterlimit="10"></path></g><g transform="translate(-46,-22) scale(1,1)"><path fill="none" stroke="#000000" d="M 72 447 L 179 447" stroke-miterlimit="10"></path></g><g transform="translate(-46,-22) scale(1,1)"><g><path fill="none" stroke="none"></path><text fill="#000000" stroke="none" font-family="Arial" font-size="11px" font-style="normal" font-weight="bold" text-decoration="none" x="81" y="441.5">UMLPackageView</text></g></g><g transform="translate(-46,-22) scale(1,1)"><rect fill="#C0C0C0" stroke="none" x="63" y="543" width="96" height="43" opacity="0.2"></rect></g><g transform="translate(-46,-22) scale(1,1)"><rect fill="#FFFFFF" stroke="none" x="56" y="536" width="96" height="43"></rect></g><g transform="translate(-46,-22) scale(1,1)"><path fill="none" stroke="#000000" d="M 56 536 L 152 536 L 152 579 L 56 579 L 56 536 Z Z" stroke-miterlimit="10"></path></g><g transform="translate(-46,-22) scale(1,1)"><path fill="none" stroke="#000000" d="M 56 559 L 152 559" stroke-miterlimit="10"></path></g><g transform="translate(-46,-22) scale(1,1)"><g><path fill="none" stroke="none"></path><text fill="#000000" stroke="none" font-family="Arial" font-size="11px" font-style="normal" font-weight="bold" text-decoration="none" x="66.5" y="553.5">UMLModelView</text></g></g><g transform="translate(-46,-22) scale(1,1)"><rect fill="#C0C0C0" stroke="none" x="175" y="543" width="124" height="43" opacity="0.2"></rect></g><g transform="translate(-46,-22) scale(1,1)"><rect fill="#FFFFFF" stroke="none" x="168" y="536" width="124" height="43"></rect></g><g transform="translate(-46,-22) scale(1,1)"><path fill="none" stroke="#000000" d="M 168 536 L 292 536 L 292 579 L 168 579 L 168 536 Z Z" stroke-miterlimit="10"></path></g><g transform="translate(-46,-22) scale(1,1)"><path fill="none" stroke="#000000" d="M 168 559 L 292 559" stroke-miterlimit="10"></path></g><g transform="translate(-46,-22) scale(1,1)"><g><path fill="none" stroke="none"></path><text fill="#000000" stroke="none" font-family="Arial" font-size="11px" font-style="normal" font-weight="bold" text-decoration="none" x="179.5" y="553.5">UMLSubsystemView</text></g></g><g transform="translate(-46,-22) scale(1,1)"><rect fill="#C0C0C0" stroke="none" x="195" y="431" width="92" height="43" opacity="0.2"></rect></g><g transform="translate(-46,-22) scale(1,1)"><rect fill="#FFFFFF" stroke="none" x="188" y="424" width="92" height="43"></rect></g><g transform="translate(-46,-22) scale(1,1)"><path fill="none" stroke="#000000" d="M 188 424 L 280 424 L 280 467 L 188 467 L 188 424 Z Z" stroke-miterlimit="10"></path></g><g transform="translate(-46,-22) scale(1,1)"><path fill="none" stroke="#000000" d="M 188 447 L 280 447" stroke-miterlimit="10"></path></g><g transform="translate(-46,-22) scale(1,1)"><g><path fill="none" stroke="none"></path><text fill="#000000" stroke="none" font-family="Arial" font-size="11px" font-style="normal" font-weight="bold" text-decoration="none" x="197" y="441.5">UMLClassView</text></g></g><g transform="translate(-46,-22) scale(1,1)"><rect fill="#C0C0C0" stroke="none" x="299" y="431" width="110" height="43" opacity="0.2"></rect></g><g transform="translate(-46,-22) scale(1,1)"><rect fill="#FFFFFF" stroke="none" x="292" y="424" width="110" height="43"></rect></g><g transform="translate(-46,-22) scale(1,1)"><path fill="none" stroke="#000000" d="M 292 424 L 402 424 L 402 467 L 292 467 L 292 424 Z Z" stroke-miterlimit="10"></path></g><g transform="translate(-46,-22) scale(1,1)"><path fill="none" stroke="#000000" d="M 292 447 L 402 447" stroke-miterlimit="10"></path></g><g transform="translate(-46,-22) scale(1,1)"><g><path fill="none" stroke="none"></path><text fill="#000000" stroke="none" font-family="Arial" font-size="11px" font-style="normal" font-weight="bold" text-decoration="none" x="302.5" y="441.5">UMLInterfaceView</text></g></g><g transform="translate(-46,-22) scale(1,1)"><rect fill="#C0C0C0" stroke="none" x="243" y="311" width="96" height="43" opacity="0.2"></rect></g><g transform="translate(-46,-22) scale(1,1)"><rect fill="#FFFFFF" stroke="none" x="236" y="304" width="96" height="43"></rect></g><g transform="translate(-46,-22) scale(1,1)"><path fill="none" stroke="#000000" d="M 236 304 L 332 304 L 332 347 L 236 347 L 236 304 Z Z" stroke-miterlimit="10"></path></g><g transform="translate(-46,-22) scale(1,1)"><path fill="none" stroke="#000000" d="M 236 327 L 332 327" stroke-miterlimit="10"></path></g><g transform="translate(-46,-22) scale(1,1)"><g><path fill="none" stroke="none"></path><text fill="#000000" stroke="none" font-family="Arial" font-size="11px" font-style="normal" font-weight="bold" text-decoration="none" x="245" y="321.5">UMLObjectView</text></g></g><g transform="translate(-46,-22) scale(1,1)"><path fill="none" stroke="#000000" d="M 88 424 L 88 272 L 156 272 L 156 227" stroke-miterlimit="10"></path></g><g transform="translate(-46,-22) scale(1,1)"><path fill="#FFFFFF" stroke="none" d="M 164.41903551203197 247.3253497152483 L 156 227 L 147.58096448796803 247.3253497152483"></path></g><g transform="translate(-46,-22) scale(1,1)"><path fill="none" stroke="#000000" d="M 164.41903551203197 247.3253497152483 L 156 227 L 147.58096448796803 247.3253497152483 L 164.41903551203197 247.3253497152483" stroke-miterlimit="10"></path></g><g transform="translate(-46,-22) scale(1,1)"><path fill="none" stroke="#000000" d="M 116 536 L 116 467" stroke-miterlimit="10"></path></g><g transform="translate(-46,-22) scale(1,1)"><path fill="#FFFFFF" stroke="none" d="M 124.41903551203198 487.3253497152483 L 116 467 L 107.58096448796803 487.3253497152483"></path></g><g transform="translate(-46,-22) scale(1,1)"><path fill="none" stroke="#000000" d="M 124.41903551203198 487.3253497152483 L 116 467 L 107.58096448796803 487.3253497152483 L 124.41903551203198 487.3253497152483" stroke-miterlimit="10"></path></g><g transform="translate(-46,-22) scale(1,1)"><path fill="none" stroke="#000000" d="M 216 536 L 216 504 L 116 504 L 116 467" stroke-miterlimit="10"></path></g><g transform="translate(-46,-22) scale(1,1)"><path fill="#FFFFFF" stroke="none" d="M 124.41903551203198 487.3253497152483 L 116 467 L 107.58096448796803 487.3253497152483"></path></g><g transform="translate(-46,-22) scale(1,1)"><path fill="none" stroke="#000000" d="M 124.41903551203198 487.3253497152483 L 116 467 L 107.58096448796803 487.3253497152483 L 124.41903551203198 487.3253497152483" stroke-miterlimit="10"></path></g><g transform="translate(-46,-22) scale(1,1)"><path fill="none" stroke="#000000" d="M 260 304 L 260 272 L 156 272 L 156 227" stroke-miterlimit="10"></path></g><g transform="translate(-46,-22) scale(1,1)"><path fill="#FFFFFF" stroke="none" d="M 164.41903551203197 247.3253497152483 L 156 227 L 147.58096448796803 247.3253497152483"></path></g><g transform="translate(-46,-22) scale(1,1)"><path fill="none" stroke="#000000" d="M 164.41903551203197 247.3253497152483 L 156 227 L 147.58096448796803 247.3253497152483 L 164.41903551203197 247.3253497152483" stroke-miterlimit="10"></path></g><g transform="translate(-46,-22) scale(1,1)"><path fill="none" stroke="#000000" d="M 236 424 L 236 404 L 160 404 L 160 364" stroke-miterlimit="10"></path></g><g transform="translate(-46,-22) scale(1,1)"><path fill="#FFFFFF" stroke="none" d="M 168.41903551203197 384.3253497152483 L 160 364 L 151.58096448796803 384.3253497152483"></path></g><g transform="translate(-46,-22) scale(1,1)"><path fill="none" stroke="#000000" d="M 168.41903551203197 384.3253497152483 L 160 364 L 151.58096448796803 384.3253497152483 L 168.41903551203197 384.3253497152483" stroke-miterlimit="10"></path></g><g transform="translate(-46,-22) scale(1,1)"><path fill="none" stroke="#000000" d="M 344 424 L 344 404 L 160 404 L 160 364" stroke-miterlimit="10"></path></g><g transform="translate(-46,-22) scale(1,1)"><path fill="#FFFFFF" stroke="none" d="M 168.41903551203197 384.3253497152483 L 160 364 L 151.58096448796803 384.3253497152483"></path></g><g transform="translate(-46,-22) scale(1,1)"><path fill="none" stroke="#000000" d="M 168.41903551203197 384.3253497152483 L 160 364 L 151.58096448796803 384.3253497152483 L 168.41903551203197 384.3253497152483" stroke-miterlimit="10"></path></g><g transform="translate(-46,-22) scale(1,1)"><rect fill="#C0C0C0" stroke="none" x="587" y="299" width="226" height="43" opacity="0.2"></rect></g><g transform="translate(-46,-22) scale(1,1)"><rect fill="#FFFFFF" stroke="none" x="580" y="292" width="226" height="43"></rect></g><g transform="translate(-46,-22) scale(1,1)"><path fill="none" stroke="#000000" d="M 580 292 L 806 292 L 806 335 L 580 335 L 580 292 Z Z" stroke-miterlimit="10"></path></g><g transform="translate(-46,-22) scale(1,1)"><path fill="none" stroke="#000000" d="M 580 315 L 806 315" stroke-miterlimit="10"></path></g><g transform="translate(-46,-22) scale(1,1)"><g><path fill="none" stroke="none"></path><text fill="#000000" stroke="none" font-family="Arial" font-size="11px" font-style="normal" font-weight="bold" text-decoration="none" x="642" y="309.5">UMLAssociationView</text></g></g><g transform="translate(-46,-22) scale(1,1)"><rect fill="#C0C0C0" stroke="none" x="835" y="299" width="129" height="43" opacity="0.2"></rect></g><g transform="translate(-46,-22) scale(1,1)"><rect fill="#FFFFFF" stroke="none" x="828" y="292" width="129" height="43"></rect></g><g transform="translate(-46,-22) scale(1,1)"><path fill="none" stroke="#000000" d="M 828 292 L 957 292 L 957 335 L 828 335 L 828 292 Z Z" stroke-miterlimit="10"></path></g><g transform="translate(-46,-22) scale(1,1)"><path fill="none" stroke="#000000" d="M 828 315 L 957 315" stroke-miterlimit="10"></path></g><g transform="translate(-46,-22) scale(1,1)"><g><path fill="none" stroke="none"></path><text fill="#000000" stroke="none" font-family="Arial" font-size="11px" font-style="normal" font-weight="bold" text-decoration="none" x="838.5" y="309.5">UMLDependencyView</text></g></g><g transform="translate(-46,-22) scale(1,1)"><rect fill="#C0C0C0" stroke="none" x="975" y="299" width="140" height="43" opacity="0.2"></rect></g><g transform="translate(-46,-22) scale(1,1)"><rect fill="#FFFFFF" stroke="none" x="968" y="292" width="140" height="43"></rect></g><g transform="translate(-46,-22) scale(1,1)"><path fill="none" stroke="#000000" d="M 968 292 L 1108 292 L 1108 335 L 968 335 L 968 292 Z Z" stroke-miterlimit="10"></path></g><g transform="translate(-46,-22) scale(1,1)"><path fill="none" stroke="#000000" d="M 968 315 L 1108 315" stroke-miterlimit="10"></path></g><g transform="translate(-46,-22) scale(1,1)"><g><path fill="none" stroke="none"></path><text fill="#000000" stroke="none" font-family="Arial" font-size="11px" font-style="normal" font-weight="bold" text-decoration="none" x="980" y="309.5">UMLGeneralizationView</text></g></g><g transform="translate(-46,-22) scale(1,1)"><rect fill="#C0C0C0" stroke="none" x="1127" y="299" width="120" height="43" opacity="0.2"></rect></g><g transform="translate(-46,-22) scale(1,1)"><rect fill="#FFFFFF" stroke="none" x="1120" y="292" width="120" height="43"></rect></g><g transform="translate(-46,-22) scale(1,1)"><path fill="none" stroke="#000000" d="M 1120 292 L 1240 292 L 1240 335 L 1120 335 L 1120 292 Z Z" stroke-miterlimit="10"></path></g><g transform="translate(-46,-22) scale(1,1)"><path fill="none" stroke="#000000" d="M 1120 315 L 1240 315" stroke-miterlimit="10"></path></g><g transform="translate(-46,-22) scale(1,1)"><g><path fill="none" stroke="none"></path><text fill="#000000" stroke="none" font-family="Arial" font-size="11px" font-style="normal" font-weight="bold" text-decoration="none" x="1130.5" y="309.5">UMLRealizationView</text></g></g><g transform="translate(-46,-22) scale(1,1)"><rect fill="#C0C0C0" stroke="none" x="1259" y="299" width="87" height="43" opacity="0.2"></rect></g><g transform="translate(-46,-22) scale(1,1)"><rect fill="#FFFFFF" stroke="none" x="1252" y="292" width="87" height="43"></rect></g><g transform="translate(-46,-22) scale(1,1)"><path fill="none" stroke="#000000" d="M 1252 292 L 1339 292 L 1339 335 L 1252 335 L 1252 292 Z Z" stroke-miterlimit="10"></path></g><g transform="translate(-46,-22) scale(1,1)"><path fill="none" stroke="#000000" d="M 1252 315 L 1339 315" stroke-miterlimit="10"></path></g><g transform="translate(-46,-22) scale(1,1)"><g><path fill="none" stroke="none"></path><text fill="#000000" stroke="none" font-family="Arial" font-size="11px" font-style="normal" font-weight="bold" text-decoration="none" x="1262.5" y="309.5">UMLLinkView</text></g></g><g transform="translate(-46,-22) scale(1,1)"><rect fill="#C0C0C0" stroke="none" x="419" y="431" width="91" height="43" opacity="0.2"></rect></g><g transform="translate(-46,-22) scale(1,1)"><rect fill="#FFFFFF" stroke="none" x="412" y="424" width="91" height="43"></rect></g><g transform="translate(-46,-22) scale(1,1)"><path fill="none" stroke="#000000" d="M 412 424 L 503 424 L 503 467 L 412 467 L 412 424 Z Z" stroke-miterlimit="10"></path></g><g transform="translate(-46,-22) scale(1,1)"><path fill="none" stroke="#000000" d="M 412 447 L 503 447" stroke-miterlimit="10"></path></g><g transform="translate(-46,-22) scale(1,1)"><g><path fill="none" stroke="none"></path><text fill="#000000" stroke="none" font-family="Arial" font-size="11px" font-style="normal" font-weight="bold" text-decoration="none" x="421.5" y="441.5">UMLActorView</text></g></g><g transform="translate(-46,-22) scale(1,1)"><rect fill="#C0C0C0" stroke="none" x="523" y="431" width="110" height="43" opacity="0.2"></rect></g><g transform="translate(-46,-22) scale(1,1)"><rect fill="#FFFFFF" stroke="none" x="516" y="424" width="110" height="43"></rect></g><g transform="translate(-46,-22) scale(1,1)"><path fill="none" stroke="#000000" d="M 516 424 L 626 424 L 626 467 L 516 467 L 516 424 Z Z" stroke-miterlimit="10"></path></g><g transform="translate(-46,-22) scale(1,1)"><path fill="none" stroke="#000000" d="M 516 447 L 626 447" stroke-miterlimit="10"></path></g><g transform="translate(-46,-22) scale(1,1)"><g><path fill="none" stroke="none"></path><text fill="#000000" stroke="none" font-family="Arial" font-size="11px" font-style="normal" font-weight="bold" text-decoration="none" x="525" y="441.5">UMLUseCaseView</text></g></g><g transform="translate(-46,-22) scale(1,1)"><path fill="none" stroke="#000000" d="M 556 424 L 556 404 L 160 404 L 160 364" stroke-miterlimit="10"></path></g><g transform="translate(-46,-22) scale(1,1)"><path fill="#FFFFFF" stroke="none" d="M 168.41903551203197 384.3253497152483 L 160 364 L 151.58096448796803 384.3253497152483"></path></g><g transform="translate(-46,-22) scale(1,1)"><path fill="none" stroke="#000000" d="M 168.41903551203197 384.3253497152483 L 160 364 L 151.58096448796803 384.3253497152483 L 168.41903551203197 384.3253497152483" stroke-miterlimit="10"></path></g><g transform="translate(-46,-22) scale(1,1)"><path fill="none" stroke="#000000" d="M 457 424 L 457 404 L 160 404 L 160 364" stroke-miterlimit="10"></path></g><g transform="translate(-46,-22) scale(1,1)"><path fill="#FFFFFF" stroke="none" d="M 168.41903551203197 384.3253497152483 L 160 364 L 151.58096448796803 384.3253497152483"></path></g><g transform="translate(-46,-22) scale(1,1)"><path fill="none" stroke="#000000" d="M 168.41903551203197 384.3253497152483 L 160 364 L 151.58096448796803 384.3253497152483 L 168.41903551203197 384.3253497152483" stroke-miterlimit="10"></path></g><g transform="translate(-46,-22) scale(1,1)"><path fill="none" stroke="#000000" d="M 792 292 L 792 268 L 1196 268 L 1196 232" stroke-miterlimit="10"></path></g><g transform="translate(-46,-22) scale(1,1)"><path fill="#FFFFFF" stroke="none" d="M 1204.419035512032 252.3253497152483 L 1196 232 L 1187.580964487968 252.3253497152483"></path></g><g transform="translate(-46,-22) scale(1,1)"><path fill="none" stroke="#000000" d="M 1204.419035512032 252.3253497152483 L 1196 232 L 1187.580964487968 252.3253497152483 L 1204.419035512032 252.3253497152483" stroke-miterlimit="10"></path></g><g transform="translate(-46,-22) scale(1,1)"><path fill="none" stroke="#000000" d="M 916 292 L 916 268 L 1196 268 L 1196 232" stroke-miterlimit="10"></path></g><g transform="translate(-46,-22) scale(1,1)"><path fill="#FFFFFF" stroke="none" d="M 1204.419035512032 252.3253497152483 L 1196 232 L 1187.580964487968 252.3253497152483"></path></g><g transform="translate(-46,-22) scale(1,1)"><path fill="none" stroke="#000000" d="M 1204.419035512032 252.3253497152483 L 1196 232 L 1187.580964487968 252.3253497152483 L 1204.419035512032 252.3253497152483" stroke-miterlimit="10"></path></g><g transform="translate(-46,-22) scale(1,1)"><path fill="none" stroke="#000000" d="M 1062 292 L 1062 268 L 1196 268 L 1196 232" stroke-miterlimit="10"></path></g><g transform="translate(-46,-22) scale(1,1)"><path fill="#FFFFFF" stroke="none" d="M 1204.419035512032 252.3253497152483 L 1196 232 L 1187.580964487968 252.3253497152483"></path></g><g transform="translate(-46,-22) scale(1,1)"><path fill="none" stroke="#000000" d="M 1204.419035512032 252.3253497152483 L 1196 232 L 1187.580964487968 252.3253497152483 L 1204.419035512032 252.3253497152483" stroke-miterlimit="10"></path></g><g transform="translate(-46,-22) scale(1,1)"><path fill="none" stroke="#000000" d="M 1204 292 L 1204 268 L 1196 268 L 1196 232" stroke-miterlimit="10"></path></g><g transform="translate(-46,-22) scale(1,1)"><path fill="#FFFFFF" stroke="none" d="M 1204.419035512032 252.3253497152483 L 1196 232 L 1187.580964487968 252.3253497152483"></path></g><g transform="translate(-46,-22) scale(1,1)"><path fill="none" stroke="#000000" d="M 1204.419035512032 252.3253497152483 L 1196 232 L 1187.580964487968 252.3253497152483 L 1204.419035512032 252.3253497152483" stroke-miterlimit="10"></path></g><g transform="translate(-46,-22) scale(1,1)"><path fill="none" stroke="#000000" d="M 1319 292 L 1319 268 L 1196 268 L 1196 232" stroke-miterlimit="10"></path></g><g transform="translate(-46,-22) scale(1,1)"><path fill="#FFFFFF" stroke="none" d="M 1204.419035512032 252.3253497152483 L 1196 232 L 1187.580964487968 252.3253497152483"></path></g><g transform="translate(-46,-22) scale(1,1)"><path fill="none" stroke="#000000" d="M 1204.419035512032 252.3253497152483 L 1196 232 L 1187.580964487968 252.3253497152483 L 1204.419035512032 252.3253497152483" stroke-miterlimit="10"></path></g><g transform="translate(-46,-22) scale(1,1)"><path fill="none" stroke="#000000" d="M 707 335 L 707 384 L 880 384 L 880 528" stroke-miterlimit="10"></path></g><g transform="translate(-46,-22) scale(1,1)"><path fill="none" stroke="#000000" d="M 875.790482243984 517.8373251423759 L 880 528 L 884.209517756016 517.8373251423759" stroke-miterlimit="10"></path></g><g transform="translate(-46,-22) scale(1,1)"><path fill="none" stroke="#000000" d="M 768 335 L 768 364 L 912 364 L 912 528" stroke-miterlimit="10"></path></g><g transform="translate(-46,-22) scale(1,1)"><path fill="none" stroke="#000000" d="M 907.790482243984 517.8373251423759 L 912 528 L 916.209517756016 517.8373251423759" stroke-miterlimit="10"></path></g><g transform="translate(-46,-22) scale(1,1)"><path fill="none" stroke="#000000" d="M 772 292 L 772 232 L 888 232" stroke-miterlimit="10"></path></g><g transform="translate(-46,-22) scale(1,1)"><path fill="none" stroke="#000000" d="M 877.8373251423759 236.209517756016 L 888 232 L 877.8373251423758 227.790482243984" stroke-miterlimit="10"></path></g><g transform="translate(-46,-22) scale(1,1)"><g><path fill="none" stroke="none"></path><text fill="#000000" stroke="none" font-family="Arial" font-size="11px" font-style="normal" font-weight="normal" text-decoration="none" x="785" y="222">+tailPropertyLabel</text></g></g><g transform="translate(-46,-22) scale(1,1)"><path fill="none" stroke="#000000" d="M 744 292 L 744 204 L 888 204" stroke-miterlimit="10"></path></g><g transform="translate(-46,-22) scale(1,1)"><path fill="none" stroke="#000000" d="M 877.8373251423759 208.209517756016 L 888 204 L 877.8373251423758 199.790482243984" stroke-miterlimit="10"></path></g><g transform="translate(-46,-22) scale(1,1)"><g><path fill="none" stroke="none"></path><text fill="#000000" stroke="none" font-family="Arial" font-size="11px" font-style="normal" font-weight="normal" text-decoration="none" x="788" y="199">+tailMultiplicityLabel</text></g></g><g transform="translate(-46,-22) scale(1,1)"><path fill="none" stroke="#000000" d="M 720 292 L 720 176 L 888 176" stroke-miterlimit="10"></path></g><g transform="translate(-46,-22) scale(1,1)"><path fill="none" stroke="#000000" d="M 877.8373251423759 180.209517756016 L 888 176 L 877.8373251423758 171.790482243984" stroke-miterlimit="10"></path></g><g transform="translate(-46,-22) scale(1,1)"><g><path fill="none" stroke="none"></path><text fill="#000000" stroke="none" font-family="Arial" font-size="11px" font-style="normal" font-weight="normal" text-decoration="none" x="779" y="171">+tailRoleNameLabel</text></g></g><g transform="translate(-46,-22) scale(1,1)"><path fill="none" stroke="#000000" d="M 668 292 L 668 148 L 888 148" stroke-miterlimit="10"></path></g><g transform="translate(-46,-22) scale(1,1)"><path fill="none" stroke="#000000" d="M 877.8373251423759 152.209517756016 L 888 148 L 877.8373251423758 143.790482243984" stroke-miterlimit="10"></path></g><g transform="translate(-46,-22) scale(1,1)"><g><path fill="none" stroke="none"></path><text fill="#000000" stroke="none" font-family="Arial" font-size="11px" font-style="normal" font-weight="normal" text-decoration="none" x="772" y="143">+headPropertyLabel</text></g></g><g transform="translate(-46,-22) scale(1,1)"><path fill="none" stroke="#000000" d="M 644 292 L 644 120 L 888 120" stroke-miterlimit="10"></path></g><g transform="translate(-46,-22) scale(1,1)"><path fill="none" stroke="#000000" d="M 877.8373251423759 124.20951775601598 L 888 120 L 877.8373251423758 115.79048224398402" stroke-miterlimit="10"></path></g><g transform="translate(-46,-22) scale(1,1)"><g><path fill="none" stroke="none"></path><text fill="#000000" stroke="none" font-family="Arial" font-size="11px" font-style="normal" font-weight="normal" text-decoration="none" x="772" y="115">+headMultiplicityLabel</text></g></g><g transform="translate(-46,-22) scale(1,1)"><path fill="none" stroke="#000000" d="M 608 292 L 608 96 L 888 96" stroke-miterlimit="10"></path></g><g transform="translate(-46,-22) scale(1,1)"><path fill="none" stroke="#000000" d="M 877.8373251423759 100.20951775601598 L 888 96 L 877.8373251423758 91.79048224398402" stroke-miterlimit="10"></path></g><g transform="translate(-46,-22) scale(1,1)"><g><path fill="none" stroke="none"></path><text fill="#000000" stroke="none" font-family="Arial" font-size="11px" font-style="normal" font-weight="normal" text-decoration="none" x="771" y="86">+headRoleNameLabel</text></g></g><g transform="translate(-46,-22) scale(1,1)"><rect fill="#C0C0C0" stroke="none" x="1039" y="531" width="163" height="43" opacity="0.2"></rect></g><g transform="translate(-46,-22) scale(1,1)"><rect fill="#FFFFFF" stroke="none" x="1032" y="524" width="163" height="43"></rect></g><g transform="translate(-46,-22) scale(1,1)"><path fill="none" stroke="#000000" d="M 1032 524 L 1195 524 L 1195 567 L 1032 567 L 1032 524 Z Z" stroke-miterlimit="10"></path></g><g transform="translate(-46,-22) scale(1,1)"><path fill="none" stroke="#000000" d="M 1032 547 L 1195 547" stroke-miterlimit="10"></path></g><g transform="translate(-46,-22) scale(1,1)"><g><path fill="none" stroke="none"></path><text fill="#000000" stroke="none" font-family="Arial" font-size="11px" font-style="normal" font-weight="bold" text-decoration="none" x="1047" y="541.5">UMLCompartmentItemView</text></g></g><g transform="translate(-46,-22) scale(1,1)"><rect fill="#C0C0C0" stroke="none" x="715" y="455" width="138" height="43" opacity="0.2"></rect></g><g transform="translate(-46,-22) scale(1,1)"><rect fill="#FFFFFF" stroke="none" x="708" y="448" width="138" height="43"></rect></g><g transform="translate(-46,-22) scale(1,1)"><path fill="none" stroke="#000000" d="M 708 448 L 846 448 L 846 491 L 708 491 L 708 448 Z Z" stroke-miterlimit="10"></path></g><g transform="translate(-46,-22) scale(1,1)"><path fill="none" stroke="#000000" d="M 708 471 L 846 471" stroke-miterlimit="10"></path></g><g transform="translate(-46,-22) scale(1,1)"><g><path fill="none" stroke="none"></path><text fill="#000000" stroke="none" font-family="Arial" font-size="11px" font-style="normal" font-weight="bold" text-decoration="none" x="721" y="465.5">UMLCompartmentView</text></g></g><g transform="translate(-46,-22) scale(1,1)"><rect fill="#C0C0C0" stroke="none" x="1071" y="651" width="110" height="43" opacity="0.2"></rect></g><g transform="translate(-46,-22) scale(1,1)"><rect fill="#FFFFFF" stroke="none" x="1064" y="644" width="110" height="43"></rect></g><g transform="translate(-46,-22) scale(1,1)"><path fill="none" stroke="#000000" d="M 1064 644 L 1174 644 L 1174 687 L 1064 687 L 1064 644 Z Z" stroke-miterlimit="10"></path></g><g transform="translate(-46,-22) scale(1,1)"><path fill="none" stroke="#000000" d="M 1064 667 L 1174 667" stroke-miterlimit="10"></path></g><g transform="translate(-46,-22) scale(1,1)"><g><path fill="none" stroke="none"></path><text fill="#000000" stroke="none" font-family="Arial" font-size="11px" font-style="normal" font-weight="bold" text-decoration="none" x="1076" y="661.5">UMLAttributeView</text></g></g><g transform="translate(-46,-22) scale(1,1)"><rect fill="#C0C0C0" stroke="none" x="1187" y="651" width="115" height="43" opacity="0.2"></rect></g><g transform="translate(-46,-22) scale(1,1)"><rect fill="#FFFFFF" stroke="none" x="1180" y="644" width="115" height="43"></rect></g><g transform="translate(-46,-22) scale(1,1)"><path fill="none" stroke="#000000" d="M 1180 644 L 1295 644 L 1295 687 L 1180 687 L 1180 644 Z Z" stroke-miterlimit="10"></path></g><g transform="translate(-46,-22) scale(1,1)"><path fill="none" stroke="#000000" d="M 1180 667 L 1295 667" stroke-miterlimit="10"></path></g><g transform="translate(-46,-22) scale(1,1)"><g><path fill="none" stroke="none"></path><text fill="#000000" stroke="none" font-family="Arial" font-size="11px" font-style="normal" font-weight="bold" text-decoration="none" x="1190.5" y="661.5">UMLOperationView</text></g></g><g transform="translate(-46,-22) scale(1,1)"><rect fill="#C0C0C0" stroke="none" x="871" y="651" width="171" height="43" opacity="0.2"></rect></g><g transform="translate(-46,-22) scale(1,1)"><rect fill="#FFFFFF" stroke="none" x="864" y="644" width="171" height="43"></rect></g><g transform="translate(-46,-22) scale(1,1)"><path fill="none" stroke="#000000" d="M 864 644 L 1035 644 L 1035 687 L 864 687 L 864 644 Z Z" stroke-miterlimit="10"></path></g><g transform="translate(-46,-22) scale(1,1)"><path fill="none" stroke="#000000" d="M 864 667 L 1035 667" stroke-miterlimit="10"></path></g><g transform="translate(-46,-22) scale(1,1)"><g><path fill="none" stroke="none"></path><text fill="#000000" stroke="none" font-family="Arial" font-size="11px" font-style="normal" font-weight="bold" text-decoration="none" x="878.5" y="661.5">UMLTemplateParameterView</text></g></g><g transform="translate(-46,-22) scale(1,1)"><path fill="none" stroke="#000000" d="M 1112 644 L 1112 567" stroke-miterlimit="10"></path></g><g transform="translate(-46,-22) scale(1,1)"><path fill="#FFFFFF" stroke="none" d="M 1120.419035512032 587.3253497152483 L 1112 567 L 1103.580964487968 587.3253497152483"></path></g><g transform="translate(-46,-22) scale(1,1)"><path fill="none" stroke="#000000" d="M 1120.419035512032 587.3253497152483 L 1112 567 L 1103.580964487968 587.3253497152483 L 1120.419035512032 587.3253497152483" stroke-miterlimit="10"></path></g><g transform="translate(-46,-22) scale(1,1)"><path fill="none" stroke="#000000" d="M 973 644 L 973 612 L 1112 612 L 1112 567" stroke-miterlimit="10"></path></g><g transform="translate(-46,-22) scale(1,1)"><path fill="#FFFFFF" stroke="none" d="M 1120.419035512032 587.3253497152483 L 1112 567 L 1103.580964487968 587.3253497152483"></path></g><g transform="translate(-46,-22) scale(1,1)"><path fill="none" stroke="#000000" d="M 1120.419035512032 587.3253497152483 L 1112 567 L 1103.580964487968 587.3253497152483 L 1120.419035512032 587.3253497152483" stroke-miterlimit="10"></path></g><g transform="translate(-46,-22) scale(1,1)"><path fill="none" stroke="#000000" d="M 1224 644 L 1224 612 L 1112 612 L 1112 567" stroke-miterlimit="10"></path></g><g transform="translate(-46,-22) scale(1,1)"><path fill="#FFFFFF" stroke="none" d="M 1120.419035512032 587.3253497152483 L 1112 567 L 1103.580964487968 587.3253497152483"></path></g><g transform="translate(-46,-22) scale(1,1)"><path fill="none" stroke="#000000" d="M 1120.419035512032 587.3253497152483 L 1112 567 L 1103.580964487968 587.3253497152483 L 1120.419035512032 587.3253497152483" stroke-miterlimit="10"></path></g><g transform="translate(-46,-22) scale(1,1)"><path fill="none" stroke="#000000" d="M 1032 552 L 943 552" stroke-miterlimit="10"></path></g><g transform="translate(-46,-22) scale(1,1)"><path fill="#000000" stroke="none" d="M 953.1626748576241 547.790482243984 L 943 552 L 953.1626748576241 556.209517756016 L 965 552"></path></g><g transform="translate(-46,-22) scale(1,1)"><path fill="none" stroke="#000000" d="M 953.1626748576241 547.790482243984 L 943 552 L 953.1626748576241 556.209517756016 L 965 552 L 953.1626748576241 547.790482243984" stroke-miterlimit="10"></path></g><g transform="translate(-46,-22) scale(1,1)"><g><path fill="none" stroke="none"></path><text fill="#000000" stroke="none" font-family="Arial" font-size="11px" font-style="normal" font-weight="normal" text-decoration="none" x="990" y="573">+items</text></g></g><g transform="translate(-46,-22) scale(1,1)"><g><path fill="none" stroke="none"></path><text fill="#000000" stroke="none" font-family="Arial" font-size="11px" font-style="normal" font-weight="normal" text-decoration="none" x="1002" y="545">0..*</text></g></g><g transform="translate(-46,-22) scale(1,1)"><rect fill="#C0C0C0" stroke="none" x="603" y="535" width="169" height="43" opacity="0.2"></rect></g><g transform="translate(-46,-22) scale(1,1)"><rect fill="#FFFFFF" stroke="none" x="596" y="528" width="169" height="43"></rect></g><g transform="translate(-46,-22) scale(1,1)"><path fill="none" stroke="#000000" d="M 596 528 L 765 528 L 765 571 L 596 571 L 596 528 Z Z" stroke-miterlimit="10"></path></g><g transform="translate(-46,-22) scale(1,1)"><path fill="none" stroke="#000000" d="M 596 551 L 765 551" stroke-miterlimit="10"></path></g><g transform="translate(-46,-22) scale(1,1)"><g><path fill="none" stroke="none"></path><text fill="#000000" stroke="none" font-family="Arial" font-size="11px" font-style="normal" font-weight="bold" text-decoration="none" x="610" y="545.5">UMLNameCompartmentView</text></g></g><g transform="translate(-46,-22) scale(1,1)"><rect fill="#C0C0C0" stroke="none" x="791" y="535" width="159" height="84" opacity="0.2"></rect></g><g transform="translate(-46,-22) scale(1,1)"><rect fill="#FFFFFF" stroke="none" x="784" y="528" width="159" height="84"></rect></g><g transform="translate(-46,-22) scale(1,1)"><path fill="none" stroke="#000000" d="M 784 528 L 943 528 L 943 612 L 784 612 L 784 528 Z Z" stroke-miterlimit="10"></path></g><g transform="translate(-46,-22) scale(1,1)"><path fill="none" stroke="#000000" d="M 784 551 L 943 551" stroke-miterlimit="10"></path></g><g transform="translate(-46,-22) scale(1,1)"><g><path fill="none" stroke="none"></path><text fill="#000000" stroke="none" font-family="Arial" font-size="11px" font-style="normal" font-weight="bold" text-decoration="none" x="799" y="545.5">UMLListCompartmentView</text></g></g><g transform="translate(-46,-22) scale(1,1)"><path fill="none" stroke="#000000" d="M 750 528 L 750 491" stroke-miterlimit="10"></path></g><g transform="translate(-46,-22) scale(1,1)"><path fill="#FFFFFF" stroke="none" d="M 758.419035512032 511.3253497152483 L 750 491 L 741.580964487968 511.3253497152483"></path></g><g transform="translate(-46,-22) scale(1,1)"><path fill="none" stroke="#000000" d="M 758.419035512032 511.3253497152483 L 750 491 L 741.580964487968 511.3253497152483 L 758.419035512032 511.3253497152483" stroke-miterlimit="10"></path></g><g transform="translate(-46,-22) scale(1,1)"><path fill="none" stroke="#000000" d="M 800 528 L 800 491" stroke-miterlimit="10"></path></g><g transform="translate(-46,-22) scale(1,1)"><path fill="#FFFFFF" stroke="none" d="M 808.419035512032 511.3253497152483 L 800 491 L 791.580964487968 511.3253497152483"></path></g><g transform="translate(-46,-22) scale(1,1)"><path fill="none" stroke="#000000" d="M 808.419035512032 511.3253497152483 L 800 491 L 791.580964487968 511.3253497152483 L 808.419035512032 511.3253497152483" stroke-miterlimit="10"></path></g><g transform="translate(-46,-22) scale(1,1)"><path fill="none" stroke="#000000" d="M 211 343.02593659942363 L 500 388 L 640 612 L 783 585.067264573991" stroke-miterlimit="10"></path></g><g transform="translate(-46,-22) scale(1,1)"><path fill="none" stroke="#000000" d="M 773.7920395519287 591.0850269809622 L 783 585.067264573991 L 772.2337881207325 582.8114539058012" stroke-miterlimit="10"></path></g><g transform="translate(-46,-22) scale(1,1)"><path fill="none" stroke="#000000" d="M 211 346.96676737160124 L 484 408 L 636 652 L 783 598.8986784140969" stroke-miterlimit="10"></path></g><g transform="translate(-46,-22) scale(1,1)"><path fill="none" stroke="#000000" d="M 774.8719982071576 606.3105328956387 L 783 598.8986784140969 L 772.0116622497186 598.3922857939478" stroke-miterlimit="10"></path></g><g transform="translate(-46,-22) scale(1,1)"><path fill="none" stroke="#000000" d="M 211 351.09090909090907 L 472 428 L 628 696 L 783 612.8936170212766" stroke-miterlimit="10"></path></g><g transform="translate(-46,-22) scale(1,1)"><path fill="none" stroke="#000000" d="M 776.0326445684021 621.4057235930826 L 783 612.8936170212766 L 772.0543674482736 613.9859210277634" stroke-miterlimit="10"></path></g><g transform="translate(-46,-22) scale(1,1)"><rect fill="#C0C0C0" stroke="none" x="291" y="603" width="126" height="42" opacity="0.2"></rect></g><g transform="translate(-46,-22) scale(1,1)"><rect fill="#FFFFFF" stroke="none" x="284" y="596" width="126" height="42"></rect></g><g transform="translate(-46,-22) scale(1,1)"><path fill="none" stroke="#000000" d="M 284 596 L 410 596 L 410 638 L 284 638 L 284 596 Z Z" stroke-miterlimit="10"></path></g><g transform="translate(-46,-22) scale(1,1)"><path fill="none" stroke="#000000" d="M 284 619 L 410 619" stroke-miterlimit="10"></path></g><g transform="translate(-46,-22) scale(1,1)"><g><path fill="none" stroke="none"></path><text fill="#000000" stroke="none" font-family="Arial" font-size="11px" font-style="normal" font-weight="bold" text-decoration="none" x="296" y="613.5">UMLComponentView</text></g></g><g transform="translate(-46,-22) scale(1,1)"><rect fill="#C0C0C0" stroke="none" x="99" y="659" width="174" height="42" opacity="0.2"></rect></g><g transform="translate(-46,-22) scale(1,1)"><rect fill="#FFFFFF" stroke="none" x="92" y="652" width="174" height="42"></rect></g><g transform="translate(-46,-22) scale(1,1)"><path fill="none" stroke="#000000" d="M 92 652 L 266 652 L 266 694 L 92 694 L 92 652 Z Z" stroke-miterlimit="10"></path></g><g transform="translate(-46,-22) scale(1,1)"><path fill="none" stroke="#000000" d="M 92 675 L 266 675" stroke-miterlimit="10"></path></g><g transform="translate(-46,-22) scale(1,1)"><g><path fill="none" stroke="none"></path><text fill="#000000" stroke="none" font-family="Arial" font-size="11px" font-style="normal" font-weight="bold" text-decoration="none" x="107" y="669.5">UMLComponentInstanceView</text></g></g><g transform="translate(-46,-22) scale(1,1)"><rect fill="#C0C0C0" stroke="none" x="291" y="659" width="89" height="42" opacity="0.2"></rect></g><g transform="translate(-46,-22) scale(1,1)"><rect fill="#FFFFFF" stroke="none" x="284" y="652" width="89" height="42"></rect></g><g transform="translate(-46,-22) scale(1,1)"><path fill="none" stroke="#000000" d="M 284 652 L 373 652 L 373 694 L 284 694 L 284 652 Z Z" stroke-miterlimit="10"></path></g><g transform="translate(-46,-22) scale(1,1)"><path fill="none" stroke="#000000" d="M 284 675 L 373 675" stroke-miterlimit="10"></path></g><g transform="translate(-46,-22) scale(1,1)"><g><path fill="none" stroke="none"></path><text fill="#000000" stroke="none" font-family="Arial" font-size="11px" font-style="normal" font-weight="bold" text-decoration="none" x="292.5" y="669.5">UMLNodeView</text></g></g><g transform="translate(-46,-22) scale(1,1)"><rect fill="#C0C0C0" stroke="none" x="99" y="603" width="137" height="42" opacity="0.2"></rect></g><g transform="translate(-46,-22) scale(1,1)"><rect fill="#FFFFFF" stroke="none" x="92" y="596" width="137" height="42"></rect></g><g transform="translate(-46,-22) scale(1,1)"><path fill="none" stroke="#000000" d="M 92 596 L 229 596 L 229 638 L 92 638 L 92 596 Z Z" stroke-miterlimit="10"></path></g><g transform="translate(-46,-22) scale(1,1)"><path fill="none" stroke="#000000" d="M 92 619 L 229 619" stroke-miterlimit="10"></path></g><g transform="translate(-46,-22) scale(1,1)"><g><path fill="none" stroke="none"></path><text fill="#000000" stroke="none" font-family="Arial" font-size="11px" font-style="normal" font-weight="bold" text-decoration="none" x="103.5" y="613.5">UMLNodeInstanceView</text></g></g><g transform="translate(-46,-22) scale(1,1)"><rect fill="#C0C0C0" stroke="none" x="1387" y="407" width="98" height="42" opacity="0.2"></rect></g><g transform="translate(-46,-22) scale(1,1)"><rect fill="#FFFFFF" stroke="none" x="1380" y="400" width="98" height="42"></rect></g><g transform="translate(-46,-22) scale(1,1)"><path fill="none" stroke="#000000" d="M 1380 400 L 1478 400 L 1478 442 L 1380 442 L 1380 400 Z Z" stroke-miterlimit="10"></path></g><g transform="translate(-46,-22) scale(1,1)"><path fill="none" stroke="#000000" d="M 1380 423 L 1478 423" stroke-miterlimit="10"></path></g><g transform="translate(-46,-22) scale(1,1)"><g><path fill="none" stroke="none"></path><text fill="#000000" stroke="none" font-family="Arial" font-size="11px" font-style="normal" font-weight="bold" text-decoration="none" x="1389" y="417.5">UMLExtendView</text></g></g><g transform="translate(-46,-22) scale(1,1)"><path fill="none" stroke="#000000" d="M 1407.9797570850203 399 L 1249.3724696356276 233" stroke-miterlimit="10"></path></g><g transform="translate(-46,-22) scale(1,1)"><path fill="#FFFFFF" stroke="none" d="M 1269.5008621623272 241.87962917531488 L 1249.3724696356276 233 L 1257.3265464813544 253.51176885430098"></path></g><g transform="translate(-46,-22) scale(1,1)"><path fill="none" stroke="#000000" d="M 1269.5008621623272 241.87962917531488 L 1249.3724696356276 233 L 1257.3265464813544 253.51176885430098 L 1269.5008621623272 241.87962917531488" stroke-miterlimit="10"></path></g><g transform="translate(-46,-22) scale(1,1)"><rect fill="#C0C0C0" stroke="none" x="1276" y="431" width="101" height="42" opacity="0.2"></rect></g><g transform="translate(-46,-22) scale(1,1)"><rect fill="#FFFFFF" stroke="none" x="1269" y="424" width="101" height="42"></rect></g><g transform="translate(-46,-22) scale(1,1)"><path fill="none" stroke="#000000" d="M 1269 424 L 1370 424 L 1370 466 L 1269 466 L 1269 424 Z Z" stroke-miterlimit="10"></path></g><g transform="translate(-46,-22) scale(1,1)"><path fill="none" stroke="#000000" d="M 1269 447 L 1370 447" stroke-miterlimit="10"></path></g><g transform="translate(-46,-22) scale(1,1)"><g><path fill="none" stroke="none"></path><text fill="#000000" stroke="none" font-family="Arial" font-size="11px" font-style="normal" font-weight="bold" text-decoration="none" x="1279" y="441.5">UMLIncludeView</text></g></g><g transform="translate(-46,-22) scale(1,1)"><path fill="none" stroke="#000000" d="M 1308.771217712177 423 L 1220.4317343173432 233" stroke-miterlimit="10"></path></g><g transform="translate(-46,-22) scale(1,1)"><path fill="#FFFFFF" stroke="none" d="M 1236.6351767642095 247.8811442057085 L 1220.4317343173432 233 L 1221.366740370417 254.98012201241647"></path></g><g transform="translate(-46,-22) scale(1,1)"><path fill="none" stroke="#000000" d="M 1236.6351767642095 247.8811442057085 L 1220.4317343173432 233 L 1221.366740370417 254.98012201241647 L 1236.6351767642095 247.8811442057085" stroke-miterlimit="10"></path></g><g transform="translate(-46,-22) scale(1,1)"><rect fill="#C0C0C0" stroke="none" x="1315" y="655" width="143" height="42" opacity="0.2"></rect></g><g transform="translate(-46,-22) scale(1,1)"><rect fill="#FFFFFF" stroke="none" x="1308" y="648" width="143" height="42"></rect></g><g transform="translate(-46,-22) scale(1,1)"><path fill="none" stroke="#000000" d="M 1308 648 L 1451 648 L 1451 690 L 1308 690 L 1308 648 Z Z" stroke-miterlimit="10"></path></g><g transform="translate(-46,-22) scale(1,1)"><path fill="none" stroke="#000000" d="M 1308 671 L 1451 671" stroke-miterlimit="10"></path></g><g transform="translate(-46,-22) scale(1,1)"><g><path fill="none" stroke="none"></path><text fill="#000000" stroke="none" font-family="Arial" font-size="11px" font-style="normal" font-weight="bold" text-decoration="none" x="1320.5" y="665.5">UMLExtensionPointView</text></g></g><g transform="translate(-46,-22) scale(1,1)"><path fill="none" stroke="#000000" d="M 1331.8064516129032 647 L 1162.3387096774193 568" stroke-miterlimit="10"></path></g><g transform="translate(-46,-22) scale(1,1)"><path fill="#FFFFFF" stroke="none" d="M 1184.3178825299503 568.9570583673743 L 1162.3387096774193 568 L 1177.2035893847535 584.2183646304577"></path></g><g transform="translate(-46,-22) scale(1,1)"><path fill="none" stroke="#000000" d="M 1184.3178825299503 568.9570583673743 L 1162.3387096774193 568 L 1177.2035893847535 584.2183646304577 L 1184.3178825299503 568.9570583673743" stroke-miterlimit="10"></path></g><g transform="translate(-46,-22) scale(1,1)"><path fill="none" stroke="#000000" d="M 569.6530612244898 423 L 568 396 L 860 424 L 862.1164383561644 527" stroke-miterlimit="10"></path></g><g transform="translate(-46,-22) scale(1,1)"><path fill="none" stroke="#000000" d="M 857.6990309701894 516.9259485813138 L 862.1164383561644 527 L 866.1162897104529 516.7529912099385" stroke-miterlimit="10"></path></g><g transform="translate(-46,-22) scale(1,1)"><g><path fill="none" stroke="none"></path><text fill="#000000" stroke="none" font-family="Arial" font-size="11px" font-style="normal" font-weight="normal" text-decoration="none" x="805.1164383561644" y="506">+extensionPointCompartment</text></g></g><g transform="translate(-46,-22) scale(1,1)"><path fill="none" stroke="#000000" d="M 225 206.79756097560977 L 568 216 L 672.6006006006006 527" stroke-miterlimit="10"></path></g><g transform="translate(-46,-22) scale(1,1)"><path fill="none" stroke="#000000" d="M 665.3709685764851 518.7094981577782 L 672.6006006006006 527 L 673.3507488429397 516.0256080981899" stroke-miterlimit="10"></path></g><g transform="translate(-46,-22) scale(1,1)"><g><path fill="none" stroke="none"></path><text fill="#000000" stroke="none" font-family="Arial" font-size="11px" font-style="normal" font-weight="normal" text-decoration="none" x="628.6006006006006" y="503">+nameCompartment</text></g></g><g transform="translate(-46,-22) scale(1,1)"><rect fill="#C0C0C0" stroke="none" x="1359" y="295" width="127" height="43" opacity="0.2"></rect></g><g transform="translate(-46,-22) scale(1,1)"><rect fill="#FFFFFF" stroke="none" x="1352" y="288" width="127" height="43"></rect></g><g transform="translate(-46,-22) scale(1,1)"><path fill="none" stroke="#000000" d="M 1352 288 L 1479 288 L 1479 331 L 1352 331 L 1352 288 Z Z" stroke-miterlimit="10"></path></g><g transform="translate(-46,-22) scale(1,1)"><path fill="none" stroke="#000000" d="M 1352 311 L 1479 311" stroke-miterlimit="10"></path></g><g transform="translate(-46,-22) scale(1,1)"><path fill="none" stroke="#000000" d="M 1352 321 L 1479 321" stroke-miterlimit="10"></path></g><g transform="translate(-46,-22) scale(1,1)"><g><path fill="none" stroke="none"></path><text fill="#000000" stroke="none" font-family="Arial" font-size="11px" font-style="normal" font-weight="bold" text-decoration="none" x="1363.5" y="305.5">UMLDeploymentView</text></g></g><g transform="translate(-46,-22) scale(1,1)"><path fill="none" stroke="#000000" d="M 1378.8222222222223 287 L 1260 214.74324324324323" stroke-miterlimit="10"></path></g><g transform="translate(-46,-22) scale(1,1)"><path fill="#FFFFFF" stroke="none" d="M 1281.7407821117238 218.11049630331362 L 1260 214.74324324324323 L 1272.992046986752 232.4973051754892"></path></g><g transform="translate(-46,-22) scale(1,1)"><path fill="none" stroke="#000000" d="M 1281.7407821117238 218.11049630331362 L 1260 214.74324324324323 L 1272.992046986752 232.4973051754892 L 1281.7407821117238 218.11049630331362" stroke-miterlimit="10"></path></g></g></svg>