<svg version="1.1" xmlns="http://www.w3.org/2000/svg" xmlns:xlink="http://www.w3.org/1999/xlink" width="875" height="831"><defs></defs><g><g transform="translate(-6,-26) scale(1,1)"><rect fill="#C0C0C0" stroke="none" x="139" y="43" width="116" height="40" opacity="0.2"></rect></g><g transform="translate(-6,-26) scale(1,1)"><rect fill="#C0C0C0" stroke="none" x="132" y="36" width="116" height="40"></rect></g><g transform="translate(-6,-26) scale(1,1)"><path fill="none" stroke="#000000" d="M 132 36 L 248 36 L 248 76 L 132 76 L 132 36 Z Z" stroke-miterlimit="10"></path></g><g transform="translate(-6,-26) scale(1,1)"><g><path fill="none" stroke="none"></path><text fill="#000000" stroke="none" font-family="Arial" font-size="11px" font-style="normal" font-weight="bold" text-decoration="none" x="156" y="53.5">UMLClassifier</text></g></g><g transform="translate(-6,-26) scale(1,1)"><rect fill="#C0C0C0" stroke="none" x="23" y="161" width="117" height="54" opacity="0.2"></rect></g><g transform="translate(-6,-26) scale(1,1)"><rect fill="#FFFFFF" stroke="none" x="16" y="154" width="117" height="54"></rect></g><g transform="translate(-6,-26) scale(1,1)"><path fill="none" stroke="#000000" d="M 16 154 L 133 154 L 133 208 L 16 208 L 16 154 Z Z" stroke-miterlimit="10"></path></g><g transform="translate(-6,-26) scale(1,1)"><path fill="none" stroke="#000000" d="M 16 177 L 133 177" stroke-miterlimit="10"></path></g><g transform="translate(-6,-26) scale(1,1)"><g><path fill="none" stroke="none"></path><text fill="#000000" stroke="none" font-family="Arial" font-size="11px" font-style="normal" font-weight="bold" text-decoration="none" x="49" y="171.5">UMLClass</text></g></g><g transform="translate(-6,-26) scale(1,1)"><g><path fill="none" stroke="none"></path><text fill="#000000" stroke="none" font-family="Arial" font-size="11px" font-style="normal" font-weight="normal" text-decoration="none" x="21" y="192.5">+isActive: Boolean</text></g></g><g transform="translate(-6,-26) scale(1,1)"><path fill="none" stroke="#000000" d="M 80 154 L 80 116 L 192 116 L 192 76" stroke-miterlimit="10"></path></g><g transform="translate(-6,-26) scale(1,1)"><path fill="#FFFFFF" stroke="none" d="M 200.41903551203197 96.32534971524831 L 192 76 L 183.58096448796803 96.32534971524831"></path></g><g transform="translate(-6,-26) scale(1,1)"><path fill="none" stroke="#000000" d="M 200.41903551203197 96.32534971524831 L 192 76 L 183.58096448796803 96.32534971524831 L 200.41903551203197 96.32534971524831" stroke-miterlimit="10"></path></g><g transform="translate(-6,-26) scale(1,1)"><rect fill="#C0C0C0" stroke="none" x="263" y="231" width="96" height="52" opacity="0.2"></rect></g><g transform="translate(-6,-26) scale(1,1)"><rect fill="#FFFFFF" stroke="none" x="256" y="224" width="96" height="52"></rect></g><g transform="translate(-6,-26) scale(1,1)"><path fill="none" stroke="#000000" d="M 256 224 L 352 224 L 352 276 L 256 276 L 256 224 Z Z" stroke-miterlimit="10"></path></g><g transform="translate(-6,-26) scale(1,1)"><path fill="none" stroke="#000000" d="M 256 247 L 352 247" stroke-miterlimit="10"></path></g><g transform="translate(-6,-26) scale(1,1)"><g><path fill="none" stroke="none"></path><text fill="#000000" stroke="none" font-family="Arial" font-size="11px" font-style="normal" font-weight="bold" text-decoration="none" x="271" y="241.5">UMLInterface</text></g></g><g transform="translate(-6,-26) scale(1,1)"><path fill="none" stroke="#000000" d="M 304 224 L 304 116 L 192 116 L 192 76" stroke-miterlimit="10"></path></g><g transform="translate(-6,-26) scale(1,1)"><path fill="#FFFFFF" stroke="none" d="M 200.41903551203197 96.32534971524831 L 192 76 L 183.58096448796803 96.32534971524831"></path></g><g transform="translate(-6,-26) scale(1,1)"><path fill="none" stroke="#000000" d="M 200.41903551203197 96.32534971524831 L 192 76 L 183.58096448796803 96.32534971524831 L 200.41903551203197 96.32534971524831" stroke-miterlimit="10"></path></g><g transform="translate(-6,-26) scale(1,1)"><rect fill="#C0C0C0" stroke="none" x="679" y="161" width="199" height="47" opacity="0.2"></rect></g><g transform="translate(-6,-26) scale(1,1)"><rect fill="#FFFFFF" stroke="none" x="672" y="154" width="199" height="47"></rect></g><g transform="translate(-6,-26) scale(1,1)"><path fill="none" stroke="#000000" d="M 672 154 L 871 154 L 871 201 L 672 201 L 672 154 Z Z" stroke-miterlimit="10"></path></g><g transform="translate(-6,-26) scale(1,1)"><path fill="none" stroke="#000000" d="M 672 177 L 871 177" stroke-miterlimit="10"></path></g><g transform="translate(-6,-26) scale(1,1)"><g><path fill="none" stroke="none"></path><text fill="#000000" stroke="none" font-family="Arial" font-size="11px" font-style="normal" font-weight="bold" text-decoration="none" x="732" y="171.5">UMLComponent</text></g></g><g transform="translate(-6,-26) scale(1,1)"><g><path fill="none" stroke="none"></path><text fill="#000000" stroke="none" font-family="Arial" font-size="11px" font-style="normal" font-weight="normal" text-decoration="none" x="677" y="192.5">+isIndirectlyInstantiated: Boolean = true</text></g></g><g transform="translate(-6,-26) scale(1,1)"><rect fill="#C0C0C0" stroke="none" x="343" y="161" width="120" height="45" opacity="0.2"></rect></g><g transform="translate(-6,-26) scale(1,1)"><rect fill="#FFFFFF" stroke="none" x="336" y="154" width="120" height="45"></rect></g><g transform="translate(-6,-26) scale(1,1)"><path fill="none" stroke="#000000" d="M 336 154 L 456 154 L 456 199 L 336 199 L 336 154 Z Z" stroke-miterlimit="10"></path></g><g transform="translate(-6,-26) scale(1,1)"><path fill="none" stroke="#000000" d="M 336 177 L 456 177" stroke-miterlimit="10"></path></g><g transform="translate(-6,-26) scale(1,1)"><g><path fill="none" stroke="none"></path><text fill="#000000" stroke="none" font-family="Arial" font-size="11px" font-style="normal" font-weight="bold" text-decoration="none" x="371.5" y="171.5">UMLNode</text></g></g><g transform="translate(-6,-26) scale(1,1)"><path fill="none" stroke="#000000" d="M 700 154 L 700 116 L 192 116 L 192 76" stroke-miterlimit="10"></path></g><g transform="translate(-6,-26) scale(1,1)"><path fill="#FFFFFF" stroke="none" d="M 200.41903551203197 96.32534971524831 L 192 76 L 183.58096448796803 96.32534971524831"></path></g><g transform="translate(-6,-26) scale(1,1)"><path fill="none" stroke="#000000" d="M 200.41903551203197 96.32534971524831 L 192 76 L 183.58096448796803 96.32534971524831 L 200.41903551203197 96.32534971524831" stroke-miterlimit="10"></path></g><g transform="translate(-6,-26) scale(1,1)"><path fill="none" stroke="#000000" d="M 368 154 L 368 116 L 192 116 L 192 76" stroke-miterlimit="10"></path></g><g transform="translate(-6,-26) scale(1,1)"><path fill="#FFFFFF" stroke="none" d="M 200.41903551203197 96.32534971524831 L 192 76 L 183.58096448796803 96.32534971524831"></path></g><g transform="translate(-6,-26) scale(1,1)"><path fill="none" stroke="#000000" d="M 200.41903551203197 96.32534971524831 L 192 76 L 183.58096448796803 96.32534971524831 L 200.41903551203197 96.32534971524831" stroke-miterlimit="10"></path></g><g transform="translate(-6,-26) scale(1,1)"><rect fill="#C0C0C0" stroke="none" x="483" y="161" width="91" height="47" opacity="0.2"></rect></g><g transform="translate(-6,-26) scale(1,1)"><rect fill="#FFFFFF" stroke="none" x="476" y="154" width="91" height="47"></rect></g><g transform="translate(-6,-26) scale(1,1)"><path fill="none" stroke="#000000" d="M 476 154 L 567 154 L 567 201 L 476 201 L 476 154 Z Z" stroke-miterlimit="10"></path></g><g transform="translate(-6,-26) scale(1,1)"><path fill="none" stroke="#000000" d="M 476 177 L 567 177" stroke-miterlimit="10"></path></g><g transform="translate(-6,-26) scale(1,1)"><g><path fill="none" stroke="none"></path><text fill="#000000" stroke="none" font-family="Arial" font-size="11px" font-style="normal" font-weight="bold" text-decoration="none" x="493" y="171.5">UMLArtifact</text></g></g><g transform="translate(-6,-26) scale(1,1)"><g><path fill="none" stroke="none"></path><text fill="#000000" stroke="none" font-family="Arial" font-size="11px" font-style="normal" font-weight="normal" text-decoration="none" x="481" y="192.5">+fileName: String</text></g></g><g transform="translate(-6,-26) scale(1,1)"><path fill="none" stroke="#000000" d="M 527 154 L 527 116 L 192 116 L 192 76" stroke-miterlimit="10"></path></g><g transform="translate(-6,-26) scale(1,1)"><path fill="#FFFFFF" stroke="none" d="M 200.41903551203197 96.32534971524831 L 192 76 L 183.58096448796803 96.32534971524831"></path></g><g transform="translate(-6,-26) scale(1,1)"><path fill="none" stroke="#000000" d="M 200.41903551203197 96.32534971524831 L 192 76 L 183.58096448796803 96.32534971524831 L 200.41903551203197 96.32534971524831" stroke-miterlimit="10"></path></g><g transform="translate(-6,-26) scale(1,1)"><rect fill="#C0C0C0" stroke="none" x="427" y="247" width="112" height="29" opacity="0.2"></rect></g><g transform="translate(-6,-26) scale(1,1)"><rect fill="#C0C0C0" stroke="none" x="420" y="240" width="112" height="29"></rect></g><g transform="translate(-6,-26) scale(1,1)"><path fill="none" stroke="#000000" d="M 420 240 L 532 240 L 532 269 L 420 269 L 420 240 Z Z" stroke-miterlimit="10"></path></g><g transform="translate(-6,-26) scale(1,1)"><g><path fill="none" stroke="none"></path><text fill="#000000" stroke="none" font-family="Arial" font-size="11px" font-style="normal" font-weight="bold" text-decoration="none" x="430.5" y="257.5">UMLModelElement</text></g></g><g transform="translate(-6,-26) scale(1,1)"><path fill="none" stroke="#000000" d="M 567 175 L 672 175" stroke-miterlimit="10"></path></g><g transform="translate(-6,-26) scale(1,1)"><path fill="#FFFFFF" stroke="none" d="M 661.8373251423759 179.209517756016 L 672 175 L 661.8373251423758 170.790482243984 L 650 175"></path></g><g transform="translate(-6,-26) scale(1,1)"><path fill="none" stroke="#000000" d="M 661.8373251423759 179.209517756016 L 672 175 L 661.8373251423758 170.790482243984 L 650 175 L 661.8373251423759 179.209517756016" stroke-miterlimit="10"></path></g><g transform="translate(-6,-26) scale(1,1)"><path fill="none" stroke="#000000" d="M 577.1626748576241 170.790482243984 L 567 175 L 577.1626748576241 179.209517756016" stroke-miterlimit="10"></path></g><g transform="translate(-6,-26) scale(1,1)"><g><path fill="none" stroke="none"></path><text fill="#000000" stroke="none" font-family="Arial" font-size="11px" font-style="normal" font-weight="normal" text-decoration="none" x="569" y="166">+implementations</text></g></g><g transform="translate(-6,-26) scale(1,1)"><g><path fill="none" stroke="none"></path><text fill="#000000" stroke="none" font-family="Arial" font-size="11px" font-style="normal" font-weight="normal" text-decoration="none" x="586" y="193">*</text></g></g><g transform="translate(-6,-26) scale(1,1)"><rect fill="#C0C0C0" stroke="none" x="707" y="251" width="116" height="44" opacity="0.2"></rect></g><g transform="translate(-6,-26) scale(1,1)"><rect fill="#FFFFFF" stroke="none" x="700" y="244" width="116" height="44"></rect></g><g transform="translate(-6,-26) scale(1,1)"><path fill="none" stroke="#000000" d="M 700 244 L 816 244 L 816 288 L 700 288 L 700 244 Z Z" stroke-miterlimit="10"></path></g><g transform="translate(-6,-26) scale(1,1)"><path fill="none" stroke="#000000" d="M 700 267 L 816 267" stroke-miterlimit="10"></path></g><g transform="translate(-6,-26) scale(1,1)"><g><path fill="none" stroke="none"></path><text fill="#000000" stroke="none" font-family="Arial" font-size="11px" font-style="normal" font-weight="bold" text-decoration="none" x="719" y="261.5">UMLSubsystem</text></g></g><g transform="translate(-6,-26) scale(1,1)"><path fill="none" stroke="#000000" d="M 756 244 L 756 201" stroke-miterlimit="10"></path></g><g transform="translate(-6,-26) scale(1,1)"><path fill="#FFFFFF" stroke="none" d="M 764.419035512032 221.3253497152483 L 756 201 L 747.580964487968 221.3253497152483"></path></g><g transform="translate(-6,-26) scale(1,1)"><path fill="none" stroke="#000000" d="M 764.419035512032 221.3253497152483 L 756 201 L 747.580964487968 221.3253497152483 L 764.419035512032 221.3253497152483" stroke-miterlimit="10"></path></g><g transform="translate(-6,-26) scale(1,1)"><rect fill="#C0C0C0" stroke="none" x="511" y="595" width="144" height="43" opacity="0.2"></rect></g><g transform="translate(-6,-26) scale(1,1)"><rect fill="#FFFFFF" stroke="none" x="504" y="588" width="144" height="43"></rect></g><g transform="translate(-6,-26) scale(1,1)"><path fill="none" stroke="#000000" d="M 504 588 L 648 588 L 648 631 L 504 631 L 504 588 Z Z" stroke-miterlimit="10"></path></g><g transform="translate(-6,-26) scale(1,1)"><path fill="none" stroke="#000000" d="M 504 611 L 648 611" stroke-miterlimit="10"></path></g><g transform="translate(-6,-26) scale(1,1)"><g><path fill="none" stroke="none"></path><text fill="#000000" stroke="none" font-family="Arial" font-size="11px" font-style="normal" font-weight="bold" text-decoration="none" x="516" y="605.5">UMLCommunicationPath</text></g></g><g transform="translate(-6,-26) scale(1,1)"><path fill="none" stroke="#000000" d="M 568 588 L 568 548" stroke-miterlimit="10"></path></g><g transform="translate(-6,-26) scale(1,1)"><path fill="#FFFFFF" stroke="none" d="M 576.419035512032 568.3253497152483 L 568 548 L 559.580964487968 568.3253497152483"></path></g><g transform="translate(-6,-26) scale(1,1)"><path fill="none" stroke="#000000" d="M 576.419035512032 568.3253497152483 L 568 548 L 559.580964487968 568.3253497152483 L 576.419035512032 568.3253497152483" stroke-miterlimit="10"></path></g><g transform="translate(-6,-26) scale(1,1)"><path fill="#FFFFFF" stroke="none" d="M 640 644 L 773 644 L 783 654 L 783 678 L 640 678 L 640 644"></path></g><g transform="translate(-6,-26) scale(1,1)"><path fill="none" stroke="#000000" d="M 640 644 L 773 644 L 783 654 L 783 678 L 640 678 L 640 644 L 640 644" stroke-miterlimit="10"></path></g><g transform="translate(-6,-26) scale(1,1)"><path fill="none" stroke="#000000" d="M 773 644 L 773 654 L 783 654 L 773 644" stroke-miterlimit="10"></path></g><g transform="translate(-6,-26) scale(1,1)"><g><path fill="none" stroke="none"></path><text fill="#000000" stroke="none" font-family="Arial" font-size="11px" font-style="normal" font-weight="normal" text-decoration="none" x="645" y="660">connects between Nodes</text></g></g><g transform="translate(-6,-26) scale(1,1)"><g><path fill="none" stroke="none"></path><text fill="#000000" stroke="none" font-family="Arial" font-size="11px" font-style="normal" font-weight="normal" text-decoration="none" x="645" y="673"></text></g></g><g transform="translate(-6,-26) scale(1,1)"><path fill="none" stroke="#000000" d="M 636.1538461538462 632 L 664.9230769230769 643" stroke-miterlimit="10" stroke-dasharray="3"></path></g><g transform="translate(-6,-26) scale(1,1)"><rect fill="#C0C0C0" stroke="none" x="187" y="415" width="154" height="30" opacity="0.2"></rect></g><g transform="translate(-6,-26) scale(1,1)"><rect fill="#C0C0C0" stroke="none" x="180" y="408" width="154" height="30"></rect></g><g transform="translate(-6,-26) scale(1,1)"><path fill="none" stroke="#000000" d="M 180 408 L 334 408 L 334 438 L 180 438 L 180 408 Z Z" stroke-miterlimit="10"></path></g><g transform="translate(-6,-26) scale(1,1)"><g><path fill="none" stroke="none"></path><text fill="#000000" stroke="none" font-family="Arial" font-size="11px" font-style="normal" font-weight="bold" text-decoration="none" x="195.5" y="425.5">UMLDirectedRelationship</text></g></g><g transform="translate(-6,-26) scale(1,1)"><rect fill="#C0C0C0" stroke="none" x="153" y="513" width="101" height="47" opacity="0.2"></rect></g><g transform="translate(-6,-26) scale(1,1)"><rect fill="#FFFFFF" stroke="none" x="146" y="506" width="101" height="47"></rect></g><g transform="translate(-6,-26) scale(1,1)"><path fill="none" stroke="#000000" d="M 146 506 L 247 506 L 247 553 L 146 553 L 146 506 Z Z" stroke-miterlimit="10"></path></g><g transform="translate(-6,-26) scale(1,1)"><path fill="none" stroke="#000000" d="M 146 529 L 247 529" stroke-miterlimit="10"></path></g><g transform="translate(-6,-26) scale(1,1)"><g><path fill="none" stroke="none"></path><text fill="#000000" stroke="none" font-family="Arial" font-size="11px" font-style="normal" font-weight="bold" text-decoration="none" x="154" y="523.5">UMLDependency</text></g></g><g transform="translate(-6,-26) scale(1,1)"><g><path fill="none" stroke="none"></path><text fill="#000000" stroke="none" font-family="Arial" font-size="11px" font-style="normal" font-weight="normal" text-decoration="none" x="151" y="544.5">+mapping: String</text></g></g><g transform="translate(-6,-26) scale(1,1)"><path fill="none" stroke="#000000" d="M 180 506 L 180 476 L 257 476 L 257 438" stroke-miterlimit="10"></path></g><g transform="translate(-6,-26) scale(1,1)"><path fill="#FFFFFF" stroke="none" d="M 265.419035512032 458.3253497152483 L 257 438 L 248.58096448796803 458.3253497152483"></path></g><g transform="translate(-6,-26) scale(1,1)"><path fill="none" stroke="#000000" d="M 265.419035512032 458.3253497152483 L 257 438 L 248.58096448796803 458.3253497152483 L 265.419035512032 458.3253497152483" stroke-miterlimit="10"></path></g><g transform="translate(-6,-26) scale(1,1)"><rect fill="#C0C0C0" stroke="none" x="285" y="513" width="112" height="47" opacity="0.2"></rect></g><g transform="translate(-6,-26) scale(1,1)"><rect fill="#FFFFFF" stroke="none" x="278" y="506" width="112" height="47"></rect></g><g transform="translate(-6,-26) scale(1,1)"><path fill="none" stroke="#000000" d="M 278 506 L 390 506 L 390 553 L 278 553 L 278 506 Z Z" stroke-miterlimit="10"></path></g><g transform="translate(-6,-26) scale(1,1)"><path fill="none" stroke="#000000" d="M 278 529 L 390 529" stroke-miterlimit="10"></path></g><g transform="translate(-6,-26) scale(1,1)"><g><path fill="none" stroke="none"></path><text fill="#000000" stroke="none" font-family="Arial" font-size="11px" font-style="normal" font-weight="bold" text-decoration="none" x="287.5" y="523.5">UMLGeneralization</text></g></g><g transform="translate(-6,-26) scale(1,1)"><g><path fill="none" stroke="none"></path><text fill="#000000" stroke="none" font-family="Arial" font-size="11px" font-style="normal" font-weight="normal" text-decoration="none" x="283" y="544.5">+discriminator: String</text></g></g><g transform="translate(-6,-26) scale(1,1)"><path fill="none" stroke="#000000" d="M 324 506 L 324 476 L 257 476 L 257 438" stroke-miterlimit="10"></path></g><g transform="translate(-6,-26) scale(1,1)"><path fill="#FFFFFF" stroke="none" d="M 265.419035512032 458.3253497152483 L 257 438 L 248.58096448796803 458.3253497152483"></path></g><g transform="translate(-6,-26) scale(1,1)"><path fill="none" stroke="#000000" d="M 265.419035512032 458.3253497152483 L 257 438 L 248.58096448796803 458.3253497152483 L 265.419035512032 458.3253497152483" stroke-miterlimit="10"></path></g><g transform="translate(-6,-26) scale(1,1)"><rect fill="#C0C0C0" stroke="none" x="87" y="699" width="92" height="43" opacity="0.2"></rect></g><g transform="translate(-6,-26) scale(1,1)"><rect fill="#FFFFFF" stroke="none" x="80" y="692" width="92" height="43"></rect></g><g transform="translate(-6,-26) scale(1,1)"><path fill="none" stroke="#000000" d="M 80 692 L 172 692 L 172 735 L 80 735 L 80 692 Z Z" stroke-miterlimit="10"></path></g><g transform="translate(-6,-26) scale(1,1)"><path fill="none" stroke="#000000" d="M 80 715 L 172 715" stroke-miterlimit="10"></path></g><g transform="translate(-6,-26) scale(1,1)"><g><path fill="none" stroke="none"></path><text fill="#000000" stroke="none" font-family="Arial" font-size="11px" font-style="normal" font-weight="bold" text-decoration="none" x="88" y="709.5">UMLRealization</text></g></g><g transform="translate(-6,-26) scale(1,1)"><path fill="none" stroke="#000000" d="M 132 692 L 132 651" stroke-miterlimit="10"></path></g><g transform="translate(-6,-26) scale(1,1)"><path fill="#FFFFFF" stroke="none" d="M 140.41903551203197 671.3253497152483 L 132 651 L 123.58096448796803 671.3253497152483"></path></g><g transform="translate(-6,-26) scale(1,1)"><path fill="none" stroke="#000000" d="M 140.41903551203197 671.3253497152483 L 132 651 L 123.58096448796803 671.3253497152483 L 140.41903551203197 671.3253497152483" stroke-miterlimit="10"></path></g><g transform="translate(-6,-26) scale(1,1)"><rect fill="#C0C0C0" stroke="none" x="515" y="481" width="134" height="74" opacity="0.2"></rect></g><g transform="translate(-6,-26) scale(1,1)"><rect fill="#FFFFFF" stroke="none" x="508" y="474" width="134" height="74"></rect></g><g transform="translate(-6,-26) scale(1,1)"><path fill="none" stroke="#000000" d="M 508 474 L 642 474 L 642 548 L 508 548 L 508 474 Z Z" stroke-miterlimit="10"></path></g><g transform="translate(-6,-26) scale(1,1)"><path fill="none" stroke="#000000" d="M 508 497 L 642 497" stroke-miterlimit="10"></path></g><g transform="translate(-6,-26) scale(1,1)"><g><path fill="none" stroke="none"></path><text fill="#000000" stroke="none" font-family="Arial" font-size="11px" font-style="normal" font-weight="bold" text-decoration="none" x="535.5" y="491.5">UMLAssociation</text></g></g><g transform="translate(-6,-26) scale(1,1)"><g><path fill="none" stroke="none"></path><text fill="#000000" stroke="none" font-family="Arial" font-size="11px" font-style="normal" font-weight="normal" text-decoration="none" x="513" y="512.5">+isDerived: Boolean</text></g></g><g transform="translate(-6,-26) scale(1,1)"><path fill="none" stroke="#000000" d="M 580 474 L 580 437" stroke-miterlimit="10"></path></g><g transform="translate(-6,-26) scale(1,1)"><path fill="#FFFFFF" stroke="none" d="M 588.419035512032 457.3253497152483 L 580 437 L 571.580964487968 457.3253497152483"></path></g><g transform="translate(-6,-26) scale(1,1)"><path fill="none" stroke="#000000" d="M 588.419035512032 457.3253497152483 L 580 437 L 571.580964487968 457.3253497152483 L 588.419035512032 457.3253497152483" stroke-miterlimit="10"></path></g><g transform="translate(-6,-26) scale(1,1)"><rect fill="#C0C0C0" stroke="none" x="435" y="731" width="156" height="43" opacity="0.2"></rect></g><g transform="translate(-6,-26) scale(1,1)"><rect fill="#FFFFFF" stroke="none" x="428" y="724" width="156" height="43"></rect></g><g transform="translate(-6,-26) scale(1,1)"><path fill="none" stroke="#000000" d="M 428 724 L 584 724 L 584 767 L 428 767 L 428 724 Z Z" stroke-miterlimit="10"></path></g><g transform="translate(-6,-26) scale(1,1)"><path fill="none" stroke="#000000" d="M 428 747 L 584 747" stroke-miterlimit="10"></path></g><g transform="translate(-6,-26) scale(1,1)"><g><path fill="none" stroke="none"></path><text fill="#000000" stroke="none" font-family="Arial" font-size="11px" font-style="normal" font-weight="bold" text-decoration="none" x="442.5" y="741.5">UMLAssociationClassLink</text></g></g><g transform="translate(-6,-26) scale(1,1)"><path fill="none" stroke="#000000" d="M 468 724 L 468 504 L 508 504" stroke-miterlimit="10"></path></g><g transform="translate(-6,-26) scale(1,1)"><path fill="none" stroke="#000000" d="M 497.83732514237585 508.209517756016 L 508 504 L 497.83732514237585 499.790482243984" stroke-miterlimit="10"></path></g><g transform="translate(-6,-26) scale(1,1)"><g><path fill="none" stroke="none"></path><text fill="#000000" stroke="none" font-family="Arial" font-size="11px" font-style="normal" font-weight="normal" text-decoration="none" x="415" y="493">+associationSide</text></g></g><g transform="translate(-6,-26) scale(1,1)"><g><path fill="none" stroke="none"></path><text fill="#000000" stroke="none" font-family="Arial" font-size="11px" font-style="normal" font-weight="normal" text-decoration="none" x="483" y="522">1</text></g></g><g transform="translate(-6,-26) scale(1,1)"><rect fill="#C0C0C0" stroke="none" x="667" y="731" width="84" height="40" opacity="0.2"></rect></g><g transform="translate(-6,-26) scale(1,1)"><rect fill="#C0C0C0" stroke="none" x="660" y="724" width="84" height="40"></rect></g><g transform="translate(-6,-26) scale(1,1)"><path fill="none" stroke="#000000" d="M 660 724 L 744 724 L 744 764 L 660 764 L 660 724 Z Z" stroke-miterlimit="10"></path></g><g transform="translate(-6,-26) scale(1,1)"><g><path fill="none" stroke="none"></path><text fill="#000000" stroke="none" font-family="Arial" font-size="11px" font-style="normal" font-weight="bold" text-decoration="none" x="676.5" y="741.5">UMLClass</text></g></g><g transform="translate(-6,-26) scale(1,1)"><path fill="none" stroke="#000000" d="M 584 748 L 660 748" stroke-miterlimit="10"></path></g><g transform="translate(-6,-26) scale(1,1)"><path fill="none" stroke="#000000" d="M 649.8373251423759 752.209517756016 L 660 748 L 649.8373251423758 743.790482243984" stroke-miterlimit="10"></path></g><g transform="translate(-6,-26) scale(1,1)"><g><path fill="none" stroke="none"></path><text fill="#000000" stroke="none" font-family="Arial" font-size="11px" font-style="normal" font-weight="normal" text-decoration="none" x="604" y="740">+classSide</text></g></g><g transform="translate(-6,-26) scale(1,1)"><g><path fill="none" stroke="none"></path><text fill="#000000" stroke="none" font-family="Arial" font-size="11px" font-style="normal" font-weight="normal" text-decoration="none" x="643" y="767">1</text></g></g><g transform="translate(-6,-26) scale(1,1)"><rect fill="#C0C0C0" stroke="none" x="499" y="675" width="112" height="29" opacity="0.2"></rect></g><g transform="translate(-6,-26) scale(1,1)"><rect fill="#C0C0C0" stroke="none" x="492" y="668" width="112" height="29"></rect></g><g transform="translate(-6,-26) scale(1,1)"><path fill="none" stroke="#000000" d="M 492 668 L 604 668 L 604 697 L 492 697 L 492 668 Z Z" stroke-miterlimit="10"></path></g><g transform="translate(-6,-26) scale(1,1)"><g><path fill="none" stroke="none"></path><text fill="#000000" stroke="none" font-family="Arial" font-size="11px" font-style="normal" font-weight="bold" text-decoration="none" x="502.5" y="685.5">UMLModelElement</text></g></g><g transform="translate(-6,-26) scale(1,1)"><path fill="none" stroke="#000000" d="M 544 724 L 544 697" stroke-miterlimit="10"></path></g><g transform="translate(-6,-26) scale(1,1)"><path fill="#FFFFFF" stroke="none" d="M 552.419035512032 717.3253497152483 L 544 697 L 535.580964487968 717.3253497152483"></path></g><g transform="translate(-6,-26) scale(1,1)"><path fill="none" stroke="#000000" d="M 552.419035512032 717.3253497152483 L 544 697 L 535.580964487968 717.3253497152483 L 552.419035512032 717.3253497152483" stroke-miterlimit="10"></path></g><g transform="translate(-6,-26) scale(1,1)"><rect fill="#C0C0C0" stroke="none" x="735" y="599" width="92" height="32" opacity="0.2"></rect></g><g transform="translate(-6,-26) scale(1,1)"><rect fill="#C0C0C0" stroke="none" x="728" y="592" width="92" height="32"></rect></g><g transform="translate(-6,-26) scale(1,1)"><path fill="none" stroke="#000000" d="M 728 592 L 820 592 L 820 624 L 728 624 L 728 592 Z Z" stroke-miterlimit="10"></path></g><g transform="translate(-6,-26) scale(1,1)"><g><path fill="none" stroke="none"></path><text fill="#000000" stroke="none" font-family="Arial" font-size="11px" font-style="normal" font-weight="bold" text-decoration="none" x="742.5" y="609.5">UMLAttribute</text></g></g><g transform="translate(-6,-26) scale(1,1)"><path fill="none" stroke="#000000" d="M 774 544 L 774 592" stroke-miterlimit="10"></path></g><g transform="translate(-6,-26) scale(1,1)"><path fill="#000000" stroke="none" d="M 778.209517756016 554.1626748576241 L 774 544 L 769.790482243984 554.1626748576241 L 774 566"></path></g><g transform="translate(-6,-26) scale(1,1)"><path fill="none" stroke="#000000" d="M 778.209517756016 554.1626748576241 L 774 544 L 769.790482243984 554.1626748576241 L 774 566 L 778.209517756016 554.1626748576241" stroke-miterlimit="10"></path></g><g transform="translate(-6,-26) scale(1,1)"><g><path fill="none" stroke="none"></path><text fill="#000000" stroke="none" font-family="Arial" font-size="11px" font-style="normal" font-weight="normal" text-decoration="none" x="777" y="588">+qualifiers</text></g></g><g transform="translate(-6,-26) scale(1,1)"><g><path fill="none" stroke="none"></path><text fill="#000000" stroke="none" font-family="Arial" font-size="11px" font-style="normal" font-weight="normal" text-decoration="none" x="748" y="588">0..*</text></g></g><g transform="translate(-6,-26) scale(1,1)"><rect fill="#C0C0C0" stroke="none" x="507" y="415" width="161" height="29" opacity="0.2"></rect></g><g transform="translate(-6,-26) scale(1,1)"><rect fill="#C0C0C0" stroke="none" x="500" y="408" width="161" height="29"></rect></g><g transform="translate(-6,-26) scale(1,1)"><path fill="none" stroke="#000000" d="M 500 408 L 661 408 L 661 437 L 500 437 L 500 408 Z Z" stroke-miterlimit="10"></path></g><g transform="translate(-6,-26) scale(1,1)"><g><path fill="none" stroke="none"></path><text fill="#000000" stroke="none" font-family="Arial" font-size="11px" font-style="normal" font-weight="bold" text-decoration="none" x="513" y="425.5">UMLUndirectedRelationship</text></g></g><g transform="translate(-6,-26) scale(1,1)"><rect fill="#C0C0C0" stroke="none" x="717" y="415" width="128" height="31" opacity="0.2"></rect></g><g transform="translate(-6,-26) scale(1,1)"><rect fill="#C0C0C0" stroke="none" x="710" y="408" width="128" height="31"></rect></g><g transform="translate(-6,-26) scale(1,1)"><path fill="none" stroke="#000000" d="M 710 408 L 838 408 L 838 439 L 710 439 L 710 408 Z Z" stroke-miterlimit="10"></path></g><g transform="translate(-6,-26) scale(1,1)"><g><path fill="none" stroke="none"></path><text fill="#000000" stroke="none" font-family="Arial" font-size="11px" font-style="normal" font-weight="bold" text-decoration="none" x="723.5" y="425.5">UMLRelationshipEnd</text></g></g><g transform="translate(-6,-26) scale(1,1)"><rect fill="#C0C0C0" stroke="none" x="721" y="481" width="118" height="70" opacity="0.2"></rect></g><g transform="translate(-6,-26) scale(1,1)"><rect fill="#FFFFFF" stroke="none" x="714" y="474" width="118" height="70"></rect></g><g transform="translate(-6,-26) scale(1,1)"><path fill="none" stroke="#000000" d="M 714 474 L 832 474 L 832 544 L 714 544 L 714 474 Z Z" stroke-miterlimit="10"></path></g><g transform="translate(-6,-26) scale(1,1)"><path fill="none" stroke="#000000" d="M 714 497 L 832 497" stroke-miterlimit="10"></path></g><g transform="translate(-6,-26) scale(1,1)"><g><path fill="none" stroke="none"></path><text fill="#000000" stroke="none" font-family="Arial" font-size="11px" font-style="normal" font-weight="bold" text-decoration="none" x="724" y="491.5">UMLAssociationEnd</text></g></g><g transform="translate(-6,-26) scale(1,1)"><path fill="none" stroke="#000000" d="M 758 474 L 758 439" stroke-miterlimit="10"></path></g><g transform="translate(-6,-26) scale(1,1)"><path fill="#FFFFFF" stroke="none" d="M 766.419035512032 459.3253497152483 L 758 439 L 749.580964487968 459.3253497152483"></path></g><g transform="translate(-6,-26) scale(1,1)"><path fill="none" stroke="#000000" d="M 766.419035512032 459.3253497152483 L 758 439 L 749.580964487968 459.3253497152483 L 766.419035512032 459.3253497152483" stroke-miterlimit="10"></path></g><g transform="translate(-6,-26) scale(1,1)"><path fill="none" stroke="#000000" d="M 714 488 L 642 488" stroke-miterlimit="10"></path></g><g transform="translate(-6,-26) scale(1,1)"><path fill="#000000" stroke="none" d="M 652.1626748576241 483.790482243984 L 642 488 L 652.1626748576241 492.209517756016 L 664 488"></path></g><g transform="translate(-6,-26) scale(1,1)"><path fill="none" stroke="#000000" d="M 652.1626748576241 483.790482243984 L 642 488 L 652.1626748576241 492.209517756016 L 664 488 L 652.1626748576241 483.790482243984" stroke-miterlimit="10"></path></g><g transform="translate(-6,-26) scale(1,1)"><g><path fill="none" stroke="none"></path><text fill="#000000" stroke="none" font-family="Arial" font-size="11px" font-style="normal" font-weight="normal" text-decoration="none" x="680" y="504">+end2</text></g></g><g transform="translate(-6,-26) scale(1,1)"><g><path fill="none" stroke="none"></path><text fill="#000000" stroke="none" font-family="Arial" font-size="11px" font-style="normal" font-weight="normal" text-decoration="none" x="703" y="483">1</text></g></g><g transform="translate(-6,-26) scale(1,1)"><path fill="none" stroke="#000000" d="M 714 528 L 642 528" stroke-miterlimit="10"></path></g><g transform="translate(-6,-26) scale(1,1)"><path fill="#000000" stroke="none" d="M 652.1626748576241 523.790482243984 L 642 528 L 652.1626748576241 532.209517756016 L 664 528"></path></g><g transform="translate(-6,-26) scale(1,1)"><path fill="none" stroke="#000000" d="M 652.1626748576241 523.790482243984 L 642 528 L 652.1626748576241 532.209517756016 L 664 528 L 652.1626748576241 523.790482243984" stroke-miterlimit="10"></path></g><g transform="translate(-6,-26) scale(1,1)"><g><path fill="none" stroke="none"></path><text fill="#000000" stroke="none" font-family="Arial" font-size="11px" font-style="normal" font-weight="normal" text-decoration="none" x="680" y="544">+end1</text></g></g><g transform="translate(-6,-26) scale(1,1)"><g><path fill="none" stroke="none"></path><text fill="#000000" stroke="none" font-family="Arial" font-size="11px" font-style="normal" font-weight="normal" text-decoration="none" x="703" y="523">1</text></g></g><g transform="translate(-6,-26) scale(1,1)"><rect fill="#C0C0C0" stroke="none" x="75" y="235" width="104" height="48" opacity="0.2"></rect></g><g transform="translate(-6,-26) scale(1,1)"><rect fill="#FFFFFF" stroke="none" x="68" y="228" width="104" height="48"></rect></g><g transform="translate(-6,-26) scale(1,1)"><path fill="none" stroke="#000000" d="M 68 228 L 172 228 L 172 276 L 68 276 L 68 228 Z Z" stroke-miterlimit="10"></path></g><g transform="translate(-6,-26) scale(1,1)"><path fill="none" stroke="#000000" d="M 68 251 L 172 251" stroke-miterlimit="10"></path></g><g transform="translate(-6,-26) scale(1,1)"><g><path fill="none" stroke="none"></path><text fill="#000000" stroke="none" font-family="Arial" font-size="11px" font-style="normal" font-weight="bold" text-decoration="none" x="94" y="245.5">UMLSignal</text></g></g><g transform="translate(-6,-26) scale(1,1)"><path fill="none" stroke="#000000" d="M 147 228 L 147 116 L 192 116 L 192 76" stroke-miterlimit="10"></path></g><g transform="translate(-6,-26) scale(1,1)"><path fill="#FFFFFF" stroke="none" d="M 200.41903551203197 96.32534971524831 L 192 76 L 183.58096448796803 96.32534971524831"></path></g><g transform="translate(-6,-26) scale(1,1)"><path fill="none" stroke="#000000" d="M 200.41903551203197 96.32534971524831 L 192 76 L 183.58096448796803 96.32534971524831 L 200.41903551203197 96.32534971524831" stroke-miterlimit="10"></path></g><g transform="translate(-6,-26) scale(1,1)"><rect fill="#C0C0C0" stroke="none" x="175" y="163" width="104" height="52" opacity="0.2"></rect></g><g transform="translate(-6,-26) scale(1,1)"><rect fill="#FFFFFF" stroke="none" x="168" y="156" width="104" height="52"></rect></g><g transform="translate(-6,-26) scale(1,1)"><path fill="none" stroke="#000000" d="M 168 156 L 272 156 L 272 208 L 168 208 L 168 156 Z Z" stroke-miterlimit="10"></path></g><g transform="translate(-6,-26) scale(1,1)"><path fill="none" stroke="#000000" d="M 168 179 L 272 179" stroke-miterlimit="10"></path></g><g transform="translate(-6,-26) scale(1,1)"><g><path fill="none" stroke="none"></path><text fill="#000000" stroke="none" font-family="Arial" font-size="11px" font-style="normal" font-weight="bold" text-decoration="none" x="184.5" y="173.5">UMLDataType</text></g></g><g transform="translate(-6,-26) scale(1,1)"><path fill="none" stroke="#000000" d="M 220 156 L 220 116 L 192 116 L 192 76" stroke-miterlimit="10"></path></g><g transform="translate(-6,-26) scale(1,1)"><path fill="#FFFFFF" stroke="none" d="M 200.41903551203197 96.32534971524831 L 192 76 L 183.58096448796803 96.32534971524831"></path></g><g transform="translate(-6,-26) scale(1,1)"><path fill="none" stroke="#000000" d="M 200.41903551203197 96.32534971524831 L 192 76 L 183.58096448796803 96.32534971524831 L 200.41903551203197 96.32534971524831" stroke-miterlimit="10"></path></g><g transform="translate(-6,-26) scale(1,1)"><rect fill="#C0C0C0" stroke="none" x="103" y="307" width="109" height="52" opacity="0.2"></rect></g><g transform="translate(-6,-26) scale(1,1)"><rect fill="#FFFFFF" stroke="none" x="96" y="300" width="109" height="52"></rect></g><g transform="translate(-6,-26) scale(1,1)"><path fill="none" stroke="#000000" d="M 96 300 L 205 300 L 205 352 L 96 352 L 96 300 Z Z" stroke-miterlimit="10"></path></g><g transform="translate(-6,-26) scale(1,1)"><path fill="none" stroke="#000000" d="M 96 323 L 205 323" stroke-miterlimit="10"></path></g><g transform="translate(-6,-26) scale(1,1)"><g><path fill="none" stroke="none"></path><text fill="#000000" stroke="none" font-family="Arial" font-size="11px" font-style="normal" font-weight="bold" text-decoration="none" x="106" y="317.5">UMLPrimitiveType</text></g></g><g transform="translate(-6,-26) scale(1,1)"><rect fill="#C0C0C0" stroke="none" x="231" y="307" width="103" height="52" opacity="0.2"></rect></g><g transform="translate(-6,-26) scale(1,1)"><rect fill="#FFFFFF" stroke="none" x="224" y="300" width="103" height="52"></rect></g><g transform="translate(-6,-26) scale(1,1)"><path fill="none" stroke="#000000" d="M 224 300 L 327 300 L 327 352 L 224 352 L 224 300 Z Z" stroke-miterlimit="10"></path></g><g transform="translate(-6,-26) scale(1,1)"><path fill="none" stroke="#000000" d="M 224 323 L 327 323" stroke-miterlimit="10"></path></g><g transform="translate(-6,-26) scale(1,1)"><g><path fill="none" stroke="none"></path><text fill="#000000" stroke="none" font-family="Arial" font-size="11px" font-style="normal" font-weight="bold" text-decoration="none" x="233.5" y="317.5">UMLEnumeration</text></g></g><g transform="translate(-6,-26) scale(1,1)"><path fill="none" stroke="#000000" d="M 192 300 L 192 252 L 216 252 L 216 208" stroke-miterlimit="10"></path></g><g transform="translate(-6,-26) scale(1,1)"><path fill="#FFFFFF" stroke="none" d="M 224.41903551203197 228.3253497152483 L 216 208 L 207.58096448796803 228.3253497152483"></path></g><g transform="translate(-6,-26) scale(1,1)"><path fill="none" stroke="#000000" d="M 224.41903551203197 228.3253497152483 L 216 208 L 207.58096448796803 228.3253497152483 L 224.41903551203197 228.3253497152483" stroke-miterlimit="10"></path></g><g transform="translate(-6,-26) scale(1,1)"><path fill="none" stroke="#000000" d="M 240 300 L 240 252 L 216 252 L 216 208" stroke-miterlimit="10"></path></g><g transform="translate(-6,-26) scale(1,1)"><path fill="#FFFFFF" stroke="none" d="M 224.41903551203197 228.3253497152483 L 216 208 L 207.58096448796803 228.3253497152483"></path></g><g transform="translate(-6,-26) scale(1,1)"><path fill="none" stroke="#000000" d="M 224.41903551203197 228.3253497152483 L 216 208 L 207.58096448796803 228.3253497152483 L 224.41903551203197 228.3253497152483" stroke-miterlimit="10"></path></g><g transform="translate(-6,-26) scale(1,1)"><rect fill="#C0C0C0" stroke="none" x="407" y="307" width="138" height="52" opacity="0.2"></rect></g><g transform="translate(-6,-26) scale(1,1)"><rect fill="#FFFFFF" stroke="none" x="400" y="300" width="138" height="52"></rect></g><g transform="translate(-6,-26) scale(1,1)"><path fill="none" stroke="#000000" d="M 400 300 L 538 300 L 538 352 L 400 352 L 400 300 Z Z" stroke-miterlimit="10"></path></g><g transform="translate(-6,-26) scale(1,1)"><path fill="none" stroke="#000000" d="M 400 323 L 538 323" stroke-miterlimit="10"></path></g><g transform="translate(-6,-26) scale(1,1)"><g><path fill="none" stroke="none"></path><text fill="#000000" stroke="none" font-family="Arial" font-size="11px" font-style="normal" font-weight="bold" text-decoration="none" x="412.5" y="317.5">UMLEnumerationLiteral</text></g></g><g transform="translate(-6,-26) scale(1,1)"><path fill="none" stroke="#000000" d="M 400 326 L 327 326" stroke-miterlimit="10"></path></g><g transform="translate(-6,-26) scale(1,1)"><path fill="#000000" stroke="none" d="M 337.16267485762415 321.790482243984 L 327 326 L 337.16267485762415 330.209517756016 L 349 326"></path></g><g transform="translate(-6,-26) scale(1,1)"><path fill="none" stroke="#000000" d="M 337.16267485762415 321.790482243984 L 327 326 L 337.16267485762415 330.209517756016 L 349 326 L 337.16267485762415 321.790482243984" stroke-miterlimit="10"></path></g><g transform="translate(-6,-26) scale(1,1)"><g><path fill="none" stroke="none"></path><text fill="#000000" stroke="none" font-family="Arial" font-size="11px" font-style="normal" font-weight="normal" text-decoration="none" x="357" y="344">+literals</text></g></g><g transform="translate(-6,-26) scale(1,1)"><g><path fill="none" stroke="none"></path><text fill="#000000" stroke="none" font-family="Arial" font-size="11px" font-style="normal" font-weight="normal" text-decoration="none" x="384" y="319">*</text></g></g><g transform="translate(-6,-26) scale(1,1)"><path fill="none" stroke="#000000" d="M 476 300 L 476 269" stroke-miterlimit="10"></path></g><g transform="translate(-6,-26) scale(1,1)"><path fill="#FFFFFF" stroke="none" d="M 484.419035512032 289.3253497152483 L 476 269 L 467.580964487968 289.3253497152483"></path></g><g transform="translate(-6,-26) scale(1,1)"><path fill="none" stroke="#000000" d="M 484.419035512032 289.3253497152483 L 476 269 L 467.580964487968 289.3253497152483 L 484.419035512032 289.3253497152483" stroke-miterlimit="10"></path></g><g transform="translate(-6,-26) scale(1,1)"><rect fill="#C0C0C0" stroke="none" x="199" y="615" width="99" height="43" opacity="0.2"></rect></g><g transform="translate(-6,-26) scale(1,1)"><rect fill="#FFFFFF" stroke="none" x="192" y="608" width="99" height="43"></rect></g><g transform="translate(-6,-26) scale(1,1)"><path fill="none" stroke="#000000" d="M 192 608 L 291 608 L 291 651 L 192 651 L 192 608 Z Z" stroke-miterlimit="10"></path></g><g transform="translate(-6,-26) scale(1,1)"><path fill="none" stroke="#000000" d="M 192 631 L 291 631" stroke-miterlimit="10"></path></g><g transform="translate(-6,-26) scale(1,1)"><g><path fill="none" stroke="none"></path><text fill="#000000" stroke="none" font-family="Arial" font-size="11px" font-style="normal" font-weight="bold" text-decoration="none" x="201" y="625.5">UMLDeployment</text></g></g><g transform="translate(-6,-26) scale(1,1)"><path fill="none" stroke="#000000" d="M 232 608 L 232 588 L 200 588 L 200 553" stroke-miterlimit="10"></path></g><g transform="translate(-6,-26) scale(1,1)"><path fill="#FFFFFF" stroke="none" d="M 208.41903551203197 573.3253497152483 L 200 553 L 191.58096448796803 573.3253497152483"></path></g><g transform="translate(-6,-26) scale(1,1)"><path fill="none" stroke="#000000" d="M 208.41903551203197 573.3253497152483 L 200 553 L 191.58096448796803 573.3253497152483 L 208.41903551203197 573.3253497152483" stroke-miterlimit="10"></path></g><g transform="translate(-6,-26) scale(1,1)"><rect fill="#C0C0C0" stroke="none" x="31" y="811" width="141" height="43" opacity="0.2"></rect></g><g transform="translate(-6,-26) scale(1,1)"><rect fill="#FFFFFF" stroke="none" x="24" y="804" width="141" height="43"></rect></g><g transform="translate(-6,-26) scale(1,1)"><path fill="none" stroke="#000000" d="M 24 804 L 165 804 L 165 847 L 24 847 L 24 804 Z Z" stroke-miterlimit="10"></path></g><g transform="translate(-6,-26) scale(1,1)"><path fill="none" stroke="#000000" d="M 24 827 L 165 827" stroke-miterlimit="10"></path></g><g transform="translate(-6,-26) scale(1,1)"><g><path fill="none" stroke="none"></path><text fill="#000000" stroke="none" font-family="Arial" font-size="11px" font-style="normal" font-weight="bold" text-decoration="none" x="35" y="821.5">UMLInterfaceRealization</text></g></g><g transform="translate(-6,-26) scale(1,1)"><rect fill="#C0C0C0" stroke="none" x="187" y="811" width="157" height="43" opacity="0.2"></rect></g><g transform="translate(-6,-26) scale(1,1)"><rect fill="#FFFFFF" stroke="none" x="180" y="804" width="157" height="43"></rect></g><g transform="translate(-6,-26) scale(1,1)"><path fill="none" stroke="#000000" d="M 180 804 L 337 804 L 337 847 L 180 847 L 180 804 Z Z" stroke-miterlimit="10"></path></g><g transform="translate(-6,-26) scale(1,1)"><path fill="none" stroke="#000000" d="M 180 827 L 337 827" stroke-miterlimit="10"></path></g><g transform="translate(-6,-26) scale(1,1)"><g><path fill="none" stroke="none"></path><text fill="#000000" stroke="none" font-family="Arial" font-size="11px" font-style="normal" font-weight="bold" text-decoration="none" x="192.5" y="821.5">UMLComponentRealization</text></g></g><g transform="translate(-6,-26) scale(1,1)"><path fill="none" stroke="#000000" d="M 76 804 L 76 776 L 128 776 L 128 735" stroke-miterlimit="10"></path></g><g transform="translate(-6,-26) scale(1,1)"><path fill="#FFFFFF" stroke="none" d="M 136.41903551203197 755.3253497152483 L 128 735 L 119.58096448796803 755.3253497152483"></path></g><g transform="translate(-6,-26) scale(1,1)"><path fill="none" stroke="#000000" d="M 136.41903551203197 755.3253497152483 L 128 735 L 119.58096448796803 755.3253497152483 L 136.41903551203197 755.3253497152483" stroke-miterlimit="10"></path></g><g transform="translate(-6,-26) scale(1,1)"><path fill="none" stroke="#000000" d="M 244 804 L 244 776 L 128 776 L 128 735" stroke-miterlimit="10"></path></g><g transform="translate(-6,-26) scale(1,1)"><path fill="#FFFFFF" stroke="none" d="M 136.41903551203197 755.3253497152483 L 128 735 L 119.58096448796803 755.3253497152483"></path></g><g transform="translate(-6,-26) scale(1,1)"><path fill="none" stroke="#000000" d="M 136.41903551203197 755.3253497152483 L 128 735 L 119.58096448796803 755.3253497152483 L 136.41903551203197 755.3253497152483" stroke-miterlimit="10"></path></g><g transform="translate(-6,-26) scale(1,1)"><rect fill="#C0C0C0" stroke="none" x="87" y="615" width="97" height="43" opacity="0.2"></rect></g><g transform="translate(-6,-26) scale(1,1)"><rect fill="#FFFFFF" stroke="none" x="80" y="608" width="97" height="43"></rect></g><g transform="translate(-6,-26) scale(1,1)"><path fill="none" stroke="#000000" d="M 80 608 L 177 608 L 177 651 L 80 651 L 80 608 Z Z" stroke-miterlimit="10"></path></g><g transform="translate(-6,-26) scale(1,1)"><path fill="none" stroke="#000000" d="M 80 631 L 177 631" stroke-miterlimit="10"></path></g><g transform="translate(-6,-26) scale(1,1)"><g><path fill="none" stroke="none"></path><text fill="#000000" stroke="none" font-family="Arial" font-size="11px" font-style="normal" font-weight="bold" text-decoration="none" x="89.5" y="625.5">UMLAbstraction</text></g></g><g transform="translate(-6,-26) scale(1,1)"><path fill="none" stroke="#000000" d="M 132 608 L 132 588 L 200 588 L 200 553" stroke-miterlimit="10"></path></g><g transform="translate(-6,-26) scale(1,1)"><path fill="#FFFFFF" stroke="none" d="M 208.41903551203197 573.3253497152483 L 200 553 L 191.58096448796803 573.3253497152483"></path></g><g transform="translate(-6,-26) scale(1,1)"><path fill="none" stroke="#000000" d="M 208.41903551203197 573.3253497152483 L 200 553 L 191.58096448796803 573.3253497152483 L 208.41903551203197 573.3253497152483" stroke-miterlimit="10"></path></g></g></svg>