<svg version="1.1" xmlns="http://www.w3.org/2000/svg" xmlns:xlink="http://www.w3.org/1999/xlink" width="766" height="360"><defs></defs><g><g transform="translate(-35,-14) scale(1,1)"><rect fill="#C0C0C0" stroke="none" x="479" y="179" width="120.15576171875" height="104" opacity="0.2"></rect></g><g transform="translate(-35,-14) scale(1,1)"><rect fill="#FFFFFF" stroke="none" x="472" y="172" width="120.15576171875" height="104"></rect></g><g transform="translate(-35,-14) scale(1,1)"><path fill="none" stroke="#000000" d="M 472 172 L 592.15576171875 172 L 592.15576171875 276 L 472 276 L 472 172 Z Z" stroke-miterlimit="10"></path></g><g transform="translate(-35,-14) scale(1,1)"><path fill="none" stroke="#000000" d="M 472 195 L 592.15576171875 195" stroke-miterlimit="10"></path></g><g transform="translate(-35,-14) scale(1,1)"><g><path fill="none" stroke="none"></path><text fill="#000000" stroke="none" font-family="Arial" font-size="11px" font-style="normal" font-weight="bold" text-decoration="none" x="506.577880859375" y="189.5">UMLEvent</text></g></g><g transform="translate(-35,-14) scale(1,1)"><g><path fill="none" stroke="none"></path><text fill="#000000" stroke="none" font-family="Arial" font-size="11px" font-style="normal" font-weight="normal" text-decoration="none" x="477" y="210.5">+kind: UMLEventKind</text></g></g><g transform="translate(-35,-14) scale(1,1)"><g><path fill="none" stroke="none"></path><text fill="#000000" stroke="none" font-family="Arial" font-size="11px" font-style="normal" font-weight="normal" text-decoration="none" x="477" y="223.5">+value: String</text></g></g><g transform="translate(-35,-14) scale(1,1)"><g><path fill="none" stroke="none"></path><text fill="#000000" stroke="none" font-family="Arial" font-size="11px" font-style="normal" font-weight="normal" text-decoration="none" x="477" y="236.5">+expression: String</text></g></g><g transform="translate(-35,-14) scale(1,1)"><rect fill="#C0C0C0" stroke="none" x="241" y="39" width="120" height="34" opacity="0.2"></rect></g><g transform="translate(-35,-14) scale(1,1)"><rect fill="#C0C0C0" stroke="none" x="234" y="32" width="120" height="34"></rect></g><g transform="translate(-35,-14) scale(1,1)"><path fill="none" stroke="#000000" d="M 234 32 L 354 32 L 354 66 L 234 66 L 234 32 Z Z" stroke-miterlimit="10"></path></g><g transform="translate(-35,-14) scale(1,1)"><g><path fill="none" stroke="none"></path><text fill="#000000" stroke="none" font-family="Arial" font-size="11px" font-style="normal" font-weight="bold" text-decoration="none" x="248.5" y="49.5">UMLModelElement</text></g></g><g transform="translate(-35,-14) scale(1,1)"><path fill="none" stroke="#000000" d="M 508 172 L 508 124 L 292 124 L 292 66" stroke-miterlimit="10"></path></g><g transform="translate(-35,-14) scale(1,1)"><path fill="#FFFFFF" stroke="none" d="M 300.419035512032 86.32534971524831 L 292 66 L 283.580964487968 86.32534971524831"></path></g><g transform="translate(-35,-14) scale(1,1)"><path fill="none" stroke="#000000" d="M 300.419035512032 86.32534971524831 L 292 66 L 283.580964487968 86.32534971524831 L 300.419035512032 86.32534971524831" stroke-miterlimit="10"></path></g><g transform="translate(-35,-14) scale(1,1)"><rect fill="#C0C0C0" stroke="none" x="539" y="31" width="109" height="117" opacity="0.2"></rect></g><g transform="translate(-35,-14) scale(1,1)"><rect fill="#80FFFF" stroke="none" x="532" y="24" width="109" height="117"></rect></g><g transform="translate(-35,-14) scale(1,1)"><path fill="none" stroke="#000000" d="M 532 24 L 641 24 L 641 141 L 532 141 L 532 24 Z Z" stroke-miterlimit="10"></path></g><g transform="translate(-35,-14) scale(1,1)"><path fill="none" stroke="#000000" d="M 532 58 L 641 58" stroke-miterlimit="10"></path></g><g transform="translate(-35,-14) scale(1,1)"><g><path fill="none" stroke="none"></path><text fill="#000000" stroke="none" font-family="Arial" font-size="11px" font-style="normal" font-weight="normal" text-decoration="none" x="550.5" y="39.5">«enumeration»</text></g></g><g transform="translate(-35,-14) scale(1,1)"><g><path fill="none" stroke="none"></path><text fill="#000000" stroke="none" font-family="Arial" font-size="11px" font-style="normal" font-weight="bold" text-decoration="none" x="550.5" y="52.5">UMLEventKind</text></g></g><g transform="translate(-35,-14) scale(1,1)"><g><path fill="none" stroke="none"></path><text fill="#000000" stroke="none" font-family="Arial" font-size="11px" font-style="normal" font-weight="normal" text-decoration="none" x="537" y="73.5">signal</text></g></g><g transform="translate(-35,-14) scale(1,1)"><g><path fill="none" stroke="none"></path><text fill="#000000" stroke="none" font-family="Arial" font-size="11px" font-style="normal" font-weight="normal" text-decoration="none" x="537" y="86.5">call</text></g></g><g transform="translate(-35,-14) scale(1,1)"><g><path fill="none" stroke="none"></path><text fill="#000000" stroke="none" font-family="Arial" font-size="11px" font-style="normal" font-weight="normal" text-decoration="none" x="537" y="99.5">change</text></g></g><g transform="translate(-35,-14) scale(1,1)"><g><path fill="none" stroke="none"></path><text fill="#000000" stroke="none" font-family="Arial" font-size="11px" font-style="normal" font-weight="normal" text-decoration="none" x="537" y="112.5">time</text></g></g><g transform="translate(-35,-14) scale(1,1)"><g><path fill="none" stroke="none"></path><text fill="#000000" stroke="none" font-family="Arial" font-size="11px" font-style="normal" font-weight="normal" text-decoration="none" x="537" y="125.5">anyReceive</text></g></g><g transform="translate(-35,-14) scale(1,1)"><rect fill="#C0C0C0" stroke="none" x="95" y="179" width="159.9189453125" height="96" opacity="0.2"></rect></g><g transform="translate(-35,-14) scale(1,1)"><rect fill="#FFFFFF" stroke="none" x="88" y="172" width="159.9189453125" height="96"></rect></g><g transform="translate(-35,-14) scale(1,1)"><path fill="none" stroke="#000000" d="M 88 172 L 247.9189453125 172 L 247.9189453125 268 L 88 268 L 88 172 Z Z" stroke-miterlimit="10"></path></g><g transform="translate(-35,-14) scale(1,1)"><path fill="none" stroke="#000000" d="M 88 195 L 247.9189453125 195" stroke-miterlimit="10"></path></g><g transform="translate(-35,-14) scale(1,1)"><g><path fill="none" stroke="none"></path><text fill="#000000" stroke="none" font-family="Arial" font-size="11px" font-style="normal" font-weight="bold" text-decoration="none" x="134.95947265625" y="189.5">UMLBehavior</text></g></g><g transform="translate(-35,-14) scale(1,1)"><g><path fill="none" stroke="none"></path><text fill="#000000" stroke="none" font-family="Arial" font-size="11px" font-style="normal" font-weight="normal" text-decoration="none" x="93" y="210.5">+isReentrant: Boolean = True</text></g></g><g transform="translate(-35,-14) scale(1,1)"><path fill="none" stroke="#000000" d="M 196 172 L 196 124 L 292 124 L 292 66" stroke-miterlimit="10"></path></g><g transform="translate(-35,-14) scale(1,1)"><path fill="#FFFFFF" stroke="none" d="M 300.419035512032 86.32534971524831 L 292 66 L 283.580964487968 86.32534971524831"></path></g><g transform="translate(-35,-14) scale(1,1)"><path fill="none" stroke="#000000" d="M 300.419035512032 86.32534971524831 L 292 66 L 283.580964487968 86.32534971524831 L 300.419035512032 86.32534971524831" stroke-miterlimit="10"></path></g><g transform="translate(-35,-14) scale(1,1)"><rect fill="#C0C0C0" stroke="none" x="697" y="179" width="101" height="32" opacity="0.2"></rect></g><g transform="translate(-35,-14) scale(1,1)"><rect fill="#C0C0C0" stroke="none" x="690" y="172" width="101" height="32"></rect></g><g transform="translate(-35,-14) scale(1,1)"><path fill="none" stroke="#000000" d="M 690 172 L 791 172 L 791 204 L 690 204 L 690 172 Z Z" stroke-miterlimit="10"></path></g><g transform="translate(-35,-14) scale(1,1)"><g><path fill="none" stroke="none"></path><text fill="#000000" stroke="none" font-family="Arial" font-size="11px" font-style="normal" font-weight="bold" text-decoration="none" x="705" y="189.5">UMLOperation</text></g></g><g transform="translate(-35,-14) scale(1,1)"><rect fill="#C0C0C0" stroke="none" x="697" y="247" width="96" height="29" opacity="0.2"></rect></g><g transform="translate(-35,-14) scale(1,1)"><rect fill="#C0C0C0" stroke="none" x="690" y="240" width="96" height="29"></rect></g><g transform="translate(-35,-14) scale(1,1)"><path fill="none" stroke="#000000" d="M 690 240 L 786 240 L 786 269 L 690 269 L 690 240 Z Z" stroke-miterlimit="10"></path></g><g transform="translate(-35,-14) scale(1,1)"><g><path fill="none" stroke="none"></path><text fill="#000000" stroke="none" font-family="Arial" font-size="11px" font-style="normal" font-weight="bold" text-decoration="none" x="712" y="257.5">UMLSignal</text></g></g><g transform="translate(-35,-14) scale(1,1)"><path fill="none" stroke="#000000" d="M 592.15576171875 192 L 690 192" stroke-miterlimit="10"></path></g><g transform="translate(-35,-14) scale(1,1)"><path fill="none" stroke="#000000" d="M 679.8373251423759 196.209517756016 L 690 192 L 679.8373251423758 187.790482243984" stroke-miterlimit="10"></path></g><g transform="translate(-35,-14) scale(1,1)"><g><path fill="none" stroke="none"></path><text fill="#000000" stroke="none" font-family="Arial" font-size="11px" font-style="normal" font-weight="normal" text-decoration="none" x="597" y="183">+targetOperation</text></g></g><g transform="translate(-35,-14) scale(1,1)"><g><path fill="none" stroke="none"></path><text fill="#000000" stroke="none" font-family="Arial" font-size="11px" font-style="normal" font-weight="normal" text-decoration="none" x="659" y="210">0..1</text></g></g><g transform="translate(-35,-14) scale(1,1)"><path fill="none" stroke="#000000" d="M 592.15576171875 256 L 690 256" stroke-miterlimit="10"></path></g><g transform="translate(-35,-14) scale(1,1)"><path fill="none" stroke="#000000" d="M 679.8373251423759 260.209517756016 L 690 256 L 679.8373251423758 251.790482243984" stroke-miterlimit="10"></path></g><g transform="translate(-35,-14) scale(1,1)"><g><path fill="none" stroke="none"></path><text fill="#000000" stroke="none" font-family="Arial" font-size="11px" font-style="normal" font-weight="normal" text-decoration="none" x="621" y="247">+targetSignal</text></g></g><g transform="translate(-35,-14) scale(1,1)"><g><path fill="none" stroke="none"></path><text fill="#000000" stroke="none" font-family="Arial" font-size="11px" font-style="normal" font-weight="normal" text-decoration="none" x="659" y="274">0..1</text></g></g><g transform="translate(-35,-14) scale(1,1)"><rect fill="#C0C0C0" stroke="none" x="99" y="323" width="144" height="48" opacity="0.2"></rect></g><g transform="translate(-35,-14) scale(1,1)"><rect fill="#FFFFFF" stroke="none" x="92" y="316" width="144" height="48"></rect></g><g transform="translate(-35,-14) scale(1,1)"><path fill="none" stroke="#000000" d="M 92 316 L 236 316 L 236 364 L 92 364 L 92 316 Z Z" stroke-miterlimit="10"></path></g><g transform="translate(-35,-14) scale(1,1)"><path fill="none" stroke="#000000" d="M 92 339 L 236 339" stroke-miterlimit="10"></path></g><g transform="translate(-35,-14) scale(1,1)"><g><path fill="none" stroke="none"></path><text fill="#000000" stroke="none" font-family="Arial" font-size="11px" font-style="normal" font-weight="bold" text-decoration="none" x="111.5" y="333.5">UMLOpaqueBehavior</text></g></g><g transform="translate(-35,-14) scale(1,1)"><path fill="none" stroke="#000000" d="M 168 316 L 168 268" stroke-miterlimit="10"></path></g><g transform="translate(-35,-14) scale(1,1)"><path fill="#FFFFFF" stroke="none" d="M 176.41903551203197 288.3253497152483 L 168 268 L 159.58096448796803 288.3253497152483"></path></g><g transform="translate(-35,-14) scale(1,1)"><path fill="none" stroke="#000000" d="M 176.41903551203197 288.3253497152483 L 168 268 L 159.58096448796803 288.3253497152483 L 176.41903551203197 288.3253497152483" stroke-miterlimit="10"></path></g><g transform="translate(-35,-14) scale(1,1)"><rect fill="#C0C0C0" stroke="none" x="63" y="91" width="102" height="32" opacity="0.2"></rect></g><g transform="translate(-35,-14) scale(1,1)"><rect fill="#C0C0C0" stroke="none" x="56" y="84" width="102" height="32"></rect></g><g transform="translate(-35,-14) scale(1,1)"><path fill="none" stroke="#000000" d="M 56 84 L 158 84 L 158 116 L 56 116 L 56 84 Z Z" stroke-miterlimit="10"></path></g><g transform="translate(-35,-14) scale(1,1)"><g><path fill="none" stroke="none"></path><text fill="#000000" stroke="none" font-family="Arial" font-size="11px" font-style="normal" font-weight="bold" text-decoration="none" x="70" y="101.5">UMLParameter</text></g></g><g transform="translate(-35,-14) scale(1,1)"><path fill="none" stroke="#000000" d="M 112 116 L 112 172" stroke-miterlimit="10"></path></g><g transform="translate(-35,-14) scale(1,1)"><path fill="#000000" stroke="none" d="M 107.79048224398402 161.83732514237585 L 112 172 L 116.20951775601598 161.83732514237585 L 112 150"></path></g><g transform="translate(-35,-14) scale(1,1)"><path fill="none" stroke="#000000" d="M 107.79048224398402 161.83732514237585 L 112 172 L 116.20951775601598 161.83732514237585 L 112 150 L 107.79048224398402 161.83732514237585" stroke-miterlimit="10"></path></g><g transform="translate(-35,-14) scale(1,1)"><g><path fill="none" stroke="none"></path><text fill="#000000" stroke="none" font-family="Arial" font-size="11px" font-style="normal" font-weight="normal" text-decoration="none" x="45" y="132">+parameters</text></g></g><g transform="translate(-35,-14) scale(1,1)"><g><path fill="none" stroke="none"></path><text fill="#000000" stroke="none" font-family="Arial" font-size="11px" font-style="normal" font-weight="normal" text-decoration="none" x="120" y="135">*</text></g></g><g transform="translate(-35,-14) scale(1,1)"><rect fill="#C0C0C0" stroke="none" x="359" y="179" width="91" height="92" opacity="0.2"></rect></g><g transform="translate(-35,-14) scale(1,1)"><rect fill="#C0C0C0" stroke="none" x="352" y="172" width="91" height="92"></rect></g><g transform="translate(-35,-14) scale(1,1)"><path fill="none" stroke="#000000" d="M 352 172 L 443 172 L 443 264 L 352 264 L 352 172 Z Z" stroke-miterlimit="10"></path></g><g transform="translate(-35,-14) scale(1,1)"><g><path fill="none" stroke="none"></path><text fill="#000000" stroke="none" font-family="Arial" font-size="11px" font-style="normal" font-weight="bold" text-decoration="none" x="361" y="189.5">UMLConstraint</text></g></g><g transform="translate(-35,-14) scale(1,1)"><path fill="none" stroke="#000000" d="M 352 184 L 247.9189453125 184" stroke-miterlimit="10"></path></g><g transform="translate(-35,-14) scale(1,1)"><path fill="#000000" stroke="none" d="M 258.08162017012415 179.790482243984 L 247.9189453125 184 L 258.08162017012415 188.209517756016 L 269.9189453125 184"></path></g><g transform="translate(-35,-14) scale(1,1)"><path fill="none" stroke="#000000" d="M 258.08162017012415 179.790482243984 L 247.9189453125 184 L 258.08162017012415 188.209517756016 L 269.9189453125 184 L 258.08162017012415 179.790482243984" stroke-miterlimit="10"></path></g><g transform="translate(-35,-14) scale(1,1)"><g><path fill="none" stroke="none"></path><text fill="#000000" stroke="none" font-family="Arial" font-size="11px" font-style="normal" font-weight="normal" text-decoration="none" x="276" y="204">+preconditions</text></g></g><g transform="translate(-35,-14) scale(1,1)"><g><path fill="none" stroke="none"></path><text fill="#000000" stroke="none" font-family="Arial" font-size="11px" font-style="normal" font-weight="normal" text-decoration="none" x="322" y="177">0..*</text></g></g><g transform="translate(-35,-14) scale(1,1)"><path fill="none" stroke="#000000" d="M 352 240 L 247.9189453125 240" stroke-miterlimit="10"></path></g><g transform="translate(-35,-14) scale(1,1)"><path fill="#000000" stroke="none" d="M 258.08162017012415 235.790482243984 L 247.9189453125 240 L 258.08162017012415 244.209517756016 L 269.9189453125 240"></path></g><g transform="translate(-35,-14) scale(1,1)"><path fill="none" stroke="#000000" d="M 258.08162017012415 235.790482243984 L 247.9189453125 240 L 258.08162017012415 244.209517756016 L 269.9189453125 240 L 258.08162017012415 235.790482243984" stroke-miterlimit="10"></path></g><g transform="translate(-35,-14) scale(1,1)"><g><path fill="none" stroke="none"></path><text fill="#000000" stroke="none" font-family="Arial" font-size="11px" font-style="normal" font-weight="normal" text-decoration="none" x="268" y="260">+postconditions</text></g></g><g transform="translate(-35,-14) scale(1,1)"><g><path fill="none" stroke="none"></path><text fill="#000000" stroke="none" font-family="Arial" font-size="11px" font-style="normal" font-weight="normal" text-decoration="none" x="322" y="233">0..*</text></g></g></g></svg>