<svg version="1.1" xmlns="http://www.w3.org/2000/svg" xmlns:xlink="http://www.w3.org/1999/xlink" width="509" height="345"><defs></defs><g><g transform="translate(-780,-249) scale(1,1)"><rect fill="#C0C0C0" stroke="none" x="803" y="266" width="131" height="42" opacity="0.2"></rect></g><g transform="translate(-780,-249) scale(1,1)"><rect fill="#FFFFFF" stroke="none" x="796" y="259" width="131" height="42"></rect></g><g transform="translate(-780,-249) scale(1,1)"><path fill="none" stroke="#000000" d="M 796 259 L 927 259 L 927 301 L 796 301 L 796 259 Z Z" stroke-miterlimit="10"></path></g><g transform="translate(-780,-249) scale(1,1)"><path fill="none" stroke="#000000" d="M 796 282 L 927 282" stroke-miterlimit="10"></path></g><g transform="translate(-780,-249) scale(1,1)"><path fill="none" stroke="#000000" d="M 796 292 L 927 292" stroke-miterlimit="10"></path></g><g transform="translate(-780,-249) scale(1,1)"><g><path fill="none" stroke="none"></path><text fill="#000000" stroke="none" font-family="Arial" font-size="11px" font-style="normal" font-weight="bold" text-decoration="none" x="806" y="276.5">UMLGeneralNodeView</text></g></g><g transform="translate(-780,-249) scale(1,1)"><rect fill="#C0C0C0" stroke="none" x="1162" y="410" width="124" height="42" opacity="0.2"></rect></g><g transform="translate(-780,-249) scale(1,1)"><rect fill="#FFFFFF" stroke="none" x="1155" y="403" width="124" height="42"></rect></g><g transform="translate(-780,-249) scale(1,1)"><path fill="none" stroke="#000000" d="M 1155 403 L 1279 403 L 1279 445 L 1155 445 L 1155 403 Z Z" stroke-miterlimit="10"></path></g><g transform="translate(-780,-249) scale(1,1)"><path fill="none" stroke="#000000" d="M 1155 426 L 1279 426" stroke-miterlimit="10"></path></g><g transform="translate(-780,-249) scale(1,1)"><path fill="none" stroke="#000000" d="M 1155 436 L 1279 436" stroke-miterlimit="10"></path></g><g transform="translate(-780,-249) scale(1,1)"><g><path fill="none" stroke="none"></path><text fill="#000000" stroke="none" font-family="Arial" font-size="11px" font-style="normal" font-weight="bold" text-decoration="none" x="1166" y="420.5">UMLComponentView</text></g></g><g transform="translate(-780,-249) scale(1,1)"><rect fill="#C0C0C0" stroke="none" x="1091" y="380" width="174" height="42" opacity="0.2"></rect></g><g transform="translate(-780,-249) scale(1,1)"><rect fill="#FFFFFF" stroke="none" x="1084" y="373" width="174" height="42"></rect></g><g transform="translate(-780,-249) scale(1,1)"><path fill="none" stroke="#000000" d="M 1084 373 L 1258 373 L 1258 415 L 1084 415 L 1084 373 Z Z" stroke-miterlimit="10"></path></g><g transform="translate(-780,-249) scale(1,1)"><path fill="none" stroke="#000000" d="M 1084 396 L 1258 396" stroke-miterlimit="10"></path></g><g transform="translate(-780,-249) scale(1,1)"><path fill="none" stroke="#000000" d="M 1084 406 L 1258 406" stroke-miterlimit="10"></path></g><g transform="translate(-780,-249) scale(1,1)"><g><path fill="none" stroke="none"></path><text fill="#000000" stroke="none" font-family="Arial" font-size="11px" font-style="normal" font-weight="bold" text-decoration="none" x="1099" y="390.5">UMLComponentInstanceView</text></g></g><g transform="translate(-780,-249) scale(1,1)"><rect fill="#C0C0C0" stroke="none" x="978" y="549" width="87" height="42" opacity="0.2"></rect></g><g transform="translate(-780,-249) scale(1,1)"><rect fill="#FFFFFF" stroke="none" x="971" y="542" width="87" height="42"></rect></g><g transform="translate(-780,-249) scale(1,1)"><path fill="none" stroke="#000000" d="M 971 542 L 1058 542 L 1058 584 L 971 584 L 971 542 Z Z" stroke-miterlimit="10"></path></g><g transform="translate(-780,-249) scale(1,1)"><path fill="none" stroke="#000000" d="M 971 565 L 1058 565" stroke-miterlimit="10"></path></g><g transform="translate(-780,-249) scale(1,1)"><path fill="none" stroke="#000000" d="M 971 575 L 1058 575" stroke-miterlimit="10"></path></g><g transform="translate(-780,-249) scale(1,1)"><g><path fill="none" stroke="none"></path><text fill="#000000" stroke="none" font-family="Arial" font-size="11px" font-style="normal" font-weight="bold" text-decoration="none" x="978.5" y="559.5">UMLNodeView</text></g></g><g transform="translate(-780,-249) scale(1,1)"><rect fill="#C0C0C0" stroke="none" x="797" y="433" width="137" height="42" opacity="0.2"></rect></g><g transform="translate(-780,-249) scale(1,1)"><rect fill="#FFFFFF" stroke="none" x="790" y="426" width="137" height="42"></rect></g><g transform="translate(-780,-249) scale(1,1)"><path fill="none" stroke="#000000" d="M 790 426 L 927 426 L 927 468 L 790 468 L 790 426 Z Z" stroke-miterlimit="10"></path></g><g transform="translate(-780,-249) scale(1,1)"><path fill="none" stroke="#000000" d="M 790 449 L 927 449" stroke-miterlimit="10"></path></g><g transform="translate(-780,-249) scale(1,1)"><path fill="none" stroke="#000000" d="M 790 459 L 927 459" stroke-miterlimit="10"></path></g><g transform="translate(-780,-249) scale(1,1)"><g><path fill="none" stroke="none"></path><text fill="#000000" stroke="none" font-family="Arial" font-size="11px" font-style="normal" font-weight="bold" text-decoration="none" x="801.5" y="443.5">UMLNodeInstanceView</text></g></g></g></svg>