<svg version="1.1" xmlns="http://www.w3.org/2000/svg" xmlns:xlink="http://www.w3.org/1999/xlink" width="832" height="461"><defs></defs><g><g transform="translate(-38,-14) scale(1,1)"><rect fill="#C0C0C0" stroke="none" x="535" y="275" width="124" height="100" opacity="0.2"></rect></g><g transform="translate(-38,-14) scale(1,1)"><rect fill="#FFFFFF" stroke="none" x="528" y="268" width="124" height="100"></rect></g><g transform="translate(-38,-14) scale(1,1)"><path fill="none" stroke="#000000" d="M 528 268 L 652 268 L 652 368 L 528 368 L 528 268 Z Z" stroke-miterlimit="10"></path></g><g transform="translate(-38,-14) scale(1,1)"><path fill="none" stroke="#000000" d="M 528 291 L 652 291" stroke-miterlimit="10"></path></g><g transform="translate(-38,-14) scale(1,1)"><g><path fill="none" stroke="none"></path><text fill="#000000" stroke="none" font-family="Arial" font-size="11px" font-style="normal" font-weight="bold" text-decoration="none" x="553" y="285.5">UMLConnector</text></g></g><g transform="translate(-38,-14) scale(1,1)"><path fill="none" stroke="#000000" d="M 600 268 L 600 223" stroke-miterlimit="10"></path></g><g transform="translate(-38,-14) scale(1,1)"><path fill="#FFFFFF" stroke="none" d="M 608.419035512032 243.3253497152483 L 600 223 L 591.580964487968 243.3253497152483"></path></g><g transform="translate(-38,-14) scale(1,1)"><path fill="none" stroke="#000000" d="M 608.419035512032 243.3253497152483 L 600 223 L 591.580964487968 243.3253497152483 L 608.419035512032 243.3253497152483" stroke-miterlimit="10"></path></g><g transform="translate(-38,-14) scale(1,1)"><rect fill="#C0C0C0" stroke="none" x="307" y="119" width="136" height="75" opacity="0.2"></rect></g><g transform="translate(-38,-14) scale(1,1)"><rect fill="#FFFFFF" stroke="none" x="300" y="112" width="136" height="75"></rect></g><g transform="translate(-38,-14) scale(1,1)"><path fill="none" stroke="#000000" d="M 300 112 L 436 112 L 436 187 L 300 187 L 300 112 Z Z" stroke-miterlimit="10"></path></g><g transform="translate(-38,-14) scale(1,1)"><path fill="none" stroke="#000000" d="M 300 135 L 436 135" stroke-miterlimit="10"></path></g><g transform="translate(-38,-14) scale(1,1)"><g><path fill="none" stroke="none"></path><text fill="#000000" stroke="none" font-family="Arial" font-size="11px" font-style="normal" font-weight="bold" text-decoration="none" x="346.5" y="129.5">UMLPort</text></g></g><g transform="translate(-38,-14) scale(1,1)"><g><path fill="none" stroke="none"></path><text fill="#000000" stroke="none" font-family="Arial" font-size="11px" font-style="normal" font-weight="normal" text-decoration="none" x="305" y="150.5">+isBehavior: Boolean</text></g></g><g transform="translate(-38,-14) scale(1,1)"><g><path fill="none" stroke="none"></path><text fill="#000000" stroke="none" font-family="Arial" font-size="11px" font-style="normal" font-weight="normal" text-decoration="none" x="305" y="163.5">+isService: Boolean = true</text></g></g><g transform="translate(-38,-14) scale(1,1)"><g><path fill="none" stroke="none"></path><text fill="#000000" stroke="none" font-family="Arial" font-size="11px" font-style="normal" font-weight="normal" text-decoration="none" x="305" y="176.5">+isConjugated: Boolean</text></g></g><g transform="translate(-38,-14) scale(1,1)"><path fill="none" stroke="#000000" d="M 368 112 L 368 76" stroke-miterlimit="10"></path></g><g transform="translate(-38,-14) scale(1,1)"><path fill="#FFFFFF" stroke="none" d="M 376.419035512032 96.32534971524831 L 368 76 L 359.580964487968 96.32534971524831"></path></g><g transform="translate(-38,-14) scale(1,1)"><path fill="none" stroke="#000000" d="M 376.419035512032 96.32534971524831 L 368 76 L 359.580964487968 96.32534971524831 L 376.419035512032 96.32534971524831" stroke-miterlimit="10"></path></g><g transform="translate(-38,-14) scale(1,1)"><rect fill="#C0C0C0" stroke="none" x="63" y="31" width="160" height="108" opacity="0.2"></rect></g><g transform="translate(-38,-14) scale(1,1)"><rect fill="#C0C0C0" stroke="none" x="56" y="24" width="160" height="108"></rect></g><g transform="translate(-38,-14) scale(1,1)"><path fill="none" stroke="#000000" d="M 56 24 L 216 24 L 216 132 L 56 132 L 56 24 Z Z" stroke-miterlimit="10"></path></g><g transform="translate(-38,-14) scale(1,1)"><g><path fill="none" stroke="none"></path><text fill="#000000" stroke="none" font-family="Arial" font-size="11px" font-style="normal" font-weight="bold" text-decoration="none" x="102" y="41.5">UMLClassifier</text></g></g><g transform="translate(-38,-14) scale(1,1)"><rect fill="#C0C0C0" stroke="none" x="55" y="219" width="180" height="80" opacity="0.2"></rect></g><g transform="translate(-38,-14) scale(1,1)"><rect fill="#FFFFFF" stroke="none" x="48" y="212" width="180" height="80"></rect></g><g transform="translate(-38,-14) scale(1,1)"><path fill="none" stroke="#000000" d="M 48 212 L 228 212 L 228 292 L 48 292 L 48 212 Z Z" stroke-miterlimit="10"></path></g><g transform="translate(-38,-14) scale(1,1)"><path fill="none" stroke="#000000" d="M 48 235 L 228 235" stroke-miterlimit="10"></path></g><g transform="translate(-38,-14) scale(1,1)"><g><path fill="none" stroke="none"></path><text fill="#000000" stroke="none" font-family="Arial" font-size="11px" font-style="normal" font-weight="bold" text-decoration="none" x="95" y="229.5">UMLCollaboration</text></g></g><g transform="translate(-38,-14) scale(1,1)"><path fill="none" stroke="#000000" d="M 136 212 L 136 132" stroke-miterlimit="10"></path></g><g transform="translate(-38,-14) scale(1,1)"><path fill="#FFFFFF" stroke="none" d="M 144.41903551203197 152.3253497152483 L 136 132 L 127.58096448796803 152.3253497152483"></path></g><g transform="translate(-38,-14) scale(1,1)"><path fill="none" stroke="#000000" d="M 144.41903551203197 152.3253497152483 L 136 132 L 127.58096448796803 152.3253497152483 L 144.41903551203197 152.3253497152483" stroke-miterlimit="10"></path></g><g transform="translate(-38,-14) scale(1,1)"><rect fill="#C0C0C0" stroke="none" x="315" y="35" width="116" height="48" opacity="0.2"></rect></g><g transform="translate(-38,-14) scale(1,1)"><rect fill="#C0C0C0" stroke="none" x="308" y="28" width="116" height="48"></rect></g><g transform="translate(-38,-14) scale(1,1)"><path fill="none" stroke="#000000" d="M 308 28 L 424 28 L 424 76 L 308 76 L 308 28 Z Z" stroke-miterlimit="10"></path></g><g transform="translate(-38,-14) scale(1,1)"><g><path fill="none" stroke="none"></path><text fill="#000000" stroke="none" font-family="Arial" font-size="11px" font-style="normal" font-weight="bold" text-decoration="none" x="334.5" y="45.5">UMLAttribute</text></g></g><g transform="translate(-38,-14) scale(1,1)"><path fill="none" stroke="#000000" d="M 308 60 L 216 60" stroke-miterlimit="10"></path></g><g transform="translate(-38,-14) scale(1,1)"><path fill="#000000" stroke="none" d="M 226.16267485762415 55.790482243984016 L 216 60 L 226.16267485762415 64.20951775601598 L 238 60"></path></g><g transform="translate(-38,-14) scale(1,1)"><path fill="none" stroke="#000000" d="M 226.16267485762415 55.790482243984016 L 216 60 L 226.16267485762415 64.20951775601598 L 238 60 L 226.16267485762415 55.790482243984016" stroke-miterlimit="10"></path></g><g transform="translate(-38,-14) scale(1,1)"><g><path fill="none" stroke="none"></path><text fill="#000000" stroke="none" font-family="Arial" font-size="11px" font-style="normal" font-weight="normal" text-decoration="none" x="250" y="80">+attributes</text></g></g><g transform="translate(-38,-14) scale(1,1)"><g><path fill="none" stroke="none"></path><text fill="#000000" stroke="none" font-family="Arial" font-size="11px" font-style="normal" font-weight="normal" text-decoration="none" x="284" y="53">*</text></g></g><g transform="translate(-38,-14) scale(1,1)"><rect fill="#C0C0C0" stroke="none" x="251" y="307" width="124" height="44" opacity="0.2"></rect></g><g transform="translate(-38,-14) scale(1,1)"><rect fill="#C0C0C0" stroke="none" x="244" y="300" width="124" height="44"></rect></g><g transform="translate(-38,-14) scale(1,1)"><path fill="none" stroke="#000000" d="M 244 300 L 368 300 L 368 344 L 244 344 L 244 300 Z Z" stroke-miterlimit="10"></path></g><g transform="translate(-38,-14) scale(1,1)"><g><path fill="none" stroke="none"></path><text fill="#000000" stroke="none" font-family="Arial" font-size="11px" font-style="normal" font-weight="bold" text-decoration="none" x="260.5" y="317.5">UMLModelElement</text></g></g><g transform="translate(-38,-14) scale(1,1)"><rect fill="#C0C0C0" stroke="none" x="55" y="355" width="176" height="56" opacity="0.2"></rect></g><g transform="translate(-38,-14) scale(1,1)"><rect fill="#FFFFFF" stroke="none" x="48" y="348" width="176" height="56"></rect></g><g transform="translate(-38,-14) scale(1,1)"><path fill="none" stroke="#000000" d="M 48 348 L 224 348 L 224 404 L 48 404 L 48 348 Z Z" stroke-miterlimit="10"></path></g><g transform="translate(-38,-14) scale(1,1)"><path fill="none" stroke="#000000" d="M 48 371 L 224 371" stroke-miterlimit="10"></path></g><g transform="translate(-38,-14) scale(1,1)"><g><path fill="none" stroke="none"></path><text fill="#000000" stroke="none" font-family="Arial" font-size="11px" font-style="normal" font-weight="bold" text-decoration="none" x="83" y="365.5">UMLCollaborationUse</text></g></g><g transform="translate(-38,-14) scale(1,1)"><path fill="none" stroke="#000000" d="M 224 380 L 302 380 L 302 344" stroke-miterlimit="10"></path></g><g transform="translate(-38,-14) scale(1,1)"><path fill="#FFFFFF" stroke="none" d="M 310.419035512032 364.3253497152483 L 302 344 L 293.580964487968 364.3253497152483"></path></g><g transform="translate(-38,-14) scale(1,1)"><path fill="none" stroke="#000000" d="M 310.419035512032 364.3253497152483 L 302 344 L 293.580964487968 364.3253497152483 L 310.419035512032 364.3253497152483" stroke-miterlimit="10"></path></g><g transform="translate(-38,-14) scale(1,1)"><path fill="none" stroke="#000000" d="M 132 348 L 132 292" stroke-miterlimit="10"></path></g><g transform="translate(-38,-14) scale(1,1)"><path fill="none" stroke="#000000" d="M 136.209517756016 302.16267485762415 L 132 292 L 127.79048224398402 302.16267485762415" stroke-miterlimit="10"></path></g><g transform="translate(-38,-14) scale(1,1)"><g><path fill="none" stroke="none"></path><text fill="#000000" stroke="none" font-family="Arial" font-size="11px" font-style="normal" font-weight="normal" text-decoration="none" x="93" y="312">+type</text></g></g><g transform="translate(-38,-14) scale(1,1)"><g><path fill="none" stroke="none"></path><text fill="#000000" stroke="none" font-family="Arial" font-size="11px" font-style="normal" font-weight="normal" text-decoration="none" x="140" y="311">0..1</text></g></g><g transform="translate(-38,-14) scale(1,1)"><rect fill="#C0C0C0" stroke="none" x="539" y="435" width="128" height="32" opacity="0.2"></rect></g><g transform="translate(-38,-14) scale(1,1)"><rect fill="#C0C0C0" stroke="none" x="532" y="428" width="128" height="32"></rect></g><g transform="translate(-38,-14) scale(1,1)"><path fill="none" stroke="#000000" d="M 532 428 L 660 428 L 660 460 L 532 460 L 532 428 Z Z" stroke-miterlimit="10"></path></g><g transform="translate(-38,-14) scale(1,1)"><g><path fill="none" stroke="none"></path><text fill="#000000" stroke="none" font-family="Arial" font-size="11px" font-style="normal" font-weight="bold" text-decoration="none" x="556.5" y="445.5">UMLAssociation</text></g></g><g transform="translate(-38,-14) scale(1,1)"><path fill="none" stroke="#000000" d="M 592 368 L 592 428" stroke-miterlimit="10"></path></g><g transform="translate(-38,-14) scale(1,1)"><path fill="none" stroke="#000000" d="M 587.790482243984 417.83732514237585 L 592 428 L 596.209517756016 417.83732514237585" stroke-miterlimit="10"></path></g><g transform="translate(-38,-14) scale(1,1)"><g><path fill="none" stroke="none"></path><text fill="#000000" stroke="none" font-family="Arial" font-size="11px" font-style="normal" font-weight="normal" text-decoration="none" x="602" y="416">+type</text></g></g><g transform="translate(-38,-14) scale(1,1)"><g><path fill="none" stroke="none"></path><text fill="#000000" stroke="none" font-family="Arial" font-size="11px" font-style="normal" font-weight="normal" text-decoration="none" x="563" y="416">0..1</text></g></g><g transform="translate(-38,-14) scale(1,1)"><rect fill="#C0C0C0" stroke="none" x="543" y="39" width="116" height="38" opacity="0.2"></rect></g><g transform="translate(-38,-14) scale(1,1)"><rect fill="#C0C0C0" stroke="none" x="536" y="32" width="116" height="38"></rect></g><g transform="translate(-38,-14) scale(1,1)"><path fill="none" stroke="#000000" d="M 536 32 L 652 32 L 652 70 L 536 70 L 536 32 Z Z" stroke-miterlimit="10"></path></g><g transform="translate(-38,-14) scale(1,1)"><g><path fill="none" stroke="none"></path><text fill="#000000" stroke="none" font-family="Arial" font-size="11px" font-style="normal" font-weight="bold" text-decoration="none" x="551.5" y="49.5">UMLDependency</text></g></g><g transform="translate(-38,-14) scale(1,1)"><rect fill="#C0C0C0" stroke="none" x="543" y="115" width="124" height="47" opacity="0.2"></rect></g><g transform="translate(-38,-14) scale(1,1)"><rect fill="#FFFFFF" stroke="none" x="536" y="108" width="124" height="47"></rect></g><g transform="translate(-38,-14) scale(1,1)"><path fill="none" stroke="#000000" d="M 536 108 L 660 108 L 660 155 L 536 155 L 536 108 Z Z" stroke-miterlimit="10"></path></g><g transform="translate(-38,-14) scale(1,1)"><path fill="none" stroke="#000000" d="M 536 131 L 660 131" stroke-miterlimit="10"></path></g><g transform="translate(-38,-14) scale(1,1)"><g><path fill="none" stroke="none"></path><text fill="#000000" stroke="none" font-family="Arial" font-size="11px" font-style="normal" font-weight="bold" text-decoration="none" x="558" y="125.5">UMLRoleBinding</text></g></g><g transform="translate(-38,-14) scale(1,1)"><g><path fill="none" stroke="none"></path><text fill="#000000" stroke="none" font-family="Arial" font-size="11px" font-style="normal" font-weight="normal" text-decoration="none" x="541" y="146.5">+roleName: String</text></g></g><g transform="translate(-38,-14) scale(1,1)"><path fill="none" stroke="#000000" d="M 594 108 L 594 70" stroke-miterlimit="10"></path></g><g transform="translate(-38,-14) scale(1,1)"><path fill="#FFFFFF" stroke="none" d="M 602.419035512032 90.32534971524831 L 594 70 L 585.580964487968 90.32534971524831"></path></g><g transform="translate(-38,-14) scale(1,1)"><path fill="none" stroke="#000000" d="M 602.419035512032 90.32534971524831 L 594 70 L 585.580964487968 90.32534971524831 L 602.419035512032 90.32534971524831" stroke-miterlimit="10"></path></g><g transform="translate(-38,-14) scale(1,1)"><path fill="#FFFFFF" stroke="none" d="M 292 208 L 425 208 L 435 218 L 435 242 L 292 242 L 292 208"></path></g><g transform="translate(-38,-14) scale(1,1)"><path fill="none" stroke="#000000" d="M 292 208 L 425 208 L 435 218 L 435 242 L 292 242 L 292 208 L 292 208" stroke-miterlimit="10"></path></g><g transform="translate(-38,-14) scale(1,1)"><path fill="none" stroke="#000000" d="M 425 208 L 425 218 L 435 218 L 425 208" stroke-miterlimit="10"></path></g><g transform="translate(-38,-14) scale(1,1)"><g><path fill="none" stroke="none"></path><text fill="#000000" stroke="none" font-family="Arial" font-size="11px" font-style="normal" font-weight="normal" text-decoration="none" x="297" y="224">roles = attributes</text></g></g><g transform="translate(-38,-14) scale(1,1)"><g><path fill="none" stroke="none"></path><text fill="#000000" stroke="none" font-family="Arial" font-size="11px" font-style="normal" font-weight="normal" text-decoration="none" x="297" y="237"></text></g></g><g transform="translate(-38,-14) scale(1,1)"><path fill="none" stroke="#000000" d="M 291 233.7212389380531 L 229 241.1283185840708" stroke-miterlimit="10" stroke-dasharray="3"></path></g><g transform="translate(-38,-14) scale(1,1)"><path fill="#FFFFFF" stroke="none" d="M 288 404 L 481 404 L 491 414 L 491 464 L 288 464 L 288 404"></path></g><g transform="translate(-38,-14) scale(1,1)"><path fill="none" stroke="#000000" d="M 288 404 L 481 404 L 491 414 L 491 464 L 288 464 L 288 404 L 288 404" stroke-miterlimit="10"></path></g><g transform="translate(-38,-14) scale(1,1)"><path fill="none" stroke="#000000" d="M 481 404 L 481 414 L 491 414 L 481 404" stroke-miterlimit="10"></path></g><g transform="translate(-38,-14) scale(1,1)"><g><path fill="none" stroke="none"></path><text fill="#000000" stroke="none" font-family="Arial" font-size="11px" font-style="normal" font-weight="normal" text-decoration="none" x="293" y="420">- owned by parent.ownedElements</text></g></g><g transform="translate(-38,-14) scale(1,1)"><g><path fill="none" stroke="none"></path><text fill="#000000" stroke="none" font-family="Arial" font-size="11px" font-style="normal" font-weight="normal" text-decoration="none" x="293" y="433">  or head.ownedElements</text></g></g><g transform="translate(-38,-14) scale(1,1)"><g><path fill="none" stroke="none"></path><text fill="#000000" stroke="none" font-family="Arial" font-size="11px" font-style="normal" font-weight="normal" text-decoration="none" x="293" y="446">- connect between StructuralFeatures</text></g></g><g transform="translate(-38,-14) scale(1,1)"><g><path fill="none" stroke="none"></path><text fill="#000000" stroke="none" font-family="Arial" font-size="11px" font-style="normal" font-weight="normal" text-decoration="none" x="293" y="459"></text></g></g><g transform="translate(-38,-14) scale(1,1)"><path fill="none" stroke="#000000" d="M 527 323.9433962264151 L 484 328 L 417.49056603773585 403" stroke-miterlimit="10" stroke-dasharray="3"></path></g><g transform="translate(-38,-14) scale(1,1)"><path fill="#FFFFFF" stroke="none" d="M 292 252 L 463 252 L 473 262 L 473 286 L 292 286 L 292 252"></path></g><g transform="translate(-38,-14) scale(1,1)"><path fill="none" stroke="#000000" d="M 292 252 L 463 252 L 473 262 L 473 286 L 292 286 L 292 252 L 292 252" stroke-miterlimit="10"></path></g><g transform="translate(-38,-14) scale(1,1)"><path fill="none" stroke="#000000" d="M 463 252 L 463 262 L 473 262 L 463 252" stroke-miterlimit="10"></path></g><g transform="translate(-38,-14) scale(1,1)"><g><path fill="none" stroke="none"></path><text fill="#000000" stroke="none" font-family="Arial" font-size="11px" font-style="normal" font-weight="normal" text-decoration="none" x="297" y="268">owned by parent.ownedElements</text></g></g><g transform="translate(-38,-14) scale(1,1)"><g><path fill="none" stroke="none"></path><text fill="#000000" stroke="none" font-family="Arial" font-size="11px" font-style="normal" font-weight="normal" text-decoration="none" x="297" y="281"></text></g></g><g transform="translate(-38,-14) scale(1,1)"><path fill="none" stroke="#000000" d="M 229 258.3142857142857 L 291 262.61632653061224" stroke-miterlimit="10" stroke-dasharray="3"></path></g><g transform="translate(-38,-14) scale(1,1)"><rect fill="#C0C0C0" stroke="none" x="739" y="201" width="128" height="31" opacity="0.2"></rect></g><g transform="translate(-38,-14) scale(1,1)"><rect fill="#C0C0C0" stroke="none" x="732" y="194" width="128" height="31"></rect></g><g transform="translate(-38,-14) scale(1,1)"><path fill="none" stroke="#000000" d="M 732 194 L 860 194 L 860 225 L 732 225 L 732 194 Z Z" stroke-miterlimit="10"></path></g><g transform="translate(-38,-14) scale(1,1)"><g><path fill="none" stroke="none"></path><text fill="#000000" stroke="none" font-family="Arial" font-size="11px" font-style="normal" font-weight="bold" text-decoration="none" x="745.5" y="211.5">UMLRelationshipEnd</text></g></g><g transform="translate(-38,-14) scale(1,1)"><rect fill="#C0C0C0" stroke="none" x="529" y="201" width="161" height="29" opacity="0.2"></rect></g><g transform="translate(-38,-14) scale(1,1)"><rect fill="#C0C0C0" stroke="none" x="522" y="194" width="161" height="29"></rect></g><g transform="translate(-38,-14) scale(1,1)"><path fill="none" stroke="#000000" d="M 522 194 L 683 194 L 683 223 L 522 223 L 522 194 Z Z" stroke-miterlimit="10"></path></g><g transform="translate(-38,-14) scale(1,1)"><g><path fill="none" stroke="none"></path><text fill="#000000" stroke="none" font-family="Arial" font-size="11px" font-style="normal" font-weight="bold" text-decoration="none" x="535" y="211.5">UMLUndirectedRelationship</text></g></g><g transform="translate(-38,-14) scale(1,1)"><rect fill="#C0C0C0" stroke="none" x="747" y="275" width="111" height="96" opacity="0.2"></rect></g><g transform="translate(-38,-14) scale(1,1)"><rect fill="#FFFFFF" stroke="none" x="740" y="268" width="111" height="96"></rect></g><g transform="translate(-38,-14) scale(1,1)"><path fill="none" stroke="#000000" d="M 740 268 L 851 268 L 851 364 L 740 364 L 740 268 Z Z" stroke-miterlimit="10"></path></g><g transform="translate(-38,-14) scale(1,1)"><path fill="none" stroke="#000000" d="M 740 291 L 851 291" stroke-miterlimit="10"></path></g><g transform="translate(-38,-14) scale(1,1)"><g><path fill="none" stroke="none"></path><text fill="#000000" stroke="none" font-family="Arial" font-size="11px" font-style="normal" font-weight="bold" text-decoration="none" x="749" y="285.5">UMLConnectorEnd</text></g></g><g transform="translate(-38,-14) scale(1,1)"><path fill="none" stroke="#000000" d="M 793 268 L 793 225" stroke-miterlimit="10"></path></g><g transform="translate(-38,-14) scale(1,1)"><path fill="#FFFFFF" stroke="none" d="M 801.419035512032 245.3253497152483 L 793 225 L 784.580964487968 245.3253497152483"></path></g><g transform="translate(-38,-14) scale(1,1)"><path fill="none" stroke="#000000" d="M 801.419035512032 245.3253497152483 L 793 225 L 784.580964487968 245.3253497152483 L 801.419035512032 245.3253497152483" stroke-miterlimit="10"></path></g><g transform="translate(-38,-14) scale(1,1)"><path fill="none" stroke="#000000" d="M 740 288 L 652 288" stroke-miterlimit="10"></path></g><g transform="translate(-38,-14) scale(1,1)"><path fill="#000000" stroke="none" d="M 662.1626748576241 283.790482243984 L 652 288 L 662.1626748576241 292.209517756016 L 674 288"></path></g><g transform="translate(-38,-14) scale(1,1)"><path fill="none" stroke="#000000" d="M 662.1626748576241 283.790482243984 L 652 288 L 662.1626748576241 292.209517756016 L 674 288 L 662.1626748576241 283.790482243984" stroke-miterlimit="10"></path></g><g transform="translate(-38,-14) scale(1,1)"><g><path fill="none" stroke="none"></path><text fill="#000000" stroke="none" font-family="Arial" font-size="11px" font-style="normal" font-weight="normal" text-decoration="none" x="699" y="309">+end1</text></g></g><g transform="translate(-38,-14) scale(1,1)"><g><path fill="none" stroke="none"></path><text fill="#000000" stroke="none" font-family="Arial" font-size="11px" font-style="normal" font-weight="normal" text-decoration="none" x="715" y="281">1</text></g></g><g transform="translate(-38,-14) scale(1,1)"><path fill="none" stroke="#000000" d="M 740 348 L 652 348" stroke-miterlimit="10"></path></g><g transform="translate(-38,-14) scale(1,1)"><path fill="#000000" stroke="none" d="M 662.1626748576241 343.790482243984 L 652 348 L 662.1626748576241 352.209517756016 L 674 348"></path></g><g transform="translate(-38,-14) scale(1,1)"><path fill="none" stroke="#000000" d="M 662.1626748576241 343.790482243984 L 652 348 L 662.1626748576241 352.209517756016 L 674 348 L 662.1626748576241 343.790482243984" stroke-miterlimit="10"></path></g><g transform="translate(-38,-14) scale(1,1)"><g><path fill="none" stroke="none"></path><text fill="#000000" stroke="none" font-family="Arial" font-size="11px" font-style="normal" font-weight="normal" text-decoration="none" x="699" y="369">+end2</text></g></g><g transform="translate(-38,-14) scale(1,1)"><g><path fill="none" stroke="none"></path><text fill="#000000" stroke="none" font-family="Arial" font-size="11px" font-style="normal" font-weight="normal" text-decoration="none" x="715" y="341">1</text></g></g></g></svg>