<svg version="1.1" xmlns="http://www.w3.org/2000/svg" xmlns:xlink="http://www.w3.org/1999/xlink" width="959" height="483"><defs></defs><g><g transform="translate(-54,-58) scale(1,1)"><rect fill="#C0C0C0" stroke="none" x="371" y="147" width="104" height="88" opacity="0.2"></rect></g><g transform="translate(-54,-58) scale(1,1)"><rect fill="#FFFFFF" stroke="none" x="364" y="140" width="104" height="88"></rect></g><g transform="translate(-54,-58) scale(1,1)"><path fill="none" stroke="#000000" d="M 364 140 L 468 140 L 468 228 L 364 228 L 364 140 Z Z" stroke-miterlimit="10"></path></g><g transform="translate(-54,-58) scale(1,1)"><path fill="none" stroke="#000000" d="M 364 163 L 468 163" stroke-miterlimit="10"></path></g><g transform="translate(-54,-58) scale(1,1)"><g><path fill="none" stroke="none"></path><text fill="#000000" stroke="none" font-family="Arial" font-size="11px" font-style="normal" font-weight="bold" text-decoration="none" x="384" y="157.5">UMLDiagram</text></g></g><g transform="translate(-54,-58) scale(1,1)"><rect fill="#C0C0C0" stroke="none" x="153" y="83" width="109" height="43" opacity="0.2"></rect></g><g transform="translate(-54,-58) scale(1,1)"><rect fill="#FFFFFF" stroke="none" x="146" y="76" width="109" height="43"></rect></g><g transform="translate(-54,-58) scale(1,1)"><path fill="none" stroke="#000000" d="M 146 76 L 255 76 L 255 119 L 146 119 L 146 76 Z Z" stroke-miterlimit="10"></path></g><g transform="translate(-54,-58) scale(1,1)"><path fill="none" stroke="#000000" d="M 146 99 L 255 99" stroke-miterlimit="10"></path></g><g transform="translate(-54,-58) scale(1,1)"><g><path fill="none" stroke="none"></path><text fill="#000000" stroke="none" font-family="Arial" font-size="11px" font-style="normal" font-weight="bold" text-decoration="none" x="154.5" y="93.5">UMLClassDiagram</text></g></g><g transform="translate(-54,-58) scale(1,1)"><rect fill="#C0C0C0" stroke="none" x="149" y="147" width="113" height="43" opacity="0.2"></rect></g><g transform="translate(-54,-58) scale(1,1)"><rect fill="#FFFFFF" stroke="none" x="142" y="140" width="113" height="43"></rect></g><g transform="translate(-54,-58) scale(1,1)"><path fill="none" stroke="#000000" d="M 142 140 L 255 140 L 255 183 L 142 183 L 142 140 Z Z" stroke-miterlimit="10"></path></g><g transform="translate(-54,-58) scale(1,1)"><path fill="none" stroke="#000000" d="M 142 163 L 255 163" stroke-miterlimit="10"></path></g><g transform="translate(-54,-58) scale(1,1)"><g><path fill="none" stroke="none"></path><text fill="#000000" stroke="none" font-family="Arial" font-size="11px" font-style="normal" font-weight="bold" text-decoration="none" x="150.5" y="157.5">UMLObjectDiagram</text></g></g><g transform="translate(-54,-58) scale(1,1)"><rect fill="#C0C0C0" stroke="none" x="71" y="279" width="191" height="43" opacity="0.2"></rect></g><g transform="translate(-54,-58) scale(1,1)"><rect fill="#FFFFFF" stroke="none" x="64" y="272" width="191" height="43"></rect></g><g transform="translate(-54,-58) scale(1,1)"><path fill="none" stroke="#000000" d="M 64 272 L 255 272 L 255 315 L 64 315 L 64 272 Z Z" stroke-miterlimit="10"></path></g><g transform="translate(-54,-58) scale(1,1)"><path fill="none" stroke="#000000" d="M 64 295 L 255 295" stroke-miterlimit="10"></path></g><g transform="translate(-54,-58) scale(1,1)"><g><path fill="none" stroke="none"></path><text fill="#000000" stroke="none" font-family="Arial" font-size="11px" font-style="normal" font-weight="bold" text-decoration="none" x="79" y="289.5">UMLCompositeStructureDiagram</text></g></g><g transform="translate(-54,-58) scale(1,1)"><rect fill="#C0C0C0" stroke="none" x="119" y="351" width="143" height="43" opacity="0.2"></rect></g><g transform="translate(-54,-58) scale(1,1)"><rect fill="#FFFFFF" stroke="none" x="112" y="344" width="143" height="43"></rect></g><g transform="translate(-54,-58) scale(1,1)"><path fill="none" stroke="#000000" d="M 112 344 L 255 344 L 255 387 L 112 387 L 112 344 Z Z" stroke-miterlimit="10"></path></g><g transform="translate(-54,-58) scale(1,1)"><path fill="none" stroke="#000000" d="M 112 367 L 255 367" stroke-miterlimit="10"></path></g><g transform="translate(-54,-58) scale(1,1)"><g><path fill="none" stroke="none"></path><text fill="#000000" stroke="none" font-family="Arial" font-size="11px" font-style="normal" font-weight="bold" text-decoration="none" x="123.5" y="361.5">UMLComponentDiagram</text></g></g><g transform="translate(-54,-58) scale(1,1)"><rect fill="#C0C0C0" stroke="none" x="118" y="427" width="144" height="43" opacity="0.2"></rect></g><g transform="translate(-54,-58) scale(1,1)"><rect fill="#FFFFFF" stroke="none" x="111" y="420" width="144" height="43"></rect></g><g transform="translate(-54,-58) scale(1,1)"><path fill="none" stroke="#000000" d="M 111 420 L 255 420 L 255 463 L 111 463 L 111 420 Z Z" stroke-miterlimit="10"></path></g><g transform="translate(-54,-58) scale(1,1)"><path fill="none" stroke="#000000" d="M 111 443 L 255 443" stroke-miterlimit="10"></path></g><g transform="translate(-54,-58) scale(1,1)"><g><path fill="none" stroke="none"></path><text fill="#000000" stroke="none" font-family="Arial" font-size="11px" font-style="normal" font-weight="bold" text-decoration="none" x="122" y="437.5">UMLDeploymentDiagram</text></g></g><g transform="translate(-54,-58) scale(1,1)"><rect fill="#C0C0C0" stroke="none" x="567" y="139" width="294" height="75" opacity="0.2"></rect></g><g transform="translate(-54,-58) scale(1,1)"><rect fill="#FFFFFF" stroke="none" x="560" y="132" width="294" height="75"></rect></g><g transform="translate(-54,-58) scale(1,1)"><path fill="none" stroke="#000000" d="M 560 132 L 854 132 L 854 207 L 560 207 L 560 132 Z Z" stroke-miterlimit="10"></path></g><g transform="translate(-54,-58) scale(1,1)"><path fill="none" stroke="#000000" d="M 560 155 L 854 155" stroke-miterlimit="10"></path></g><g transform="translate(-54,-58) scale(1,1)"><g><path fill="none" stroke="none"></path><text fill="#000000" stroke="none" font-family="Arial" font-size="11px" font-style="normal" font-weight="bold" text-decoration="none" x="650.5" y="149.5">UMLSequenceDiagram</text></g></g><g transform="translate(-54,-58) scale(1,1)"><g><path fill="none" stroke="none"></path><text fill="#000000" stroke="none" font-family="Arial" font-size="11px" font-style="normal" font-weight="normal" text-decoration="none" x="565" y="170.5">+showSequenceNumber: Boolean</text></g></g><g transform="translate(-54,-58) scale(1,1)"><g><path fill="none" stroke="none"></path><text fill="#000000" stroke="none" font-family="Arial" font-size="11px" font-style="normal" font-weight="normal" text-decoration="none" x="565" y="183.5">+messageSignature: UMLMessageSignatureKind</text></g></g><g transform="translate(-54,-58) scale(1,1)"><g><path fill="none" stroke="none"></path><text fill="#000000" stroke="none" font-family="Arial" font-size="11px" font-style="normal" font-weight="normal" text-decoration="none" x="565" y="196.5">+showActivation: Boolean</text></g></g><g transform="translate(-54,-58) scale(1,1)"><rect fill="#C0C0C0" stroke="none" x="567" y="231" width="294" height="61" opacity="0.2"></rect></g><g transform="translate(-54,-58) scale(1,1)"><rect fill="#FFFFFF" stroke="none" x="560" y="224" width="294" height="61"></rect></g><g transform="translate(-54,-58) scale(1,1)"><path fill="none" stroke="#000000" d="M 560 224 L 854 224 L 854 285 L 560 285 L 560 224 Z Z" stroke-miterlimit="10"></path></g><g transform="translate(-54,-58) scale(1,1)"><path fill="none" stroke="#000000" d="M 560 247 L 854 247" stroke-miterlimit="10"></path></g><g transform="translate(-54,-58) scale(1,1)"><g><path fill="none" stroke="none"></path><text fill="#000000" stroke="none" font-family="Arial" font-size="11px" font-style="normal" font-weight="bold" text-decoration="none" x="637.5" y="241.5">UMLCommunicationDiagram</text></g></g><g transform="translate(-54,-58) scale(1,1)"><g><path fill="none" stroke="none"></path><text fill="#000000" stroke="none" font-family="Arial" font-size="11px" font-style="normal" font-weight="normal" text-decoration="none" x="565" y="262.5">+showSequenceNumber: Boolean</text></g></g><g transform="translate(-54,-58) scale(1,1)"><g><path fill="none" stroke="none"></path><text fill="#000000" stroke="none" font-family="Arial" font-size="11px" font-style="normal" font-weight="normal" text-decoration="none" x="565" y="275.5">+messageSignature: UMLMessageSignatureKind</text></g></g><g transform="translate(-54,-58) scale(1,1)"><rect fill="#C0C0C0" stroke="none" x="567" y="307" width="118" height="43" opacity="0.2"></rect></g><g transform="translate(-54,-58) scale(1,1)"><rect fill="#FFFFFF" stroke="none" x="560" y="300" width="118" height="43"></rect></g><g transform="translate(-54,-58) scale(1,1)"><path fill="none" stroke="#000000" d="M 560 300 L 678 300 L 678 343 L 560 343 L 560 300 Z Z" stroke-miterlimit="10"></path></g><g transform="translate(-54,-58) scale(1,1)"><path fill="none" stroke="#000000" d="M 560 323 L 678 323" stroke-miterlimit="10"></path></g><g transform="translate(-54,-58) scale(1,1)"><g><path fill="none" stroke="none"></path><text fill="#000000" stroke="none" font-family="Arial" font-size="11px" font-style="normal" font-weight="bold" text-decoration="none" x="569.5" y="317.5">UMLActivityDiagram</text></g></g><g transform="translate(-54,-58) scale(1,1)"><rect fill="#C0C0C0" stroke="none" x="567" y="371" width="134" height="43" opacity="0.2"></rect></g><g transform="translate(-54,-58) scale(1,1)"><rect fill="#FFFFFF" stroke="none" x="560" y="364" width="134" height="43"></rect></g><g transform="translate(-54,-58) scale(1,1)"><path fill="none" stroke="#000000" d="M 560 364 L 694 364 L 694 407 L 560 407 L 560 364 Z Z" stroke-miterlimit="10"></path></g><g transform="translate(-54,-58) scale(1,1)"><path fill="none" stroke="#000000" d="M 560 387 L 694 387" stroke-miterlimit="10"></path></g><g transform="translate(-54,-58) scale(1,1)"><g><path fill="none" stroke="none"></path><text fill="#000000" stroke="none" font-family="Arial" font-size="11px" font-style="normal" font-weight="bold" text-decoration="none" x="570" y="381.5">UMLStatechartDiagram</text></g></g><g transform="translate(-54,-58) scale(1,1)"><rect fill="#C0C0C0" stroke="none" x="138" y="211" width="124" height="43" opacity="0.2"></rect></g><g transform="translate(-54,-58) scale(1,1)"><rect fill="#FFFFFF" stroke="none" x="131" y="204" width="124" height="43"></rect></g><g transform="translate(-54,-58) scale(1,1)"><path fill="none" stroke="#000000" d="M 131 204 L 255 204 L 255 247 L 131 247 L 131 204 Z Z" stroke-miterlimit="10"></path></g><g transform="translate(-54,-58) scale(1,1)"><path fill="none" stroke="#000000" d="M 131 227 L 255 227" stroke-miterlimit="10"></path></g><g transform="translate(-54,-58) scale(1,1)"><g><path fill="none" stroke="none"></path><text fill="#000000" stroke="none" font-family="Arial" font-size="11px" font-style="normal" font-weight="bold" text-decoration="none" x="139.5" y="221.5">UMLPackageDiagram</text></g></g><g transform="translate(-54,-58) scale(1,1)"><path fill="none" stroke="#000000" d="M 255 436 L 316 436 L 316 184 L 364 184" stroke-miterlimit="10"></path></g><g transform="translate(-54,-58) scale(1,1)"><path fill="#FFFFFF" stroke="none" d="M 343.6746502847517 192.41903551203197 L 364 184 L 343.6746502847517 175.58096448796803"></path></g><g transform="translate(-54,-58) scale(1,1)"><path fill="none" stroke="#000000" d="M 343.6746502847517 192.41903551203197 L 364 184 L 343.6746502847517 175.58096448796803 L 343.6746502847517 192.41903551203197" stroke-miterlimit="10"></path></g><g transform="translate(-54,-58) scale(1,1)"><path fill="none" stroke="#000000" d="M 255 372 L 316 372 L 316 184 L 364 184" stroke-miterlimit="10"></path></g><g transform="translate(-54,-58) scale(1,1)"><path fill="#FFFFFF" stroke="none" d="M 343.6746502847517 192.41903551203197 L 364 184 L 343.6746502847517 175.58096448796803"></path></g><g transform="translate(-54,-58) scale(1,1)"><path fill="none" stroke="#000000" d="M 343.6746502847517 192.41903551203197 L 364 184 L 343.6746502847517 175.58096448796803 L 343.6746502847517 192.41903551203197" stroke-miterlimit="10"></path></g><g transform="translate(-54,-58) scale(1,1)"><path fill="none" stroke="#000000" d="M 255 292 L 316 292 L 316 184 L 364 184" stroke-miterlimit="10"></path></g><g transform="translate(-54,-58) scale(1,1)"><path fill="#FFFFFF" stroke="none" d="M 343.6746502847517 192.41903551203197 L 364 184 L 343.6746502847517 175.58096448796803"></path></g><g transform="translate(-54,-58) scale(1,1)"><path fill="none" stroke="#000000" d="M 343.6746502847517 192.41903551203197 L 364 184 L 343.6746502847517 175.58096448796803 L 343.6746502847517 192.41903551203197" stroke-miterlimit="10"></path></g><g transform="translate(-54,-58) scale(1,1)"><path fill="none" stroke="#000000" d="M 255 224 L 316 224 L 316 184 L 364 184" stroke-miterlimit="10"></path></g><g transform="translate(-54,-58) scale(1,1)"><path fill="#FFFFFF" stroke="none" d="M 343.6746502847517 192.41903551203197 L 364 184 L 343.6746502847517 175.58096448796803"></path></g><g transform="translate(-54,-58) scale(1,1)"><path fill="none" stroke="#000000" d="M 343.6746502847517 192.41903551203197 L 364 184 L 343.6746502847517 175.58096448796803 L 343.6746502847517 192.41903551203197" stroke-miterlimit="10"></path></g><g transform="translate(-54,-58) scale(1,1)"><path fill="none" stroke="#000000" d="M 255 152 L 316 152 L 316 184 L 364 184" stroke-miterlimit="10"></path></g><g transform="translate(-54,-58) scale(1,1)"><path fill="#FFFFFF" stroke="none" d="M 343.6746502847517 192.41903551203197 L 364 184 L 343.6746502847517 175.58096448796803"></path></g><g transform="translate(-54,-58) scale(1,1)"><path fill="none" stroke="#000000" d="M 343.6746502847517 192.41903551203197 L 364 184 L 343.6746502847517 175.58096448796803 L 343.6746502847517 192.41903551203197" stroke-miterlimit="10"></path></g><g transform="translate(-54,-58) scale(1,1)"><path fill="none" stroke="#000000" d="M 255 88 L 316 88 L 316 184 L 364 184" stroke-miterlimit="10"></path></g><g transform="translate(-54,-58) scale(1,1)"><path fill="#FFFFFF" stroke="none" d="M 343.6746502847517 192.41903551203197 L 364 184 L 343.6746502847517 175.58096448796803"></path></g><g transform="translate(-54,-58) scale(1,1)"><path fill="none" stroke="#000000" d="M 343.6746502847517 192.41903551203197 L 364 184 L 343.6746502847517 175.58096448796803 L 343.6746502847517 192.41903551203197" stroke-miterlimit="10"></path></g><g transform="translate(-54,-58) scale(1,1)"><path fill="none" stroke="#000000" d="M 560 168 L 516 168 L 516 192 L 468 192" stroke-miterlimit="10"></path></g><g transform="translate(-54,-58) scale(1,1)"><path fill="#FFFFFF" stroke="none" d="M 488.3253497152483 183.58096448796803 L 468 192 L 488.3253497152483 200.41903551203197"></path></g><g transform="translate(-54,-58) scale(1,1)"><path fill="none" stroke="#000000" d="M 488.3253497152483 183.58096448796803 L 468 192 L 488.3253497152483 200.41903551203197 L 488.3253497152483 183.58096448796803" stroke-miterlimit="10"></path></g><g transform="translate(-54,-58) scale(1,1)"><path fill="none" stroke="#000000" d="M 560 232 L 516 232 L 516 192 L 468 192" stroke-miterlimit="10"></path></g><g transform="translate(-54,-58) scale(1,1)"><path fill="#FFFFFF" stroke="none" d="M 488.3253497152483 183.58096448796803 L 468 192 L 488.3253497152483 200.41903551203197"></path></g><g transform="translate(-54,-58) scale(1,1)"><path fill="none" stroke="#000000" d="M 488.3253497152483 183.58096448796803 L 468 192 L 488.3253497152483 200.41903551203197 L 488.3253497152483 183.58096448796803" stroke-miterlimit="10"></path></g><g transform="translate(-54,-58) scale(1,1)"><path fill="none" stroke="#000000" d="M 560 324 L 516 324 L 516 192 L 468 192" stroke-miterlimit="10"></path></g><g transform="translate(-54,-58) scale(1,1)"><path fill="#FFFFFF" stroke="none" d="M 488.3253497152483 183.58096448796803 L 468 192 L 488.3253497152483 200.41903551203197"></path></g><g transform="translate(-54,-58) scale(1,1)"><path fill="none" stroke="#000000" d="M 488.3253497152483 183.58096448796803 L 468 192 L 488.3253497152483 200.41903551203197 L 488.3253497152483 183.58096448796803" stroke-miterlimit="10"></path></g><g transform="translate(-54,-58) scale(1,1)"><path fill="none" stroke="#000000" d="M 560 384 L 516 384 L 516 192 L 468 192" stroke-miterlimit="10"></path></g><g transform="translate(-54,-58) scale(1,1)"><path fill="#FFFFFF" stroke="none" d="M 488.3253497152483 183.58096448796803 L 468 192 L 488.3253497152483 200.41903551203197"></path></g><g transform="translate(-54,-58) scale(1,1)"><path fill="none" stroke="#000000" d="M 488.3253497152483 183.58096448796803 L 468 192 L 488.3253497152483 200.41903551203197 L 488.3253497152483 183.58096448796803" stroke-miterlimit="10"></path></g><g transform="translate(-54,-58) scale(1,1)"><rect fill="#C0C0C0" stroke="none" x="843" y="143" width="167" height="103" opacity="0.2"></rect></g><g transform="translate(-54,-58) scale(1,1)"><rect fill="#80FFFF" stroke="none" x="836" y="136" width="167" height="103"></rect></g><g transform="translate(-54,-58) scale(1,1)"><path fill="none" stroke="#000000" d="M 836 136 L 1003 136 L 1003 239 L 836 239 L 836 136 Z Z" stroke-miterlimit="10"></path></g><g transform="translate(-54,-58) scale(1,1)"><path fill="none" stroke="#000000" d="M 836 170 L 1003 170" stroke-miterlimit="10"></path></g><g transform="translate(-54,-58) scale(1,1)"><g><path fill="none" stroke="none"></path><text fill="#000000" stroke="none" font-family="Arial" font-size="11px" font-style="normal" font-weight="normal" text-decoration="none" x="883.5" y="151.5">«enumeration»</text></g></g><g transform="translate(-54,-58) scale(1,1)"><g><path fill="none" stroke="none"></path><text fill="#000000" stroke="none" font-family="Arial" font-size="11px" font-style="normal" font-weight="bold" text-decoration="none" x="852" y="164.5">UMLMessageSignatureKind</text></g></g><g transform="translate(-54,-58) scale(1,1)"><g><path fill="none" stroke="none"></path><text fill="#000000" stroke="none" font-family="Arial" font-size="11px" font-style="normal" font-weight="normal" text-decoration="none" x="841" y="185.5">none</text></g></g><g transform="translate(-54,-58) scale(1,1)"><g><path fill="none" stroke="none"></path><text fill="#000000" stroke="none" font-family="Arial" font-size="11px" font-style="normal" font-weight="normal" text-decoration="none" x="841" y="198.5">typeOnly</text></g></g><g transform="translate(-54,-58) scale(1,1)"><g><path fill="none" stroke="none"></path><text fill="#000000" stroke="none" font-family="Arial" font-size="11px" font-style="normal" font-weight="normal" text-decoration="none" x="841" y="211.5">nameOnly</text></g></g><g transform="translate(-54,-58) scale(1,1)"><g><path fill="none" stroke="none"></path><text fill="#000000" stroke="none" font-family="Arial" font-size="11px" font-style="normal" font-weight="normal" text-decoration="none" x="841" y="224.5">nameAndType</text></g></g><g transform="translate(-54,-58) scale(1,1)"><rect fill="#C0C0C0" stroke="none" x="567" y="75" width="127" height="43" opacity="0.2"></rect></g><g transform="translate(-54,-58) scale(1,1)"><rect fill="#FFFFFF" stroke="none" x="560" y="68" width="127" height="43"></rect></g><g transform="translate(-54,-58) scale(1,1)"><path fill="none" stroke="#000000" d="M 560 68 L 687 68 L 687 111 L 560 111 L 560 68 Z Z" stroke-miterlimit="10"></path></g><g transform="translate(-54,-58) scale(1,1)"><path fill="none" stroke="#000000" d="M 560 91 L 687 91" stroke-miterlimit="10"></path></g><g transform="translate(-54,-58) scale(1,1)"><g><path fill="none" stroke="none"></path><text fill="#000000" stroke="none" font-family="Arial" font-size="11px" font-style="normal" font-weight="bold" text-decoration="none" x="568.5" y="85.5">UMLUseCaseDiagram</text></g></g><g transform="translate(-54,-58) scale(1,1)"><path fill="none" stroke="#000000" d="M 560 89 L 516 89 L 516 192 L 468 192" stroke-miterlimit="10"></path></g><g transform="translate(-54,-58) scale(1,1)"><path fill="#FFFFFF" stroke="none" d="M 488.3253497152483 183.58096448796803 L 468 192 L 488.3253497152483 200.41903551203197"></path></g><g transform="translate(-54,-58) scale(1,1)"><path fill="none" stroke="#000000" d="M 488.3253497152483 183.58096448796803 L 468 192 L 488.3253497152483 200.41903551203197 L 488.3253497152483 183.58096448796803" stroke-miterlimit="10"></path></g><g transform="translate(-54,-58) scale(1,1)"><rect fill="#C0C0C0" stroke="none" x="147" y="495" width="114" height="43" opacity="0.2"></rect></g><g transform="translate(-54,-58) scale(1,1)"><rect fill="#FFFFFF" stroke="none" x="140" y="488" width="114" height="43"></rect></g><g transform="translate(-54,-58) scale(1,1)"><path fill="none" stroke="#000000" d="M 140 488 L 254 488 L 254 531 L 140 531 L 140 488 Z Z" stroke-miterlimit="10"></path></g><g transform="translate(-54,-58) scale(1,1)"><path fill="none" stroke="#000000" d="M 140 511 L 254 511" stroke-miterlimit="10"></path></g><g transform="translate(-54,-58) scale(1,1)"><g><path fill="none" stroke="none"></path><text fill="#000000" stroke="none" font-family="Arial" font-size="11px" font-style="normal" font-weight="bold" text-decoration="none" x="150" y="505.5">UMLProfileDiagram</text></g></g><g transform="translate(-54,-58) scale(1,1)"><path fill="none" stroke="#000000" d="M 254 508 L 316 508 L 316 184 L 364 184" stroke-miterlimit="10"></path></g><g transform="translate(-54,-58) scale(1,1)"><path fill="#FFFFFF" stroke="none" d="M 343.6746502847517 192.41903551203197 L 364 184 L 343.6746502847517 175.58096448796803"></path></g><g transform="translate(-54,-58) scale(1,1)"><path fill="none" stroke="#000000" d="M 343.6746502847517 192.41903551203197 L 364 184 L 343.6746502847517 175.58096448796803 L 343.6746502847517 192.41903551203197" stroke-miterlimit="10"></path></g></g></svg>