<svg version="1.1" xmlns="http://www.w3.org/2000/svg" xmlns:xlink="http://www.w3.org/1999/xlink" width="892" height="317"><defs></defs><g><g transform="translate(-18,-16) scale(1,1)"><rect fill="#C0C0C0" stroke="none" x="139" y="155" width="96" height="56" opacity="0.2"></rect></g><g transform="translate(-18,-16) scale(1,1)"><rect fill="#FFFFFF" stroke="none" x="132" y="148" width="96" height="56"></rect></g><g transform="translate(-18,-16) scale(1,1)"><path fill="none" stroke="#000000" d="M 132 148 L 228 148 L 228 204 L 132 204 L 132 148 Z Z" stroke-miterlimit="10"></path></g><g transform="translate(-18,-16) scale(1,1)"><path fill="none" stroke="#000000" d="M 132 171 L 228 171" stroke-miterlimit="10"></path></g><g transform="translate(-18,-16) scale(1,1)"><g><path fill="none" stroke="none"></path><text fill="#000000" stroke="none" font-family="Arial" font-size="11px" font-style="normal" font-weight="bold" text-decoration="none" x="147.5" y="165.5">UMLInstance</text></g></g><g transform="translate(-18,-16) scale(1,1)"><rect fill="#C0C0C0" stroke="none" x="291" y="287" width="145" height="43" opacity="0.2"></rect></g><g transform="translate(-18,-16) scale(1,1)"><rect fill="#FFFFFF" stroke="none" x="284" y="280" width="145" height="43"></rect></g><g transform="translate(-18,-16) scale(1,1)"><path fill="none" stroke="#000000" d="M 284 280 L 429 280 L 429 323 L 284 323 L 284 280 Z Z" stroke-miterlimit="10"></path></g><g transform="translate(-18,-16) scale(1,1)"><path fill="none" stroke="#000000" d="M 284 303 L 429 303" stroke-miterlimit="10"></path></g><g transform="translate(-18,-16) scale(1,1)"><g><path fill="none" stroke="none"></path><text fill="#000000" stroke="none" font-family="Arial" font-size="11px" font-style="normal" font-weight="bold" text-decoration="none" x="296" y="297.5">UMLComponentInstance</text></g></g><g transform="translate(-18,-16) scale(1,1)"><path fill="none" stroke="#000000" d="M 364 280 L 364 252 L 176 252 L 176 204" stroke-miterlimit="10"></path></g><g transform="translate(-18,-16) scale(1,1)"><path fill="#FFFFFF" stroke="none" d="M 184.41903551203197 224.3253497152483 L 176 204 L 167.58096448796803 224.3253497152483"></path></g><g transform="translate(-18,-16) scale(1,1)"><path fill="none" stroke="#000000" d="M 184.41903551203197 224.3253497152483 L 176 204 L 167.58096448796803 224.3253497152483 L 184.41903551203197 224.3253497152483" stroke-miterlimit="10"></path></g><g transform="translate(-18,-16) scale(1,1)"><rect fill="#C0C0C0" stroke="none" x="451" y="287" width="108" height="43" opacity="0.2"></rect></g><g transform="translate(-18,-16) scale(1,1)"><rect fill="#FFFFFF" stroke="none" x="444" y="280" width="108" height="43"></rect></g><g transform="translate(-18,-16) scale(1,1)"><path fill="none" stroke="#000000" d="M 444 280 L 552 280 L 552 323 L 444 323 L 444 280 Z Z" stroke-miterlimit="10"></path></g><g transform="translate(-18,-16) scale(1,1)"><path fill="none" stroke="#000000" d="M 444 303 L 552 303" stroke-miterlimit="10"></path></g><g transform="translate(-18,-16) scale(1,1)"><g><path fill="none" stroke="none"></path><text fill="#000000" stroke="none" font-family="Arial" font-size="11px" font-style="normal" font-weight="bold" text-decoration="none" x="452.5" y="297.5">UMLNodeInstance</text></g></g><g transform="translate(-18,-16) scale(1,1)"><path fill="none" stroke="#000000" d="M 480 280 L 480 252 L 176 252 L 176 204" stroke-miterlimit="10"></path></g><g transform="translate(-18,-16) scale(1,1)"><path fill="#FFFFFF" stroke="none" d="M 184.41903551203197 224.3253497152483 L 176 204 L 167.58096448796803 224.3253497152483"></path></g><g transform="translate(-18,-16) scale(1,1)"><path fill="none" stroke="#000000" d="M 184.41903551203197 224.3253497152483 L 176 204 L 167.58096448796803 224.3253497152483 L 184.41903551203197 224.3253497152483" stroke-miterlimit="10"></path></g><g transform="translate(-18,-16) scale(1,1)"><rect fill="#C0C0C0" stroke="none" x="303" y="155" width="79" height="57" opacity="0.2"></rect></g><g transform="translate(-18,-16) scale(1,1)"><rect fill="#FFFFFF" stroke="none" x="296" y="148" width="79" height="57"></rect></g><g transform="translate(-18,-16) scale(1,1)"><path fill="none" stroke="#000000" d="M 296 148 L 375 148 L 375 205 L 296 205 L 296 148 Z Z" stroke-miterlimit="10"></path></g><g transform="translate(-18,-16) scale(1,1)"><path fill="none" stroke="#000000" d="M 296 171 L 375 171" stroke-miterlimit="10"></path></g><g transform="translate(-18,-16) scale(1,1)"><g><path fill="none" stroke="none"></path><text fill="#000000" stroke="none" font-family="Arial" font-size="11px" font-style="normal" font-weight="bold" text-decoration="none" x="315" y="165.5">UMLSlot</text></g></g><g transform="translate(-18,-16) scale(1,1)"><g><path fill="none" stroke="none"></path><text fill="#000000" stroke="none" font-family="Arial" font-size="11px" font-style="normal" font-weight="normal" text-decoration="none" x="301" y="186.5">+value: String</text></g></g><g transform="translate(-18,-16) scale(1,1)"><path fill="none" stroke="#000000" d="M 296 187 L 228 187" stroke-miterlimit="10"></path></g><g transform="translate(-18,-16) scale(1,1)"><path fill="#000000" stroke="none" d="M 238.16267485762415 182.790482243984 L 228 187 L 238.16267485762415 191.209517756016 L 250 187"></path></g><g transform="translate(-18,-16) scale(1,1)"><path fill="none" stroke="#000000" d="M 238.16267485762415 182.790482243984 L 228 187 L 238.16267485762415 191.209517756016 L 250 187 L 238.16267485762415 182.790482243984" stroke-miterlimit="10"></path></g><g transform="translate(-18,-16) scale(1,1)"><g><path fill="none" stroke="none"></path><text fill="#000000" stroke="none" font-family="Arial" font-size="11px" font-style="normal" font-weight="normal" text-decoration="none" x="256" y="208">+slots</text></g></g><g transform="translate(-18,-16) scale(1,1)"><g><path fill="none" stroke="none"></path><text fill="#000000" stroke="none" font-family="Arial" font-size="11px" font-style="normal" font-weight="normal" text-decoration="none" x="266" y="180">0..*</text></g></g><g transform="translate(-18,-16) scale(1,1)"><rect fill="#C0C0C0" stroke="none" x="187" y="287" width="86" height="43" opacity="0.2"></rect></g><g transform="translate(-18,-16) scale(1,1)"><rect fill="#FFFFFF" stroke="none" x="180" y="280" width="86" height="43"></rect></g><g transform="translate(-18,-16) scale(1,1)"><path fill="none" stroke="#000000" d="M 180 280 L 266 280 L 266 323 L 180 323 L 180 280 Z Z" stroke-miterlimit="10"></path></g><g transform="translate(-18,-16) scale(1,1)"><path fill="none" stroke="#000000" d="M 180 303 L 266 303" stroke-miterlimit="10"></path></g><g transform="translate(-18,-16) scale(1,1)"><g><path fill="none" stroke="none"></path><text fill="#000000" stroke="none" font-family="Arial" font-size="11px" font-style="normal" font-weight="bold" text-decoration="none" x="195.5" y="297.5">UMLObject</text></g></g><g transform="translate(-18,-16) scale(1,1)"><path fill="none" stroke="#000000" d="M 220 280 L 220 252 L 176 252 L 176 204" stroke-miterlimit="10"></path></g><g transform="translate(-18,-16) scale(1,1)"><path fill="#FFFFFF" stroke="none" d="M 184.41903551203197 224.3253497152483 L 176 204 L 167.58096448796803 224.3253497152483"></path></g><g transform="translate(-18,-16) scale(1,1)"><path fill="none" stroke="#000000" d="M 184.41903551203197 224.3253497152483 L 176 204 L 167.58096448796803 224.3253497152483 L 184.41903551203197 224.3253497152483" stroke-miterlimit="10"></path></g><g transform="translate(-18,-16) scale(1,1)"><rect fill="#C0C0C0" stroke="none" x="371" y="67" width="136" height="36" opacity="0.2"></rect></g><g transform="translate(-18,-16) scale(1,1)"><rect fill="#C0C0C0" stroke="none" x="364" y="60" width="136" height="36"></rect></g><g transform="translate(-18,-16) scale(1,1)"><path fill="none" stroke="#000000" d="M 364 60 L 500 60 L 500 96 L 364 96 L 364 60 Z Z" stroke-miterlimit="10"></path></g><g transform="translate(-18,-16) scale(1,1)"><g><path fill="none" stroke="none"></path><text fill="#000000" stroke="none" font-family="Arial" font-size="11px" font-style="normal" font-weight="bold" text-decoration="none" x="378" y="77.5">UMLStructuralFeature</text></g></g><g transform="translate(-18,-16) scale(1,1)"><path fill="none" stroke="#000000" d="M 375 184 L 444 184 L 444 96" stroke-miterlimit="10"></path></g><g transform="translate(-18,-16) scale(1,1)"><path fill="none" stroke="#000000" d="M 448.209517756016 106.16267485762415 L 444 96 L 439.790482243984 106.16267485762415" stroke-miterlimit="10"></path></g><g transform="translate(-18,-16) scale(1,1)"><g><path fill="none" stroke="none"></path><text fill="#000000" stroke="none" font-family="Arial" font-size="11px" font-style="normal" font-weight="normal" text-decoration="none" x="357" y="116">+definingFeature</text></g></g><g transform="translate(-18,-16) scale(1,1)"><g><path fill="none" stroke="none"></path><text fill="#000000" stroke="none" font-family="Arial" font-size="11px" font-style="normal" font-weight="normal" text-decoration="none" x="452" y="115">0..1</text></g></g><g transform="translate(-18,-16) scale(1,1)"><rect fill="#C0C0C0" stroke="none" x="180" y="33" width="139" height="34" opacity="0.2"></rect></g><g transform="translate(-18,-16) scale(1,1)"><rect fill="#C0C0C0" stroke="none" x="173" y="26" width="139" height="34"></rect></g><g transform="translate(-18,-16) scale(1,1)"><path fill="none" stroke="#000000" d="M 173 26 L 312 26 L 312 60 L 173 60 L 173 26 Z Z" stroke-miterlimit="10"></path></g><g transform="translate(-18,-16) scale(1,1)"><g><path fill="none" stroke="none"></path><text fill="#000000" stroke="none" font-family="Arial" font-size="11px" font-style="normal" font-weight="bold" text-decoration="none" x="197" y="43.5">UMLModelElement</text></g></g><g transform="translate(-18,-16) scale(1,1)"><path fill="none" stroke="#000000" d="M 184 148 L 184 120 L 240 120 L 240 60" stroke-miterlimit="10"></path></g><g transform="translate(-18,-16) scale(1,1)"><path fill="#FFFFFF" stroke="none" d="M 248.41903551203197 80.32534971524831 L 240 60 L 231.58096448796803 80.32534971524831"></path></g><g transform="translate(-18,-16) scale(1,1)"><path fill="none" stroke="#000000" d="M 248.41903551203197 80.32534971524831 L 240 60 L 231.58096448796803 80.32534971524831 L 248.41903551203197 80.32534971524831" stroke-miterlimit="10"></path></g><g transform="translate(-18,-16) scale(1,1)"><path fill="none" stroke="#000000" d="M 332 148 L 332 120 L 240 120 L 240 60" stroke-miterlimit="10"></path></g><g transform="translate(-18,-16) scale(1,1)"><path fill="#FFFFFF" stroke="none" d="M 248.41903551203197 80.32534971524831 L 240 60 L 231.58096448796803 80.32534971524831"></path></g><g transform="translate(-18,-16) scale(1,1)"><path fill="none" stroke="#000000" d="M 248.41903551203197 80.32534971524831 L 240 60 L 231.58096448796803 80.32534971524831 L 248.41903551203197 80.32534971524831" stroke-miterlimit="10"></path></g><g transform="translate(-18,-16) scale(1,1)"><rect fill="#C0C0C0" stroke="none" x="583" y="131" width="121" height="89" opacity="0.2"></rect></g><g transform="translate(-18,-16) scale(1,1)"><rect fill="#FFFFFF" stroke="none" x="576" y="124" width="121" height="89"></rect></g><g transform="translate(-18,-16) scale(1,1)"><path fill="none" stroke="#000000" d="M 576 124 L 697 124 L 697 213 L 576 213 L 576 124 Z Z" stroke-miterlimit="10"></path></g><g transform="translate(-18,-16) scale(1,1)"><path fill="none" stroke="#000000" d="M 576 147 L 697 147" stroke-miterlimit="10"></path></g><g transform="translate(-18,-16) scale(1,1)"><g><path fill="none" stroke="none"></path><text fill="#000000" stroke="none" font-family="Arial" font-size="11px" font-style="normal" font-weight="bold" text-decoration="none" x="615" y="141.5">UMLLink</text></g></g><g transform="translate(-18,-16) scale(1,1)"><path fill="none" stroke="#000000" d="M 632 124 L 632 69" stroke-miterlimit="10"></path></g><g transform="translate(-18,-16) scale(1,1)"><path fill="#FFFFFF" stroke="none" d="M 640.419035512032 89.32534971524831 L 632 69 L 623.580964487968 89.32534971524831"></path></g><g transform="translate(-18,-16) scale(1,1)"><path fill="none" stroke="#000000" d="M 640.419035512032 89.32534971524831 L 632 69 L 623.580964487968 89.32534971524831 L 640.419035512032 89.32534971524831" stroke-miterlimit="10"></path></g><g transform="translate(-18,-16) scale(1,1)"><path fill="#FFFFFF" stroke="none" d="M 740 284 L 889 284 L 899 294 L 899 318 L 740 318 L 740 284"></path></g><g transform="translate(-18,-16) scale(1,1)"><path fill="none" stroke="#000000" d="M 740 284 L 889 284 L 899 294 L 899 318 L 740 318 L 740 284 L 740 284" stroke-miterlimit="10"></path></g><g transform="translate(-18,-16) scale(1,1)"><path fill="none" stroke="#000000" d="M 889 284 L 889 294 L 899 294 L 889 284" stroke-miterlimit="10"></path></g><g transform="translate(-18,-16) scale(1,1)"><g><path fill="none" stroke="none"></path><text fill="#000000" stroke="none" font-family="Arial" font-size="11px" font-style="normal" font-weight="normal" text-decoration="none" x="745" y="300">connects between Instances</text></g></g><g transform="translate(-18,-16) scale(1,1)"><g><path fill="none" stroke="none"></path><text fill="#000000" stroke="none" font-family="Arial" font-size="11px" font-style="normal" font-weight="normal" text-decoration="none" x="745" y="313"></text></g></g><g transform="translate(-18,-16) scale(1,1)"><path fill="none" stroke="#000000" d="M 698 212.81521739130434 L 795.0977443609022 283" stroke-miterlimit="10" stroke-dasharray="3"></path></g><g transform="translate(-18,-16) scale(1,1)"><rect fill="#C0C0C0" stroke="none" x="43" y="287" width="120" height="43" opacity="0.2"></rect></g><g transform="translate(-18,-16) scale(1,1)"><rect fill="#FFFFFF" stroke="none" x="36" y="280" width="120" height="43"></rect></g><g transform="translate(-18,-16) scale(1,1)"><path fill="none" stroke="#000000" d="M 36 280 L 156 280 L 156 323 L 36 323 L 36 280 Z Z" stroke-miterlimit="10"></path></g><g transform="translate(-18,-16) scale(1,1)"><path fill="none" stroke="#000000" d="M 36 303 L 156 303" stroke-miterlimit="10"></path></g><g transform="translate(-18,-16) scale(1,1)"><g><path fill="none" stroke="none"></path><text fill="#000000" stroke="none" font-family="Arial" font-size="11px" font-style="normal" font-weight="bold" text-decoration="none" x="46.5" y="297.5">UMLArtifactInstance</text></g></g><g transform="translate(-18,-16) scale(1,1)"><path fill="none" stroke="#000000" d="M 96 280 L 96 252 L 176 252 L 176 204" stroke-miterlimit="10"></path></g><g transform="translate(-18,-16) scale(1,1)"><path fill="#FFFFFF" stroke="none" d="M 184.41903551203197 224.3253497152483 L 176 204 L 167.58096448796803 224.3253497152483"></path></g><g transform="translate(-18,-16) scale(1,1)"><path fill="none" stroke="#000000" d="M 184.41903551203197 224.3253497152483 L 176 204 L 167.58096448796803 224.3253497152483 L 184.41903551203197 224.3253497152483" stroke-miterlimit="10"></path></g><g transform="translate(-18,-16) scale(1,1)"><rect fill="#C0C0C0" stroke="none" x="587" y="283" width="116" height="36" opacity="0.2"></rect></g><g transform="translate(-18,-16) scale(1,1)"><rect fill="#C0C0C0" stroke="none" x="580" y="276" width="116" height="36"></rect></g><g transform="translate(-18,-16) scale(1,1)"><path fill="none" stroke="#000000" d="M 580 276 L 696 276 L 696 312 L 580 312 L 580 276 Z Z" stroke-miterlimit="10"></path></g><g transform="translate(-18,-16) scale(1,1)"><g><path fill="none" stroke="none"></path><text fill="#000000" stroke="none" font-family="Arial" font-size="11px" font-style="normal" font-weight="bold" text-decoration="none" x="598.5" y="293.5">UMLAssociation</text></g></g><g transform="translate(-18,-16) scale(1,1)"><path fill="none" stroke="#000000" d="M 636 213 L 636 276" stroke-miterlimit="10"></path></g><g transform="translate(-18,-16) scale(1,1)"><path fill="none" stroke="#000000" d="M 631.790482243984 265.83732514237585 L 636 276 L 640.209517756016 265.83732514237585" stroke-miterlimit="10"></path></g><g transform="translate(-18,-16) scale(1,1)"><g><path fill="none" stroke="none"></path><text fill="#000000" stroke="none" font-family="Arial" font-size="11px" font-style="normal" font-weight="normal" text-decoration="none" x="643" y="267">+association</text></g></g><g transform="translate(-18,-16) scale(1,1)"><g><path fill="none" stroke="none"></path><text fill="#000000" stroke="none" font-family="Arial" font-size="11px" font-style="normal" font-weight="normal" text-decoration="none" x="610" y="267">0..1</text></g></g><g transform="translate(-18,-16) scale(1,1)"><rect fill="#C0C0C0" stroke="none" x="35" y="55" width="110" height="40" opacity="0.2"></rect></g><g transform="translate(-18,-16) scale(1,1)"><rect fill="#C0C0C0" stroke="none" x="28" y="48" width="110" height="40"></rect></g><g transform="translate(-18,-16) scale(1,1)"><path fill="none" stroke="#000000" d="M 28 48 L 138 48 L 138 88 L 28 88 L 28 48 Z Z" stroke-miterlimit="10"></path></g><g transform="translate(-18,-16) scale(1,1)"><g><path fill="none" stroke="none"></path><text fill="#000000" stroke="none" font-family="Arial" font-size="11px" font-style="normal" font-weight="bold" text-decoration="none" x="49" y="65.5">UMLClassifier</text></g></g><g transform="translate(-18,-16) scale(1,1)"><path fill="none" stroke="#000000" d="M 132 176 L 92 176 L 92 88" stroke-miterlimit="10"></path></g><g transform="translate(-18,-16) scale(1,1)"><path fill="none" stroke="#000000" d="M 96.20951775601598 98.16267485762415 L 92 88 L 87.79048224398402 98.16267485762415" stroke-miterlimit="10"></path></g><g transform="translate(-18,-16) scale(1,1)"><g><path fill="none" stroke="none"></path><text fill="#000000" stroke="none" font-family="Arial" font-size="11px" font-style="normal" font-weight="normal" text-decoration="none" x="38" y="104">+classifier</text></g></g><g transform="translate(-18,-16) scale(1,1)"><g><path fill="none" stroke="none"></path><text fill="#000000" stroke="none" font-family="Arial" font-size="11px" font-style="normal" font-weight="normal" text-decoration="none" x="100" y="104">0..1</text></g></g><g transform="translate(-18,-16) scale(1,1)"><rect fill="#C0C0C0" stroke="none" x="755" y="47" width="128" height="31" opacity="0.2"></rect></g><g transform="translate(-18,-16) scale(1,1)"><rect fill="#C0C0C0" stroke="none" x="748" y="40" width="128" height="31"></rect></g><g transform="translate(-18,-16) scale(1,1)"><path fill="none" stroke="#000000" d="M 748 40 L 876 40 L 876 71 L 748 71 L 748 40 Z Z" stroke-miterlimit="10"></path></g><g transform="translate(-18,-16) scale(1,1)"><g><path fill="none" stroke="none"></path><text fill="#000000" stroke="none" font-family="Arial" font-size="11px" font-style="normal" font-weight="bold" text-decoration="none" x="761.5" y="57.5">UMLRelationshipEnd</text></g></g><g transform="translate(-18,-16) scale(1,1)"><rect fill="#C0C0C0" stroke="none" x="567" y="47" width="161" height="29" opacity="0.2"></rect></g><g transform="translate(-18,-16) scale(1,1)"><rect fill="#C0C0C0" stroke="none" x="560" y="40" width="161" height="29"></rect></g><g transform="translate(-18,-16) scale(1,1)"><path fill="none" stroke="#000000" d="M 560 40 L 721 40 L 721 69 L 560 69 L 560 40 Z Z" stroke-miterlimit="10"></path></g><g transform="translate(-18,-16) scale(1,1)"><g><path fill="none" stroke="none"></path><text fill="#000000" stroke="none" font-family="Arial" font-size="11px" font-style="normal" font-weight="bold" text-decoration="none" x="573" y="57.5">UMLUndirectedRelationship</text></g></g><g transform="translate(-18,-16) scale(1,1)"><rect fill="#C0C0C0" stroke="none" x="767" y="131" width="104" height="88" opacity="0.2"></rect></g><g transform="translate(-18,-16) scale(1,1)"><rect fill="#FFFFFF" stroke="none" x="760" y="124" width="104" height="88"></rect></g><g transform="translate(-18,-16) scale(1,1)"><path fill="none" stroke="#000000" d="M 760 124 L 864 124 L 864 212 L 760 212 L 760 124 Z Z" stroke-miterlimit="10"></path></g><g transform="translate(-18,-16) scale(1,1)"><path fill="none" stroke="#000000" d="M 760 147 L 864 147" stroke-miterlimit="10"></path></g><g transform="translate(-18,-16) scale(1,1)"><g><path fill="none" stroke="none"></path><text fill="#000000" stroke="none" font-family="Arial" font-size="11px" font-style="normal" font-weight="bold" text-decoration="none" x="781" y="141.5">UMLLinkEnd</text></g></g><g transform="translate(-18,-16) scale(1,1)"><path fill="none" stroke="#000000" d="M 809 124 L 809 71" stroke-miterlimit="10"></path></g><g transform="translate(-18,-16) scale(1,1)"><path fill="#FFFFFF" stroke="none" d="M 817.419035512032 91.32534971524831 L 809 71 L 800.580964487968 91.32534971524831"></path></g><g transform="translate(-18,-16) scale(1,1)"><path fill="none" stroke="#000000" d="M 817.419035512032 91.32534971524831 L 809 71 L 800.580964487968 91.32534971524831 L 817.419035512032 91.32534971524831" stroke-miterlimit="10"></path></g><g transform="translate(-18,-16) scale(1,1)"><path fill="none" stroke="#000000" d="M 760 192 L 697 192" stroke-miterlimit="10"></path></g><g transform="translate(-18,-16) scale(1,1)"><path fill="#000000" stroke="none" d="M 707.1626748576241 187.790482243984 L 697 192 L 707.1626748576241 196.209517756016 L 719 192"></path></g><g transform="translate(-18,-16) scale(1,1)"><path fill="none" stroke="#000000" d="M 707.1626748576241 187.790482243984 L 697 192 L 707.1626748576241 196.209517756016 L 719 192 L 707.1626748576241 187.790482243984" stroke-miterlimit="10"></path></g><g transform="translate(-18,-16) scale(1,1)"><g><path fill="none" stroke="none"></path><text fill="#000000" stroke="none" font-family="Arial" font-size="11px" font-style="normal" font-weight="normal" text-decoration="none" x="719" y="213">+end2</text></g></g><g transform="translate(-18,-16) scale(1,1)"><g><path fill="none" stroke="none"></path><text fill="#000000" stroke="none" font-family="Arial" font-size="11px" font-style="normal" font-weight="normal" text-decoration="none" x="735" y="185">1</text></g></g><g transform="translate(-18,-16) scale(1,1)"><path fill="none" stroke="#000000" d="M 760 136 L 697 136" stroke-miterlimit="10"></path></g><g transform="translate(-18,-16) scale(1,1)"><path fill="#000000" stroke="none" d="M 707.1626748576241 131.790482243984 L 697 136 L 707.1626748576241 140.209517756016 L 719 136"></path></g><g transform="translate(-18,-16) scale(1,1)"><path fill="none" stroke="#000000" d="M 707.1626748576241 131.790482243984 L 697 136 L 707.1626748576241 140.209517756016 L 719 136 L 707.1626748576241 131.790482243984" stroke-miterlimit="10"></path></g><g transform="translate(-18,-16) scale(1,1)"><g><path fill="none" stroke="none"></path><text fill="#000000" stroke="none" font-family="Arial" font-size="11px" font-style="normal" font-weight="normal" text-decoration="none" x="719" y="157">+end1</text></g></g><g transform="translate(-18,-16) scale(1,1)"><g><path fill="none" stroke="none"></path><text fill="#000000" stroke="none" font-family="Arial" font-size="11px" font-style="normal" font-weight="normal" text-decoration="none" x="735" y="129">1</text></g></g></g></svg>