<svg version="1.1" xmlns="http://www.w3.org/2000/svg" xmlns:xlink="http://www.w3.org/1999/xlink" width="1159" height="693"><defs></defs><g><g transform="translate(-6,2) scale(1,1)"><rect fill="#C0C0C0" stroke="none" x="27" y="203" width="210" height="84" opacity="0.2"></rect></g><g transform="translate(-6,2) scale(1,1)"><rect fill="#FFFFFF" stroke="none" x="20" y="196" width="210" height="84"></rect></g><g transform="translate(-6,2) scale(1,1)"><path fill="none" stroke="#000000" d="M 20 196 L 230 196 L 230 280 L 20 280 L 20 196 Z Z" stroke-miterlimit="10"></path></g><g transform="translate(-6,2) scale(1,1)"><path fill="none" stroke="#000000" d="M 20 219 L 230 219" stroke-miterlimit="10"></path></g><g transform="translate(-6,2) scale(1,1)"><g><path fill="none" stroke="none"></path><text fill="#000000" stroke="none" font-family="Arial" font-size="11px" font-style="normal" font-weight="bold" text-decoration="none" x="91" y="213.5">UMLMessage</text></g></g><g transform="translate(-6,2) scale(1,1)"><g><path fill="none" stroke="none"></path><text fill="#000000" stroke="none" font-family="Arial" font-size="11px" font-style="normal" font-weight="normal" text-decoration="none" x="25" y="234.5">+messageSort: UMLMessageSort</text></g></g><g transform="translate(-6,2) scale(1,1)"><g><path fill="none" stroke="none"></path><text fill="#000000" stroke="none" font-family="Arial" font-size="11px" font-style="normal" font-weight="normal" text-decoration="none" x="25" y="247.5">+arguments: String</text></g></g><g transform="translate(-6,2) scale(1,1)"><g><path fill="none" stroke="none"></path><text fill="#000000" stroke="none" font-family="Arial" font-size="11px" font-style="normal" font-weight="normal" text-decoration="none" x="25" y="260.5">+assignmentTarget: String</text></g></g><g transform="translate(-6,2) scale(1,1)"><path fill="none" stroke="#000000" d="M 230 244 L 468 244" stroke-miterlimit="10"></path></g><g transform="translate(-6,2) scale(1,1)"><path fill="#000000" stroke="none" d="M 457.83732514237585 248.209517756016 L 468 244 L 457.83732514237585 239.790482243984 L 446 244"></path></g><g transform="translate(-6,2) scale(1,1)"><path fill="none" stroke="#000000" d="M 457.83732514237585 248.209517756016 L 468 244 L 457.83732514237585 239.790482243984 L 446 244 L 457.83732514237585 248.209517756016" stroke-miterlimit="10"></path></g><g transform="translate(-6,2) scale(1,1)"><g><path fill="none" stroke="none"></path><text fill="#000000" stroke="none" font-family="Arial" font-size="11px" font-style="normal" font-weight="normal" text-decoration="none" x="238" y="235">+messages</text></g></g><g transform="translate(-6,2) scale(1,1)"><g><path fill="none" stroke="none"></path><text fill="#000000" stroke="none" font-family="Arial" font-size="11px" font-style="normal" font-weight="normal" text-decoration="none" x="241" y="262">*</text></g></g><g transform="translate(-6,2) scale(1,1)"><path fill="none" stroke="#000000" d="M 68 280 L 68 372" stroke-miterlimit="10"></path></g><g transform="translate(-6,2) scale(1,1)"><path fill="none" stroke="#000000" d="M 63.790482243984016 361.83732514237585 L 68 372 L 72.20951775601598 361.83732514237585" stroke-miterlimit="10"></path></g><g transform="translate(-6,2) scale(1,1)"><g><path fill="none" stroke="none"></path><text fill="#000000" stroke="none" font-family="Arial" font-size="11px" font-style="normal" font-weight="normal" text-decoration="none" x="79" y="363">+connector</text></g></g><g transform="translate(-6,2) scale(1,1)"><g><path fill="none" stroke="none"></path><text fill="#000000" stroke="none" font-family="Arial" font-size="11px" font-style="normal" font-weight="normal" text-decoration="none" x="46" y="360">0..1</text></g></g><g transform="translate(-6,2) scale(1,1)"><rect fill="#C0C0C0" stroke="none" x="355" y="131" width="188" height="43" opacity="0.2"></rect></g><g transform="translate(-6,2) scale(1,1)"><rect fill="#FFFFFF" stroke="none" x="348" y="124" width="188" height="43"></rect></g><g transform="translate(-6,2) scale(1,1)"><path fill="none" stroke="#000000" d="M 348 124 L 536 124 L 536 167 L 348 167 L 348 124 Z Z" stroke-miterlimit="10"></path></g><g transform="translate(-6,2) scale(1,1)"><path fill="none" stroke="#000000" d="M 348 147 L 536 147" stroke-miterlimit="10"></path></g><g transform="translate(-6,2) scale(1,1)"><g><path fill="none" stroke="none"></path><text fill="#000000" stroke="none" font-family="Arial" font-size="11px" font-style="normal" font-weight="bold" text-decoration="none" x="381.5" y="141.5">UMLInteractionFragment</text></g></g><g transform="translate(-6,2) scale(1,1)"><rect fill="#C0C0C0" stroke="none" x="243" y="343" width="139" height="47" opacity="0.2"></rect></g><g transform="translate(-6,2) scale(1,1)"><rect fill="#FFFFFF" stroke="none" x="236" y="336" width="139" height="47"></rect></g><g transform="translate(-6,2) scale(1,1)"><path fill="none" stroke="#000000" d="M 236 336 L 375 336 L 375 383 L 236 383 L 236 336 Z Z" stroke-miterlimit="10"></path></g><g transform="translate(-6,2) scale(1,1)"><path fill="none" stroke="#000000" d="M 236 359 L 375 359" stroke-miterlimit="10"></path></g><g transform="translate(-6,2) scale(1,1)"><g><path fill="none" stroke="none"></path><text fill="#000000" stroke="none" font-family="Arial" font-size="11px" font-style="normal" font-weight="bold" text-decoration="none" x="247" y="353.5">UMLInteractionOperand</text></g></g><g transform="translate(-6,2) scale(1,1)"><g><path fill="none" stroke="none"></path><text fill="#000000" stroke="none" font-family="Arial" font-size="11px" font-style="normal" font-weight="normal" text-decoration="none" x="241" y="374.5">+guard: String</text></g></g><g transform="translate(-6,2) scale(1,1)"><rect fill="#C0C0C0" stroke="none" x="299" y="407" width="260" height="47" opacity="0.2"></rect></g><g transform="translate(-6,2) scale(1,1)"><rect fill="#FFFFFF" stroke="none" x="292" y="400" width="260" height="47"></rect></g><g transform="translate(-6,2) scale(1,1)"><path fill="none" stroke="#000000" d="M 292 400 L 552 400 L 552 447 L 292 447 L 292 400 Z Z" stroke-miterlimit="10"></path></g><g transform="translate(-6,2) scale(1,1)"><path fill="none" stroke="#000000" d="M 292 423 L 552 423" stroke-miterlimit="10"></path></g><g transform="translate(-6,2) scale(1,1)"><g><path fill="none" stroke="none"></path><text fill="#000000" stroke="none" font-family="Arial" font-size="11px" font-style="normal" font-weight="bold" text-decoration="none" x="362.5" y="417.5">UMLCombinedFragment</text></g></g><g transform="translate(-6,2) scale(1,1)"><g><path fill="none" stroke="none"></path><text fill="#000000" stroke="none" font-family="Arial" font-size="11px" font-style="normal" font-weight="normal" text-decoration="none" x="297" y="438.5">+interactionOperator: UMLInteractionOperatorKind</text></g></g><g transform="translate(-6,2) scale(1,1)"><path fill="none" stroke="#000000" d="M 305 336 L 305 304 L 388 304 L 388 167" stroke-miterlimit="10"></path></g><g transform="translate(-6,2) scale(1,1)"><path fill="#FFFFFF" stroke="none" d="M 396.419035512032 187.3253497152483 L 388 167 L 379.580964487968 187.3253497152483"></path></g><g transform="translate(-6,2) scale(1,1)"><path fill="none" stroke="#000000" d="M 396.419035512032 187.3253497152483 L 388 167 L 379.580964487968 187.3253497152483 L 396.419035512032 187.3253497152483" stroke-miterlimit="10"></path></g><g transform="translate(-6,2) scale(1,1)"><path fill="none" stroke="#000000" d="M 456 400 L 456 304 L 388 304 L 388 167" stroke-miterlimit="10"></path></g><g transform="translate(-6,2) scale(1,1)"><path fill="#FFFFFF" stroke="none" d="M 396.419035512032 187.3253497152483 L 388 167 L 379.580964487968 187.3253497152483"></path></g><g transform="translate(-6,2) scale(1,1)"><path fill="none" stroke="#000000" d="M 396.419035512032 187.3253497152483 L 388 167 L 379.580964487968 187.3253497152483 L 396.419035512032 187.3253497152483" stroke-miterlimit="10"></path></g><g transform="translate(-6,2) scale(1,1)"><path fill="none" stroke="#000000" d="M 444 124 L 444 87" stroke-miterlimit="10"></path></g><g transform="translate(-6,2) scale(1,1)"><path fill="#FFFFFF" stroke="none" d="M 452.419035512032 107.32534971524831 L 444 87 L 435.580964487968 107.32534971524831"></path></g><g transform="translate(-6,2) scale(1,1)"><path fill="none" stroke="#000000" d="M 452.419035512032 107.32534971524831 L 444 87 L 435.580964487968 107.32534971524831 L 452.419035512032 107.32534971524831" stroke-miterlimit="10"></path></g><g transform="translate(-6,2) scale(1,1)"><rect fill="#C0C0C0" stroke="none" x="475" y="225" width="228" height="62" opacity="0.2"></rect></g><g transform="translate(-6,2) scale(1,1)"><rect fill="#FFFFFF" stroke="none" x="468" y="218" width="228" height="62"></rect></g><g transform="translate(-6,2) scale(1,1)"><path fill="none" stroke="#000000" d="M 468 218 L 696 218 L 696 280 L 468 280 L 468 218 Z Z" stroke-miterlimit="10"></path></g><g transform="translate(-6,2) scale(1,1)"><path fill="none" stroke="#000000" d="M 468 241 L 696 241" stroke-miterlimit="10"></path></g><g transform="translate(-6,2) scale(1,1)"><g><path fill="none" stroke="none"></path><text fill="#000000" stroke="none" font-family="Arial" font-size="11px" font-style="normal" font-weight="bold" text-decoration="none" x="545" y="235.5">UMLInteraction</text></g></g><g transform="translate(-6,2) scale(1,1)"><rect fill="#C0C0C0" stroke="none" x="623" y="19" width="132" height="36" opacity="0.2"></rect></g><g transform="translate(-6,2) scale(1,1)"><rect fill="#C0C0C0" stroke="none" x="616" y="12" width="132" height="36"></rect></g><g transform="translate(-6,2) scale(1,1)"><path fill="none" stroke="#000000" d="M 616 12 L 748 12 L 748 48 L 616 48 L 616 12 Z Z" stroke-miterlimit="10"></path></g><g transform="translate(-6,2) scale(1,1)"><g><path fill="none" stroke="none"></path><text fill="#000000" stroke="none" font-family="Arial" font-size="11px" font-style="normal" font-weight="bold" text-decoration="none" x="636.5" y="29.5">UMLModelElement</text></g></g><g transform="translate(-6,2) scale(1,1)"><path fill="none" stroke="#000000" d="M 484 218 L 484 167" stroke-miterlimit="10"></path></g><g transform="translate(-6,2) scale(1,1)"><path fill="#FFFFFF" stroke="none" d="M 492.419035512032 187.3253497152483 L 484 167 L 475.580964487968 187.3253497152483"></path></g><g transform="translate(-6,2) scale(1,1)"><path fill="none" stroke="#000000" d="M 492.419035512032 187.3253497152483 L 484 167 L 475.580964487968 187.3253497152483 L 492.419035512032 187.3253497152483" stroke-miterlimit="10"></path></g><g transform="translate(-6,2) scale(1,1)"><path fill="none" stroke="#000000" d="M 536 149 L 572 149 L 572 218" stroke-miterlimit="10"></path></g><g transform="translate(-6,2) scale(1,1)"><path fill="#000000" stroke="none" d="M 567.790482243984 207.83732514237585 L 572 218 L 576.209517756016 207.83732514237585 L 572 196"></path></g><g transform="translate(-6,2) scale(1,1)"><path fill="none" stroke="#000000" d="M 567.790482243984 207.83732514237585 L 572 218 L 576.209517756016 207.83732514237585 L 572 196 L 567.790482243984 207.83732514237585" stroke-miterlimit="10"></path></g><g transform="translate(-6,2) scale(1,1)"><g><path fill="none" stroke="none"></path><text fill="#000000" stroke="none" font-family="Arial" font-size="11px" font-style="normal" font-weight="normal" text-decoration="none" x="544" y="139">+fragments</text></g></g><g transform="translate(-6,2) scale(1,1)"><g><path fill="none" stroke="none"></path><text fill="#000000" stroke="none" font-family="Arial" font-size="11px" font-style="normal" font-weight="normal" text-decoration="none" x="549" y="167">0..*</text></g></g><g transform="translate(-6,2) scale(1,1)"><path fill="none" stroke="#000000" d="M 375 348 L 428 348 L 428 400" stroke-miterlimit="10"></path></g><g transform="translate(-6,2) scale(1,1)"><path fill="#000000" stroke="none" d="M 423.790482243984 389.83732514237585 L 428 400 L 432.209517756016 389.83732514237585 L 428 378"></path></g><g transform="translate(-6,2) scale(1,1)"><path fill="none" stroke="#000000" d="M 423.790482243984 389.83732514237585 L 428 400 L 432.209517756016 389.83732514237585 L 428 378 L 423.790482243984 389.83732514237585" stroke-miterlimit="10"></path></g><g transform="translate(-6,2) scale(1,1)"><g><path fill="none" stroke="none"></path><text fill="#000000" stroke="none" font-family="Arial" font-size="11px" font-style="normal" font-weight="normal" text-decoration="none" x="380" y="339">+operands</text></g></g><g transform="translate(-6,2) scale(1,1)"><g><path fill="none" stroke="none"></path><text fill="#000000" stroke="none" font-family="Arial" font-size="11px" font-style="normal" font-weight="normal" text-decoration="none" x="388" y="366">0..*</text></g></g><g transform="translate(-6,2) scale(1,1)"><rect fill="#C0C0C0" stroke="none" x="27" y="379" width="124" height="48" opacity="0.2"></rect></g><g transform="translate(-6,2) scale(1,1)"><rect fill="#C0C0C0" stroke="none" x="20" y="372" width="124" height="48"></rect></g><g transform="translate(-6,2) scale(1,1)"><path fill="none" stroke="#000000" d="M 20 372 L 144 372 L 144 420 L 20 420 L 20 372 Z Z" stroke-miterlimit="10"></path></g><g transform="translate(-6,2) scale(1,1)"><g><path fill="none" stroke="none"></path><text fill="#000000" stroke="none" font-family="Arial" font-size="11px" font-style="normal" font-weight="bold" text-decoration="none" x="45" y="389.5">UMLConnector</text></g></g><g transform="translate(-6,2) scale(1,1)"><rect fill="#C0C0C0" stroke="none" x="839" y="135" width="188" height="56" opacity="0.2"></rect></g><g transform="translate(-6,2) scale(1,1)"><rect fill="#FFFFFF" stroke="none" x="832" y="128" width="188" height="56"></rect></g><g transform="translate(-6,2) scale(1,1)"><path fill="none" stroke="#000000" d="M 832 128 L 1020 128 L 1020 184 L 832 184 L 832 128 Z Z" stroke-miterlimit="10"></path></g><g transform="translate(-6,2) scale(1,1)"><path fill="none" stroke="#000000" d="M 832 151 L 1020 151" stroke-miterlimit="10"></path></g><g transform="translate(-6,2) scale(1,1)"><g><path fill="none" stroke="none"></path><text fill="#000000" stroke="none" font-family="Arial" font-size="11px" font-style="normal" font-weight="bold" text-decoration="none" x="898" y="145.5">UMLLifeline</text></g></g><g transform="translate(-6,2) scale(1,1)"><g><path fill="none" stroke="none"></path><text fill="#000000" stroke="none" font-family="Arial" font-size="11px" font-style="normal" font-weight="normal" text-decoration="none" x="837" y="166.5">+selector: String</text></g></g><g transform="translate(-6,2) scale(1,1)"><g><path fill="none" stroke="none"></path><text fill="#000000" stroke="none" font-family="Arial" font-size="11px" font-style="normal" font-weight="normal" text-decoration="none" x="837" y="179.5">+isMultiInstance: Boolean</text></g></g><g transform="translate(-6,2) scale(1,1)"><path fill="none" stroke="#000000" d="M 652 167 L 652 218" stroke-miterlimit="10"></path></g><g transform="translate(-6,2) scale(1,1)"><path fill="#000000" stroke="none" d="M 647.790482243984 207.83732514237585 L 652 218 L 656.209517756016 207.83732514237585 L 652 196"></path></g><g transform="translate(-6,2) scale(1,1)"><path fill="none" stroke="#000000" d="M 647.790482243984 207.83732514237585 L 652 218 L 656.209517756016 207.83732514237585 L 652 196 L 647.790482243984 207.83732514237585" stroke-miterlimit="10"></path></g><g transform="translate(-6,2) scale(1,1)"><g><path fill="none" stroke="none"></path><text fill="#000000" stroke="none" font-family="Arial" font-size="11px" font-style="normal" font-weight="normal" text-decoration="none" x="655" y="186">+participants</text></g></g><g transform="translate(-6,2) scale(1,1)"><g><path fill="none" stroke="none"></path><text fill="#000000" stroke="none" font-family="Arial" font-size="11px" font-style="normal" font-weight="normal" text-decoration="none" x="639" y="180">*</text></g></g><g transform="translate(-6,2) scale(1,1)"><path fill="none" stroke="#000000" d="M 832 148 L 748 148" stroke-miterlimit="10"></path></g><g transform="translate(-6,2) scale(1,1)"><path fill="#FFFFFF" stroke="none" d="M 768.3253497152483 139.58096448796803 L 748 148 L 768.3253497152483 156.41903551203197"></path></g><g transform="translate(-6,2) scale(1,1)"><path fill="none" stroke="#000000" d="M 768.3253497152483 139.58096448796803 L 748 148 L 768.3253497152483 156.41903551203197 L 768.3253497152483 139.58096448796803" stroke-miterlimit="10"></path></g><g transform="translate(-6,2) scale(1,1)"><rect fill="#C0C0C0" stroke="none" x="51" y="119" width="147" height="43" opacity="0.2"></rect></g><g transform="translate(-6,2) scale(1,1)"><rect fill="#C0C0C0" stroke="none" x="44" y="112" width="147" height="43"></rect></g><g transform="translate(-6,2) scale(1,1)"><path fill="none" stroke="#000000" d="M 44 112 L 191 112 L 191 155 L 44 155 L 44 112 Z Z" stroke-miterlimit="10"></path></g><g transform="translate(-6,2) scale(1,1)"><g><path fill="none" stroke="none"></path><text fill="#000000" stroke="none" font-family="Arial" font-size="11px" font-style="normal" font-weight="bold" text-decoration="none" x="56" y="129.5">UMLDirectedRelationship</text></g></g><g transform="translate(-6,2) scale(1,1)"><path fill="none" stroke="#000000" d="M 84 196 L 84 155" stroke-miterlimit="10"></path></g><g transform="translate(-6,2) scale(1,1)"><path fill="#FFFFFF" stroke="none" d="M 92.41903551203198 175.3253497152483 L 84 155 L 75.58096448796803 175.3253497152483"></path></g><g transform="translate(-6,2) scale(1,1)"><path fill="none" stroke="#000000" d="M 92.41903551203198 175.3253497152483 L 84 155 L 75.58096448796803 175.3253497152483 L 92.41903551203198 175.3253497152483" stroke-miterlimit="10"></path></g><g transform="translate(-6,2) scale(1,1)"><path fill="#FFFFFF" stroke="none" d="M 720 204 L 852 204 L 862 214 L 862 238 L 720 238 L 720 204"></path></g><g transform="translate(-6,2) scale(1,1)"><path fill="none" stroke="#000000" d="M 720 204 L 852 204 L 862 214 L 862 238 L 720 238 L 720 204 L 720 204" stroke-miterlimit="10"></path></g><g transform="translate(-6,2) scale(1,1)"><path fill="none" stroke="#000000" d="M 852 204 L 852 214 L 862 214 L 852 204" stroke-miterlimit="10"></path></g><g transform="translate(-6,2) scale(1,1)"><g><path fill="none" stroke="none"></path><text fill="#000000" stroke="none" font-family="Arial" font-size="11px" font-style="normal" font-weight="normal" text-decoration="none" x="725" y="220">owned by UMLClassifiers</text></g></g><g transform="translate(-6,2) scale(1,1)"><g><path fill="none" stroke="none"></path><text fill="#000000" stroke="none" font-family="Arial" font-size="11px" font-style="normal" font-weight="normal" text-decoration="none" x="725" y="233"></text></g></g><g transform="translate(-6,2) scale(1,1)"><path fill="none" stroke="#000000" d="M 697 233.5933014354067 L 719 230.64593301435406" stroke-miterlimit="10" stroke-dasharray="3"></path></g><g transform="translate(-6,2) scale(1,1)"><path fill="#FFFFFF" stroke="none" d="M 16 48 L 129 48 L 139 58 L 139 95 L 16 95 L 16 48"></path></g><g transform="translate(-6,2) scale(1,1)"><path fill="none" stroke="#000000" d="M 16 48 L 129 48 L 139 58 L 139 95 L 16 95 L 16 48 L 16 48" stroke-miterlimit="10"></path></g><g transform="translate(-6,2) scale(1,1)"><path fill="none" stroke="#000000" d="M 129 48 L 129 58 L 139 58 L 129 48" stroke-miterlimit="10"></path></g><g transform="translate(-6,2) scale(1,1)"><g><path fill="none" stroke="none"></path><text fill="#000000" stroke="none" font-family="Arial" font-size="11px" font-style="normal" font-weight="normal" text-decoration="none" x="21" y="64">connects between </text></g></g><g transform="translate(-6,2) scale(1,1)"><g><path fill="none" stroke="none"></path><text fill="#000000" stroke="none" font-family="Arial" font-size="11px" font-style="normal" font-weight="normal" text-decoration="none" x="21" y="77">MessageEndpoints</text></g></g><g transform="translate(-6,2) scale(1,1)"><g><path fill="none" stroke="none"></path><text fill="#000000" stroke="none" font-family="Arial" font-size="11px" font-style="normal" font-weight="normal" text-decoration="none" x="21" y="90"></text></g></g><g transform="translate(-6,2) scale(1,1)"><path fill="none" stroke="#000000" d="M 28 96 L 28 196" stroke-miterlimit="10" stroke-dasharray="3"></path></g><g transform="translate(-6,2) scale(1,1)"><rect fill="#C0C0C0" stroke="none" x="623" y="131" width="132" height="43" opacity="0.2"></rect></g><g transform="translate(-6,2) scale(1,1)"><rect fill="#FFFFFF" stroke="none" x="616" y="124" width="132" height="43"></rect></g><g transform="translate(-6,2) scale(1,1)"><path fill="none" stroke="#000000" d="M 616 124 L 748 124 L 748 167 L 616 167 L 616 124 Z Z" stroke-miterlimit="10"></path></g><g transform="translate(-6,2) scale(1,1)"><path fill="none" stroke="#000000" d="M 616 147 L 748 147" stroke-miterlimit="10"></path></g><g transform="translate(-6,2) scale(1,1)"><g><path fill="none" stroke="none"></path><text fill="#000000" stroke="none" font-family="Arial" font-size="11px" font-style="normal" font-weight="bold" text-decoration="none" x="627" y="141.5">UMLMessageEndpoint</text></g></g><g transform="translate(-6,2) scale(1,1)"><path fill="none" stroke="#000000" d="M 680 124 L 680 48" stroke-miterlimit="10"></path></g><g transform="translate(-6,2) scale(1,1)"><path fill="#FFFFFF" stroke="none" d="M 688.419035512032 68.32534971524831 L 680 48 L 671.580964487968 68.32534971524831"></path></g><g transform="translate(-6,2) scale(1,1)"><path fill="none" stroke="#000000" d="M 688.419035512032 68.32534971524831 L 680 48 L 671.580964487968 68.32534971524831 L 688.419035512032 68.32534971524831" stroke-miterlimit="10"></path></g><g transform="translate(-6,2) scale(1,1)"><rect fill="#C0C0C0" stroke="none" x="839" y="23" width="100" height="43" opacity="0.2"></rect></g><g transform="translate(-6,2) scale(1,1)"><rect fill="#FFFFFF" stroke="none" x="832" y="16" width="100" height="43"></rect></g><g transform="translate(-6,2) scale(1,1)"><path fill="none" stroke="#000000" d="M 832 16 L 932 16 L 932 59 L 832 59 L 832 16 Z Z" stroke-miterlimit="10"></path></g><g transform="translate(-6,2) scale(1,1)"><path fill="none" stroke="#000000" d="M 832 39 L 932 39" stroke-miterlimit="10"></path></g><g transform="translate(-6,2) scale(1,1)"><g><path fill="none" stroke="none"></path><text fill="#000000" stroke="none" font-family="Arial" font-size="11px" font-style="normal" font-weight="bold" text-decoration="none" x="858.5" y="33.5">UMLGate</text></g></g><g transform="translate(-6,2) scale(1,1)"><path fill="none" stroke="#000000" d="M 832 25 L 788 25 L 788 148 L 748 148" stroke-miterlimit="10"></path></g><g transform="translate(-6,2) scale(1,1)"><path fill="#FFFFFF" stroke="none" d="M 768.3253497152483 139.58096448796803 L 748 148 L 768.3253497152483 156.41903551203197"></path></g><g transform="translate(-6,2) scale(1,1)"><path fill="none" stroke="#000000" d="M 768.3253497152483 139.58096448796803 L 748 148 L 768.3253497152483 156.41903551203197 L 768.3253497152483 139.58096448796803" stroke-miterlimit="10"></path></g><g transform="translate(-6,2) scale(1,1)"><rect fill="#C0C0C0" stroke="none" x="839" y="79" width="100" height="43" opacity="0.2"></rect></g><g transform="translate(-6,2) scale(1,1)"><rect fill="#FFFFFF" stroke="none" x="832" y="72" width="100" height="43"></rect></g><g transform="translate(-6,2) scale(1,1)"><path fill="none" stroke="#000000" d="M 832 72 L 932 72 L 932 115 L 832 115 L 832 72 Z Z" stroke-miterlimit="10"></path></g><g transform="translate(-6,2) scale(1,1)"><path fill="none" stroke="#000000" d="M 832 95 L 932 95" stroke-miterlimit="10"></path></g><g transform="translate(-6,2) scale(1,1)"><g><path fill="none" stroke="none"></path><text fill="#000000" stroke="none" font-family="Arial" font-size="11px" font-style="normal" font-weight="bold" text-decoration="none" x="849.5" y="89.5">UMLEndpoint</text></g></g><g transform="translate(-6,2) scale(1,1)"><path fill="none" stroke="#000000" d="M 832 85 L 788 85 L 788 148 L 748 148" stroke-miterlimit="10"></path></g><g transform="translate(-6,2) scale(1,1)"><path fill="#FFFFFF" stroke="none" d="M 768.3253497152483 139.58096448796803 L 748 148 L 768.3253497152483 156.41903551203197"></path></g><g transform="translate(-6,2) scale(1,1)"><path fill="none" stroke="#000000" d="M 768.3253497152483 139.58096448796803 L 748 148 L 768.3253497152483 156.41903551203197 L 768.3253497152483 139.58096448796803" stroke-miterlimit="10"></path></g><g transform="translate(-6,2) scale(1,1)"><rect fill="#C0C0C0" stroke="none" x="999" y="243" width="129" height="44" opacity="0.2"></rect></g><g transform="translate(-6,2) scale(1,1)"><rect fill="#C0C0C0" stroke="none" x="992" y="236" width="129" height="44"></rect></g><g transform="translate(-6,2) scale(1,1)"><path fill="none" stroke="#000000" d="M 992 236 L 1121 236 L 1121 280 L 992 280 L 992 236 Z Z" stroke-miterlimit="10"></path></g><g transform="translate(-6,2) scale(1,1)"><g><path fill="none" stroke="none"></path><text fill="#000000" stroke="none" font-family="Arial" font-size="11px" font-style="normal" font-weight="bold" text-decoration="none" x="1002.5" y="253.5">UMLStructuralFeature</text></g></g><g transform="translate(-6,2) scale(1,1)"><path fill="none" stroke="#000000" d="M 928 184 L 928 260 L 992 260" stroke-miterlimit="10"></path></g><g transform="translate(-6,2) scale(1,1)"><path fill="none" stroke="#000000" d="M 981.8373251423759 264.209517756016 L 992 260 L 981.8373251423758 255.790482243984" stroke-miterlimit="10"></path></g><g transform="translate(-6,2) scale(1,1)"><g><path fill="none" stroke="none"></path><text fill="#000000" stroke="none" font-family="Arial" font-size="11px" font-style="normal" font-weight="normal" text-decoration="none" x="933" y="251">+represent</text></g></g><g transform="translate(-6,2) scale(1,1)"><g><path fill="none" stroke="none"></path><text fill="#000000" stroke="none" font-family="Arial" font-size="11px" font-style="normal" font-weight="normal" text-decoration="none" x="961" y="278">0..1</text></g></g><g transform="translate(-6,2) scale(1,1)"><path fill="#FFFFFF" stroke="none" d="M 960 44 L 1144 44 L 1154 54 L 1154 91 L 960 91 L 960 44"></path></g><g transform="translate(-6,2) scale(1,1)"><path fill="none" stroke="#000000" d="M 960 44 L 1144 44 L 1154 54 L 1154 91 L 960 91 L 960 44 L 960 44" stroke-miterlimit="10"></path></g><g transform="translate(-6,2) scale(1,1)"><path fill="none" stroke="#000000" d="M 1144 44 L 1144 54 L 1154 54 L 1144 44" stroke-miterlimit="10"></path></g><g transform="translate(-6,2) scale(1,1)"><g><path fill="none" stroke="none"></path><text fill="#000000" stroke="none" font-family="Arial" font-size="11px" font-style="normal" font-weight="normal" text-decoration="none" x="965" y="60">How to represent isMultiObject?</text></g></g><g transform="translate(-6,2) scale(1,1)"><g><path fill="none" stroke="none"></path><text fill="#000000" stroke="none" font-family="Arial" font-size="11px" font-style="normal" font-weight="normal" text-decoration="none" x="965" y="73">(when represent has multiplicity &gt; 0)</text></g></g><g transform="translate(-6,2) scale(1,1)"><g><path fill="none" stroke="none"></path><text fill="#000000" stroke="none" font-family="Arial" font-size="11px" font-style="normal" font-weight="normal" text-decoration="none" x="965" y="86"></text></g></g><g transform="translate(-6,2) scale(1,1)"><path fill="none" stroke="#000000" d="M 961.5909090909091 127 L 980 112 L 1013.25 93" stroke-miterlimit="10" stroke-dasharray="3"></path></g><g transform="translate(-6,2) scale(1,1)"><rect fill="#C0C0C0" stroke="none" x="579" y="407" width="113" height="61" opacity="0.2"></rect></g><g transform="translate(-6,2) scale(1,1)"><rect fill="#FFFFFF" stroke="none" x="572" y="400" width="113" height="61"></rect></g><g transform="translate(-6,2) scale(1,1)"><path fill="none" stroke="#000000" d="M 572 400 L 685 400 L 685 461 L 572 461 L 572 400 Z Z" stroke-miterlimit="10"></path></g><g transform="translate(-6,2) scale(1,1)"><path fill="none" stroke="#000000" d="M 572 423 L 685 423" stroke-miterlimit="10"></path></g><g transform="translate(-6,2) scale(1,1)"><g><path fill="none" stroke="none"></path><text fill="#000000" stroke="none" font-family="Arial" font-size="11px" font-style="normal" font-weight="bold" text-decoration="none" x="581.5" y="417.5">UMLInteractionUse</text></g></g><g transform="translate(-6,2) scale(1,1)"><g><path fill="none" stroke="none"></path><text fill="#000000" stroke="none" font-family="Arial" font-size="11px" font-style="normal" font-weight="normal" text-decoration="none" x="577" y="438.5">+arguments: String</text></g></g><g transform="translate(-6,2) scale(1,1)"><g><path fill="none" stroke="none"></path><text fill="#000000" stroke="none" font-family="Arial" font-size="11px" font-style="normal" font-weight="normal" text-decoration="none" x="577" y="451.5">+returnValue: String</text></g></g><g transform="translate(-6,2) scale(1,1)"><path fill="none" stroke="#000000" d="M 616 400 L 616 304 L 388 304 L 388 167" stroke-miterlimit="10"></path></g><g transform="translate(-6,2) scale(1,1)"><path fill="#FFFFFF" stroke="none" d="M 396.419035512032 187.3253497152483 L 388 167 L 379.580964487968 187.3253497152483"></path></g><g transform="translate(-6,2) scale(1,1)"><path fill="none" stroke="#000000" d="M 396.419035512032 187.3253497152483 L 388 167 L 379.580964487968 187.3253497152483 L 396.419035512032 187.3253497152483" stroke-miterlimit="10"></path></g><g transform="translate(-6,2) scale(1,1)"><path fill="none" stroke="#000000" d="M 685 416 L 832 416 L 832 252 L 696 252" stroke-miterlimit="10"></path></g><g transform="translate(-6,2) scale(1,1)"><path fill="none" stroke="#000000" d="M 706.1626748576241 247.790482243984 L 696 252 L 706.1626748576241 256.209517756016" stroke-miterlimit="10"></path></g><g transform="translate(-6,2) scale(1,1)"><g><path fill="none" stroke="none"></path><text fill="#000000" stroke="none" font-family="Arial" font-size="11px" font-style="normal" font-weight="normal" text-decoration="none" x="704" y="272">+refersTo</text></g></g><g transform="translate(-6,2) scale(1,1)"><g><path fill="none" stroke="none"></path><text fill="#000000" stroke="none" font-family="Arial" font-size="11px" font-style="normal" font-weight="normal" text-decoration="none" x="708" y="245">0..1</text></g></g><g transform="translate(-6,2) scale(1,1)"><path fill="none" stroke="#000000" d="M 685 440 L 1088 440 L 1088 280" stroke-miterlimit="10"></path></g><g transform="translate(-6,2) scale(1,1)"><path fill="none" stroke="#000000" d="M 1092.2095177560159 290.16267485762415 L 1088 280 L 1083.7904822439841 290.16267485762415" stroke-miterlimit="10"></path></g><g transform="translate(-6,2) scale(1,1)"><g><path fill="none" stroke="none"></path><text fill="#000000" stroke="none" font-family="Arial" font-size="11px" font-style="normal" font-weight="normal" text-decoration="none" x="972" y="304">+returnValueRecipient</text></g></g><g transform="translate(-6,2) scale(1,1)"><g><path fill="none" stroke="none"></path><text fill="#000000" stroke="none" font-family="Arial" font-size="11px" font-style="normal" font-weight="normal" text-decoration="none" x="1096" y="307">0..1</text></g></g><g transform="translate(-6,2) scale(1,1)"><rect fill="#C0C0C0" stroke="none" x="651" y="343" width="108" height="47" opacity="0.2"></rect></g><g transform="translate(-6,2) scale(1,1)"><rect fill="#FFFFFF" stroke="none" x="644" y="336" width="108" height="47"></rect></g><g transform="translate(-6,2) scale(1,1)"><path fill="none" stroke="#000000" d="M 644 336 L 752 336 L 752 383 L 644 383 L 644 336 Z Z" stroke-miterlimit="10"></path></g><g transform="translate(-6,2) scale(1,1)"><path fill="none" stroke="#000000" d="M 644 359 L 752 359" stroke-miterlimit="10"></path></g><g transform="translate(-6,2) scale(1,1)"><g><path fill="none" stroke="none"></path><text fill="#000000" stroke="none" font-family="Arial" font-size="11px" font-style="normal" font-weight="bold" text-decoration="none" x="653" y="353.5">UMLStateInvariant</text></g></g><g transform="translate(-6,2) scale(1,1)"><g><path fill="none" stroke="none"></path><text fill="#000000" stroke="none" font-family="Arial" font-size="11px" font-style="normal" font-weight="normal" text-decoration="none" x="649" y="374.5">+invariant: String</text></g></g><g transform="translate(-6,2) scale(1,1)"><path fill="none" stroke="#000000" d="M 752 352 L 880 352 L 880 184" stroke-miterlimit="10"></path></g><g transform="translate(-6,2) scale(1,1)"><path fill="none" stroke="#000000" d="M 884.209517756016 194.16267485762415 L 880 184 L 875.790482243984 194.16267485762415" stroke-miterlimit="10"></path></g><g transform="translate(-6,2) scale(1,1)"><g><path fill="none" stroke="none"></path><text fill="#000000" stroke="none" font-family="Arial" font-size="11px" font-style="normal" font-weight="normal" text-decoration="none" x="824" y="205">+covered</text></g></g><g transform="translate(-6,2) scale(1,1)"><g><path fill="none" stroke="none"></path><text fill="#000000" stroke="none" font-family="Arial" font-size="11px" font-style="normal" font-weight="normal" text-decoration="none" x="888" y="204">0..1</text></g></g><g transform="translate(-6,2) scale(1,1)"><path fill="none" stroke="#000000" d="M 696 336 L 696 304 L 388 304 L 388 167" stroke-miterlimit="10"></path></g><g transform="translate(-6,2) scale(1,1)"><path fill="#FFFFFF" stroke="none" d="M 396.419035512032 187.3253497152483 L 388 167 L 379.580964487968 187.3253497152483"></path></g><g transform="translate(-6,2) scale(1,1)"><path fill="none" stroke="#000000" d="M 396.419035512032 187.3253497152483 L 388 167 L 379.580964487968 187.3253497152483 L 396.419035512032 187.3253497152483" stroke-miterlimit="10"></path></g><g transform="translate(-6,2) scale(1,1)"><rect fill="#C0C0C0" stroke="none" x="495" y="343" width="103" height="47" opacity="0.2"></rect></g><g transform="translate(-6,2) scale(1,1)"><rect fill="#FFFFFF" stroke="none" x="488" y="336" width="103" height="47"></rect></g><g transform="translate(-6,2) scale(1,1)"><path fill="none" stroke="#000000" d="M 488 336 L 591 336 L 591 383 L 488 383 L 488 336 Z Z" stroke-miterlimit="10"></path></g><g transform="translate(-6,2) scale(1,1)"><path fill="none" stroke="#000000" d="M 488 359 L 591 359" stroke-miterlimit="10"></path></g><g transform="translate(-6,2) scale(1,1)"><g><path fill="none" stroke="none"></path><text fill="#000000" stroke="none" font-family="Arial" font-size="11px" font-style="normal" font-weight="bold" text-decoration="none" x="498" y="353.5">UMLContinuation</text></g></g><g transform="translate(-6,2) scale(1,1)"><g><path fill="none" stroke="none"></path><text fill="#000000" stroke="none" font-family="Arial" font-size="11px" font-style="normal" font-weight="normal" text-decoration="none" x="493" y="374.5">+setting: Boolean</text></g></g><g transform="translate(-6,2) scale(1,1)"><path fill="none" stroke="#000000" d="M 548 336 L 548 304 L 388 304 L 388 167" stroke-miterlimit="10"></path></g><g transform="translate(-6,2) scale(1,1)"><path fill="#FFFFFF" stroke="none" d="M 396.419035512032 187.3253497152483 L 388 167 L 379.580964487968 187.3253497152483"></path></g><g transform="translate(-6,2) scale(1,1)"><path fill="none" stroke="#000000" d="M 396.419035512032 187.3253497152483 L 388 167 L 379.580964487968 187.3253497152483 L 396.419035512032 187.3253497152483" stroke-miterlimit="10"></path></g><g transform="translate(-6,2) scale(1,1)"><rect fill="#C0C0C0" stroke="none" x="395" y="59" width="107" height="35" opacity="0.2"></rect></g><g transform="translate(-6,2) scale(1,1)"><rect fill="#C0C0C0" stroke="none" x="388" y="52" width="107" height="35"></rect></g><g transform="translate(-6,2) scale(1,1)"><path fill="none" stroke="#000000" d="M 388 52 L 495 52 L 495 87 L 388 87 L 388 52 Z Z" stroke-miterlimit="10"></path></g><g transform="translate(-6,2) scale(1,1)"><g><path fill="none" stroke="none"></path><text fill="#000000" stroke="none" font-family="Arial" font-size="11px" font-style="normal" font-weight="bold" text-decoration="none" x="408.5" y="69.5">UMLBehavior</text></g></g><g transform="translate(-6,2) scale(1,1)"><rect fill="#C0C0C0" stroke="none" x="505" y="489" width="109" height="131" opacity="0.2"></rect></g><g transform="translate(-6,2) scale(1,1)"><rect fill="#80FFFF" stroke="none" x="498" y="482" width="109" height="131"></rect></g><g transform="translate(-6,2) scale(1,1)"><path fill="none" stroke="#000000" d="M 498 482 L 607 482 L 607 613 L 498 613 L 498 482 Z Z" stroke-miterlimit="10"></path></g><g transform="translate(-6,2) scale(1,1)"><path fill="none" stroke="#000000" d="M 498 516 L 607 516" stroke-miterlimit="10"></path></g><g transform="translate(-6,2) scale(1,1)"><g><path fill="none" stroke="none"></path><text fill="#000000" stroke="none" font-family="Arial" font-size="11px" font-style="normal" font-weight="normal" text-decoration="none" x="516.5" y="497.5">«enumeration»</text></g></g><g transform="translate(-6,2) scale(1,1)"><g><path fill="none" stroke="none"></path><text fill="#000000" stroke="none" font-family="Arial" font-size="11px" font-style="normal" font-weight="bold" text-decoration="none" x="508.5" y="510.5">UMLMessageSort</text></g></g><g transform="translate(-6,2) scale(1,1)"><g><path fill="none" stroke="none"></path><text fill="#000000" stroke="none" font-family="Arial" font-size="11px" font-style="normal" font-weight="normal" text-decoration="none" x="503" y="531.5">synchCall</text></g></g><g transform="translate(-6,2) scale(1,1)"><g><path fill="none" stroke="none"></path><text fill="#000000" stroke="none" font-family="Arial" font-size="11px" font-style="normal" font-weight="normal" text-decoration="none" x="503" y="544.5">asynchCall</text></g></g><g transform="translate(-6,2) scale(1,1)"><g><path fill="none" stroke="none"></path><text fill="#000000" stroke="none" font-family="Arial" font-size="11px" font-style="normal" font-weight="normal" text-decoration="none" x="503" y="557.5">asynchSignal</text></g></g><g transform="translate(-6,2) scale(1,1)"><g><path fill="none" stroke="none"></path><text fill="#000000" stroke="none" font-family="Arial" font-size="11px" font-style="normal" font-weight="normal" text-decoration="none" x="503" y="570.5">createMessage</text></g></g><g transform="translate(-6,2) scale(1,1)"><g><path fill="none" stroke="none"></path><text fill="#000000" stroke="none" font-family="Arial" font-size="11px" font-style="normal" font-weight="normal" text-decoration="none" x="503" y="583.5">deleteMessage</text></g></g><g transform="translate(-6,2) scale(1,1)"><g><path fill="none" stroke="none"></path><text fill="#000000" stroke="none" font-family="Arial" font-size="11px" font-style="normal" font-weight="normal" text-decoration="none" x="503" y="596.5">reply</text></g></g><g transform="translate(-6,2) scale(1,1)"><rect fill="#C0C0C0" stroke="none" x="317" y="487" width="165" height="201" opacity="0.2"></rect></g><g transform="translate(-6,2) scale(1,1)"><rect fill="#80FFFF" stroke="none" x="310" y="480" width="165" height="201"></rect></g><g transform="translate(-6,2) scale(1,1)"><path fill="none" stroke="#000000" d="M 310 480 L 475 480 L 475 681 L 310 681 L 310 480 Z Z" stroke-miterlimit="10"></path></g><g transform="translate(-6,2) scale(1,1)"><path fill="none" stroke="#000000" d="M 310 514 L 475 514" stroke-miterlimit="10"></path></g><g transform="translate(-6,2) scale(1,1)"><g><path fill="none" stroke="none"></path><text fill="#000000" stroke="none" font-family="Arial" font-size="11px" font-style="normal" font-weight="normal" text-decoration="none" x="356.5" y="495.5">«enumeration»</text></g></g><g transform="translate(-6,2) scale(1,1)"><g><path fill="none" stroke="none"></path><text fill="#000000" stroke="none" font-family="Arial" font-size="11px" font-style="normal" font-weight="bold" text-decoration="none" x="323" y="508.5">UMLInteractionOperatorKind</text></g></g><g transform="translate(-6,2) scale(1,1)"><g><path fill="none" stroke="none"></path><text fill="#000000" stroke="none" font-family="Arial" font-size="11px" font-style="normal" font-weight="normal" text-decoration="none" x="315" y="529.5">alt</text></g></g><g transform="translate(-6,2) scale(1,1)"><g><path fill="none" stroke="none"></path><text fill="#000000" stroke="none" font-family="Arial" font-size="11px" font-style="normal" font-weight="normal" text-decoration="none" x="315" y="542.5">opt</text></g></g><g transform="translate(-6,2) scale(1,1)"><g><path fill="none" stroke="none"></path><text fill="#000000" stroke="none" font-family="Arial" font-size="11px" font-style="normal" font-weight="normal" text-decoration="none" x="315" y="555.5">par</text></g></g><g transform="translate(-6,2) scale(1,1)"><g><path fill="none" stroke="none"></path><text fill="#000000" stroke="none" font-family="Arial" font-size="11px" font-style="normal" font-weight="normal" text-decoration="none" x="315" y="568.5">loop</text></g></g><g transform="translate(-6,2) scale(1,1)"><g><path fill="none" stroke="none"></path><text fill="#000000" stroke="none" font-family="Arial" font-size="11px" font-style="normal" font-weight="normal" text-decoration="none" x="315" y="581.5">critical</text></g></g><g transform="translate(-6,2) scale(1,1)"><g><path fill="none" stroke="none"></path><text fill="#000000" stroke="none" font-family="Arial" font-size="11px" font-style="normal" font-weight="normal" text-decoration="none" x="315" y="594.5">neg</text></g></g><g transform="translate(-6,2) scale(1,1)"><g><path fill="none" stroke="none"></path><text fill="#000000" stroke="none" font-family="Arial" font-size="11px" font-style="normal" font-weight="normal" text-decoration="none" x="315" y="607.5">assert</text></g></g><g transform="translate(-6,2) scale(1,1)"><g><path fill="none" stroke="none"></path><text fill="#000000" stroke="none" font-family="Arial" font-size="11px" font-style="normal" font-weight="normal" text-decoration="none" x="315" y="620.5">strict</text></g></g><g transform="translate(-6,2) scale(1,1)"><g><path fill="none" stroke="none"></path><text fill="#000000" stroke="none" font-family="Arial" font-size="11px" font-style="normal" font-weight="normal" text-decoration="none" x="315" y="633.5">seq</text></g></g><g transform="translate(-6,2) scale(1,1)"><g><path fill="none" stroke="none"></path><text fill="#000000" stroke="none" font-family="Arial" font-size="11px" font-style="normal" font-weight="normal" text-decoration="none" x="315" y="646.5">ignore</text></g></g><g transform="translate(-6,2) scale(1,1)"><g><path fill="none" stroke="none"></path><text fill="#000000" stroke="none" font-family="Arial" font-size="11px" font-style="normal" font-weight="normal" text-decoration="none" x="315" y="659.5">consider</text></g></g><g transform="translate(-6,2) scale(1,1)"><g><path fill="none" stroke="none"></path><text fill="#000000" stroke="none" font-family="Arial" font-size="11px" font-style="normal" font-weight="normal" text-decoration="none" x="315" y="672.5">break</text></g></g><g transform="translate(-6,2) scale(1,1)"><path fill="none" stroke="#000000" d="M 208 196 L 208 28 L 616 28" stroke-miterlimit="10"></path></g><g transform="translate(-6,2) scale(1,1)"><path fill="none" stroke="#000000" d="M 605.8373251423759 32.20951775601599 L 616 28 L 605.8373251423758 23.790482243984012" stroke-miterlimit="10"></path></g><g transform="translate(-6,2) scale(1,1)"><g><path fill="none" stroke="none"></path><text fill="#000000" stroke="none" font-family="Arial" font-size="11px" font-style="normal" font-weight="normal" text-decoration="none" x="557" y="19">+signature</text></g></g><g transform="translate(-6,2) scale(1,1)"><g><path fill="none" stroke="none"></path><text fill="#000000" stroke="none" font-family="Arial" font-size="11px" font-style="normal" font-weight="normal" text-decoration="none" x="585" y="46">0..1</text></g></g><g transform="translate(-6,2) scale(1,1)"><path fill="#FFFFFF" stroke="none" d="M 228 52 L 322 52 L 332 62 L 332 99 L 228 99 L 228 52"></path></g><g transform="translate(-6,2) scale(1,1)"><path fill="none" stroke="#000000" d="M 228 52 L 322 52 L 332 62 L 332 99 L 228 99 L 228 52 L 228 52" stroke-miterlimit="10"></path></g><g transform="translate(-6,2) scale(1,1)"><path fill="none" stroke="#000000" d="M 322 52 L 322 62 L 332 62 L 322 52" stroke-miterlimit="10"></path></g><g transform="translate(-6,2) scale(1,1)"><g><path fill="none" stroke="none"></path><text fill="#000000" stroke="none" font-family="Arial" font-size="11px" font-style="normal" font-weight="normal" text-decoration="none" x="233" y="68">signature =</text></g></g><g transform="translate(-6,2) scale(1,1)"><g><path fill="none" stroke="none"></path><text fill="#000000" stroke="none" font-family="Arial" font-size="11px" font-style="normal" font-weight="normal" text-decoration="none" x="233" y="81">Operation | Signal</text></g></g><g transform="translate(-6,2) scale(1,1)"><g><path fill="none" stroke="none"></path><text fill="#000000" stroke="none" font-family="Arial" font-size="11px" font-style="normal" font-weight="normal" text-decoration="none" x="233" y="94"></text></g></g><g transform="translate(-6,2) scale(1,1)"><path fill="none" stroke="#000000" d="M 412 28 L 334 56.36363636363636" stroke-miterlimit="10" stroke-dasharray="3"></path></g></g></svg>