<svg version="1.1" xmlns="http://www.w3.org/2000/svg" xmlns:xlink="http://www.w3.org/1999/xlink" width="1443" height="568"><defs></defs><g><g transform="translate(-2,-6) scale(1,1)"><rect fill="#C0C0C0" stroke="none" x="19" y="23" width="418" height="143" opacity="0.2"></rect></g><g transform="translate(-2,-6) scale(1,1)"><rect fill="#fff5d8" stroke="none" x="12" y="16" width="418" height="143"></rect></g><g transform="translate(-2,-6) scale(1,1)"><path fill="none" stroke="#710000" d="M 12 16 L 430 16 L 430 159 L 12 159 L 12 16 Z Z" stroke-miterlimit="10"></path></g><g transform="translate(-2,-6) scale(1,1)"><path fill="none" stroke="#710000" d="M 12 54 L 430 54" stroke-miterlimit="10"></path></g><g transform="translate(-2,-6) scale(1,1)"><path fill="none" stroke="#710000" d="M 12 122 L 430 122" stroke-miterlimit="10"></path></g><g transform="translate(-2,-6) scale(1,1)"><g><path fill="none" stroke="none"></path><text fill="#000000" stroke="none" font-family="Arial" font-size="13px" font-style="normal" font-weight="normal" text-decoration="none" x="184" y="33.5">«metaclass»</text></g></g><g transform="translate(-2,-6) scale(1,1)"><g><path fill="none" stroke="none"></path><text fill="#000000" stroke="none" font-family="Arial" font-size="13px" font-style="italic" font-weight="bold" text-decoration="none" x="201" y="48.5">Class1</text></g></g><g transform="translate(-2,-6) scale(1,1)"><g><path fill="none" stroke="none"></path><text fill="#000000" stroke="none" font-family="Arial" font-size="13px" font-style="normal" font-weight="normal" text-decoration="none" x="17" y="71.5">«column»+Attribute1: Integer[0..*] = 1000</text></g></g><g transform="translate(-2,-6) scale(1,1)"><g><path fill="none" stroke="none"></path><text fill="#000000" stroke="none" font-family="Arial" font-size="13px" font-style="normal" font-weight="normal" text-decoration="none" x="17" y="86.5">#Attribute2: BlueClass2</text></g></g><g transform="translate(-2,-6) scale(1,1)"><g><path fill="none" stroke="none"></path><text fill="#000000" stroke="none" font-family="Arial" font-size="13px" font-style="normal" font-weight="normal" text-decoration="none" x="17" y="101.5">-Attribute3: &lt;T&gt;</text></g></g><g transform="translate(-2,-6) scale(1,1)"><g><path fill="none" stroke="none"></path><text fill="#000000" stroke="none" font-family="Arial" font-size="13px" font-style="normal" font-weight="normal" text-decoration="none" x="17" y="116.5">~Attribute4</text></g></g><g transform="translate(-2,-6) scale(1,1)"><g><path fill="none" stroke="none"></path><text fill="#000000" stroke="none" font-family="Arial" font-size="13px" font-style="normal" font-weight="normal" text-decoration="none" x="17" y="139.5">+Operation1(Param1: Integer, Param2: String, Param3: Real): Boolean</text></g></g><g transform="translate(-2,-6) scale(1,1)"><g><path fill="none" stroke="none"></path><text fill="#000000" stroke="none" font-family="Arial" font-size="13px" font-style="normal" font-weight="normal" text-decoration="none" x="17" y="154.5">+Operation2()</text><path fill="none" stroke="#000000" d="M 17 154.5 L 96 154.5" stroke-miterlimit="10"></path></g></g><g transform="translate(-2,-6) scale(1,1)"><rect fill="#C0C0C0" stroke="none" x="63" y="271" width="135" height="57" opacity="0.2"></rect></g><g transform="translate(-2,-6) scale(1,1)"><rect fill="#ffffff" stroke="none" x="56" y="264" width="135" height="57"></rect></g><g transform="translate(-2,-6) scale(1,1)"><path fill="none" stroke="#000000" d="M 56 264 L 191 264 L 191 321 L 56 321 L 56 264 Z Z" stroke-miterlimit="10"></path></g><g transform="translate(-2,-6) scale(1,1)"><path fill="none" stroke="#000000" d="M 56 302 L 191 302" stroke-miterlimit="10"></path></g><g transform="translate(-2,-6) scale(1,1)"><path fill="none" stroke="#000000" d="M 56 312 L 191 312" stroke-miterlimit="10"></path></g><g transform="translate(-2,-6) scale(1,1)"><g><path fill="none" stroke="none"></path><text fill="#0000ff" stroke="none" font-family="Arial" font-size="13px" font-style="normal" font-weight="normal" text-decoration="none" x="92.5" y="281.5">«Process»</text></g></g><g transform="translate(-2,-6) scale(1,1)"><g><path fill="none" stroke="none"></path><text fill="#0000ff" stroke="none" font-family="Arial" font-size="13px" font-style="normal" font-weight="bold" text-decoration="none" x="90.5" y="296.5">BlueClass2</text></g></g><g transform="translate(-2,-6) scale(1,1)"><path fill="none" stroke="#000000" d="M 136.86341463414635 263 L 186.10243902439026 160" stroke-miterlimit="10"></path></g><g transform="translate(-2,-6) scale(1,1)"><path fill="#FFFFFF" stroke="none" d="M 184.93184749330376 181.96883509582037 L 186.10243902439026 160 L 169.74039354373585 174.70657906139277"></path></g><g transform="translate(-2,-6) scale(1,1)"><path fill="none" stroke="#000000" d="M 184.93184749330376 181.96883509582037 L 186.10243902439026 160 L 169.74039354373585 174.70657906139277 L 184.93184749330376 181.96883509582037" stroke-miterlimit="10"></path></g><g transform="translate(-2,-6) scale(1,1)"><path fill="none" stroke="#0000d1" d="M 288 159 L 288 296 L 191 296" stroke-miterlimit="10"></path></g><g transform="translate(-2,-6) scale(1,1)"><path fill="#0000d1" stroke="none" d="M 201.16267485762415 291.790482243984 L 191 296 L 201.16267485762415 300.209517756016 L 213 296"></path></g><g transform="translate(-2,-6) scale(1,1)"><path fill="none" stroke="#0000d1" d="M 201.16267485762415 291.790482243984 L 191 296 L 201.16267485762415 300.209517756016 L 213 296 L 201.16267485762415 291.790482243984" stroke-miterlimit="10"></path></g><g transform="translate(-2,-6) scale(1,1)"><g><path fill="none" stroke="none"></path><text fill="#000000" stroke="none" font-family="Arial" font-size="13px" font-style="normal" font-weight="normal" text-decoration="none" x="211" y="316">+role1</text></g></g><g transform="translate(-2,-6) scale(1,1)"><g><path fill="none" stroke="none"></path><text fill="#000000" stroke="none" font-family="Arial" font-size="13px" font-style="normal" font-weight="normal" text-decoration="none" x="207" y="281">0..*</text></g></g><g transform="translate(-2,-6) scale(1,1)"><rect fill="#C0C0C0" stroke="none" x="131" y="437" width="150" height="44" opacity="0.2"></rect></g><g transform="translate(-2,-6) scale(1,1)"><rect fill="#C0C0C0" stroke="none" x="160" y="419" width="130" height="22" opacity="0.2"></rect></g><g transform="translate(-2,-6) scale(1,1)"><rect fill="#ffffff" stroke="none" x="124" y="430" width="150" height="44"></rect></g><g transform="translate(-2,-6) scale(1,1)"><path fill="none" stroke="#000000" d="M 124 430 L 274 430 L 274 474 L 124 474 L 124 430 Z Z" stroke-miterlimit="10"></path></g><g transform="translate(-2,-6) scale(1,1)"><path fill="none" stroke="#000000" d="M 124 455 L 274 455" stroke-miterlimit="10"></path></g><g transform="translate(-2,-6) scale(1,1)"><path fill="none" stroke="#000000" d="M 124 465 L 274 465" stroke-miterlimit="10"></path></g><g transform="translate(-2,-6) scale(1,1)"><g><path fill="none" stroke="none"></path><text fill="#000000" stroke="none" font-family="Arial" font-size="13px" font-style="normal" font-weight="bold" text-decoration="none" x="179" y="449.5">Class3</text></g></g><g transform="translate(-2,-6) scale(1,1)"><rect fill="#ffffff" stroke="none" x="153" y="412" width="130" height="22"></rect></g><g transform="translate(-2,-6) scale(1,1)"><path fill="none" stroke="#000000" d="M 153 412 L 283 412 L 283 434 L 153 434 L 153 412 Z Z" stroke-miterlimit="10" stroke-dasharray="3"></path></g><g transform="translate(-2,-6) scale(1,1)"><g><path fill="none" stroke="none"></path><text fill="#000000" stroke="none" font-family="Arial" font-size="13px" font-style="normal" font-weight="normal" text-decoration="none" x="158" y="429.5">TemplateParameter1</text></g></g><g transform="translate(-2,-6) scale(1,1)"><path fill="none" stroke="#000000" d="M 139.09271523178808 322 L 186.83443708609272 411" stroke-miterlimit="10" stroke-dasharray="3"></path></g><g transform="translate(-2,-6) scale(1,1)"><path fill="none" stroke="#000000" d="M 178.32095828227966 404.0343213785715 L 186.83443708609272 411 L 185.73997708120683 400.0545828175576" stroke-miterlimit="10"></path></g><g transform="translate(-2,-6) scale(1,1)"><path fill="#C0C0C0" stroke="none" d="M 70 190.5 C 70 184.1487248 75.1487248 179 81.5 179 C 87.8512752 179 93 184.1487248 93 190.5 C 93 196.8512752 87.8512752 202 81.5 202 C 75.1487248 202 70 196.8512752 70 190.5 Z" opacity="0.2"></path></g><g transform="translate(-2,-6) scale(1,1)"><path fill="#ffffff" stroke="none" d="M 63 183.5 C 63 177.1487248 68.1487248 172 74.5 172 C 80.8512752 172 86 177.1487248 86 183.5 C 86 189.8512752 80.8512752 195 74.5 195 C 68.1487248 195 63 189.8512752 63 183.5 Z"></path></g><g transform="translate(-2,-6) scale(1,1)"><path fill="none" stroke="#000000" d="M 63 183.5 C 63 177.1487248 68.1487248 172 74.5 172 C 80.8512752 172 86 177.1487248 86 183.5 C 86 189.8512752 80.8512752 195 74.5 195 C 68.1487248 195 63 189.8512752 63 183.5 Z" stroke-miterlimit="10"></path></g><g transform="translate(-2,-6) scale(1,1)"><g><path fill="none" stroke="none"></path><text fill="#000000" stroke="none" font-family="Arial" font-size="13px" font-style="normal" font-weight="bold" text-decoration="none" x="45.5" y="214.5">Interface1</text></g></g><g transform="translate(-2,-6) scale(1,1)"><path fill="none" stroke="#000000" d="M 122.55045871559633 160 L 86 178.72897959183675" stroke-miterlimit="10"></path></g><g transform="translate(-2,-6) scale(1,1)"><rect fill="#C0C0C0" stroke="none" x="451" y="135" width="87" height="63" opacity="0.2"></rect></g><g transform="translate(-2,-6) scale(1,1)"><rect fill="#ffffff" stroke="none" x="444" y="128" width="87" height="63"></rect></g><g transform="translate(-2,-6) scale(1,1)"><path fill="none" stroke="#000000" d="M 444 128 L 531 128 L 531 191 L 444 191 L 444 128 Z Z" stroke-miterlimit="10"></path></g><g transform="translate(-2,-6) scale(1,1)"><path fill="none" stroke="#000000" d="M 444 166 L 531 166" stroke-miterlimit="10"></path></g><g transform="translate(-2,-6) scale(1,1)"><path fill="none" stroke="#000000" d="M 444 176 L 531 176" stroke-miterlimit="10"></path></g><g transform="translate(-2,-6) scale(1,1)"><g><path fill="none" stroke="none"></path><text fill="#000000" stroke="none" font-family="Arial" font-size="13px" font-style="normal" font-weight="bold" text-decoration="none" x="459.5" y="147.5">Multi Line</text><text fill="#000000" stroke="none" font-family="Arial" font-size="13px" font-style="normal" font-weight="bold" text-decoration="none" x="452" y="160.5">Class Name</text></g></g><g transform="translate(-2,-6) scale(1,1)"><path fill="none" stroke="#000000" d="M 93.37516441332873 516.4709499100699 A 11.5 11.5 0 0 1 102.62483558667128 537.5290500899301" stroke-miterlimit="10"></path></g><g transform="translate(-2,-6) scale(1,1)"><g><path fill="none" stroke="none"></path><text fill="#000000" stroke="none" font-family="Arial" font-size="13px" font-style="normal" font-weight="bold" text-decoration="none" x="69.5" y="558.5">Interface2</text></g></g><g transform="translate(-2,-6) scale(1,1)"><path fill="none" stroke="#000000" d="M 169.03092783505156 475 L 125.31958762886597 515" stroke-miterlimit="10" stroke-dasharray="3"></path></g><g transform="translate(-2,-6) scale(1,1)"><path fill="none" stroke="#000000" d="M 129.97509416188143 505.03374398677965 L 125.31958762886597 515 L 135.6587350782088 511.24473302936417" stroke-miterlimit="10"></path></g><g transform="translate(-2,-6) scale(1,1)"><path fill="none" stroke="#000000" d="M 104.13636363636364 322 L 40 424 L 123 433.6158536585366" stroke-miterlimit="10"></path></g><g transform="translate(-2,-6) scale(1,1)"><path fill="#FFFFFF" stroke="none" d="M 112.42040051672691 436.62784216673646 L 123 433.6158536585366 L 113.38929596413584 428.2647446206806 L 101.14617294934978 431.084007841693"></path></g><g transform="translate(-2,-6) scale(1,1)"><path fill="none" stroke="#000000" d="M 112.42040051672691 436.62784216673646 L 123 433.6158536585366 L 113.38929596413584 428.2647446206806 L 101.14617294934978 431.084007841693 L 112.42040051672691 436.62784216673646" stroke-miterlimit="10"></path></g><g transform="translate(-2,-6) scale(1,1)"><rect fill="#C0C0C0" stroke="none" x="459" y="39" width="73" height="48" opacity="0.2"></rect></g><g transform="translate(-2,-6) scale(1,1)"><rect fill="#ffffff" stroke="none" x="452" y="32" width="73" height="48"></rect></g><g transform="translate(-2,-6) scale(1,1)"><path fill="none" stroke="#000000" d="M 452 32 L 525 32 L 525 80 L 452 80 L 452 32 Z Z" stroke-miterlimit="10"></path></g><g transform="translate(-2,-6) scale(1,1)"><g><path fill="none" stroke="none"></path><text fill="#000000" stroke="none" font-family="Arial" font-size="13px" font-style="normal" font-weight="normal" text-decoration="none" x="456.5" y="49.5">«interface»</text></g></g><g transform="translate(-2,-6) scale(1,1)"><g><path fill="none" stroke="none"></path><text fill="#000000" stroke="none" font-family="Arial" font-size="13px" font-style="normal" font-weight="bold" text-decoration="none" x="459.5" y="64.5">Interface3</text></g></g><g transform="translate(-2,-6) scale(1,1)"><path fill="none" stroke="#000000" d="M 487.31067961165047 127 L 487.75728155339806 81" stroke-miterlimit="10" stroke-dasharray="3"></path></g><g transform="translate(-2,-6) scale(1,1)"><path fill="#FFFFFF" stroke="none" d="M 495.9785961133056 101.4061262102108 L 487.75728155339806 81 L 479.1413186079878 101.24265749656692"></path></g><g transform="translate(-2,-6) scale(1,1)"><path fill="none" stroke="#000000" d="M 495.9785961133056 101.4061262102108 L 487.75728155339806 81 L 479.1413186079878 101.24265749656692 L 495.9785961133056 101.4061262102108" stroke-miterlimit="10"></path></g><g transform="translate(-2,-6) scale(1,1)"><rect fill="#C0C0C0" stroke="none" x="555" y="63" width="95" height="67" opacity="0.2"></rect></g><g transform="translate(-2,-6) scale(1,1)"><rect fill="#ffffff" stroke="none" x="548" y="56" width="95" height="67"></rect></g><g transform="translate(-2,-6) scale(1,1)"><path fill="none" stroke="#000000" d="M 548 56 L 643 56 L 643 123 L 548 123 L 548 56 Z Z" stroke-miterlimit="10"></path></g><g transform="translate(-2,-6) scale(1,1)"><path fill="none" stroke="#000000" d="M 548 94 L 643 94" stroke-miterlimit="10"></path></g><g transform="translate(-2,-6) scale(1,1)"><path fill="none" stroke="#000000" d="M 548 104 L 643 104" stroke-miterlimit="10"></path></g><g transform="translate(-2,-6) scale(1,1)"><g><path fill="none" stroke="none"></path><text fill="#000000" stroke="none" font-family="Arial" font-size="13px" font-style="normal" font-weight="normal" text-decoration="none" x="571.5" y="73.5">«signal»</text></g></g><g transform="translate(-2,-6) scale(1,1)"><g><path fill="none" stroke="none"></path><text fill="#000000" stroke="none" font-family="Arial" font-size="13px" font-style="normal" font-weight="bold" text-decoration="none" x="574" y="88.5">Signal1</text></g></g><g transform="translate(-2,-6) scale(1,1)"><rect fill="#C0C0C0" stroke="none" x="555" y="163" width="95" height="67" opacity="0.2"></rect></g><g transform="translate(-2,-6) scale(1,1)"><rect fill="#ffffff" stroke="none" x="548" y="156" width="95" height="67"></rect></g><g transform="translate(-2,-6) scale(1,1)"><path fill="none" stroke="#000000" d="M 548 156 L 643 156 L 643 223 L 548 223 L 548 156 Z Z" stroke-miterlimit="10"></path></g><g transform="translate(-2,-6) scale(1,1)"><g><path fill="none" stroke="none"></path><text fill="#000000" stroke="none" font-family="Arial" font-size="13px" font-style="normal" font-weight="normal" text-decoration="none" x="561.5" y="173.5">«dataType»</text></g></g><g transform="translate(-2,-6) scale(1,1)"><g><path fill="none" stroke="none"></path><text fill="#000000" stroke="none" font-family="Arial" font-size="13px" font-style="normal" font-weight="bold" text-decoration="none" x="564" y="188.5">DataType1</text></g></g><g transform="translate(-2,-6) scale(1,1)"><rect fill="#C0C0C0" stroke="none" x="555" y="263" width="102" height="71" opacity="0.2"></rect></g><g transform="translate(-2,-6) scale(1,1)"><rect fill="#ffffff" stroke="none" x="548" y="256" width="102" height="71"></rect></g><g transform="translate(-2,-6) scale(1,1)"><path fill="none" stroke="#000000" d="M 548 256 L 650 256 L 650 327 L 548 327 L 548 256 Z Z" stroke-miterlimit="10"></path></g><g transform="translate(-2,-6) scale(1,1)"><g><path fill="none" stroke="none"></path><text fill="#000000" stroke="none" font-family="Arial" font-size="13px" font-style="normal" font-weight="normal" text-decoration="none" x="553" y="273.5">«primitiveType»</text></g></g><g transform="translate(-2,-6) scale(1,1)"><g><path fill="none" stroke="none"></path><text fill="#000000" stroke="none" font-family="Arial" font-size="13px" font-style="normal" font-weight="bold" text-decoration="none" x="555.5" y="288.5">PrimitiveType1</text></g></g><g transform="translate(-2,-6) scale(1,1)"><rect fill="#C0C0C0" stroke="none" x="559" y="367" width="99" height="67" opacity="0.2"></rect></g><g transform="translate(-2,-6) scale(1,1)"><rect fill="#ffffff" stroke="none" x="552" y="360" width="99" height="67"></rect></g><g transform="translate(-2,-6) scale(1,1)"><path fill="none" stroke="#000000" d="M 552 360 L 651 360 L 651 427 L 552 427 L 552 360 Z Z" stroke-miterlimit="10"></path></g><g transform="translate(-2,-6) scale(1,1)"><path fill="none" stroke="#000000" d="M 552 398 L 651 398" stroke-miterlimit="10"></path></g><g transform="translate(-2,-6) scale(1,1)"><g><path fill="none" stroke="none"></path><text fill="#000000" stroke="none" font-family="Arial" font-size="13px" font-style="normal" font-weight="normal" text-decoration="none" x="559" y="377.5">«enumeration»</text></g></g><g transform="translate(-2,-6) scale(1,1)"><g><path fill="none" stroke="none"></path><text fill="#000000" stroke="none" font-family="Arial" font-size="13px" font-style="normal" font-weight="bold" text-decoration="none" x="561.5" y="392.5">Enumeration1</text></g></g><g transform="translate(-2,-6) scale(1,1)"><rect fill="#C0C0C0" stroke="none" x="699" y="43" width="62" height="15" opacity="0.2"></rect></g><g transform="translate(-2,-6) scale(1,1)"><rect fill="#C0C0C0" stroke="none" x="699" y="57" width="155" height="57" opacity="0.2"></rect></g><g transform="translate(-2,-6) scale(1,1)"><rect fill="#ffffff" stroke="none" x="692" y="51" width="155" height="56"></rect></g><g transform="translate(-2,-6) scale(1,1)"><path fill="none" stroke="#000000" d="M 692 51 L 847 51 L 847 107 L 692 107 L 692 51 Z Z" stroke-miterlimit="10"></path></g><g transform="translate(-2,-6) scale(1,1)"><rect fill="#ffffff" stroke="none" x="692" y="36" width="62" height="15"></rect></g><g transform="translate(-2,-6) scale(1,1)"><path fill="none" stroke="#000000" d="M 692 36 L 754 36 L 754 51 L 692 51 L 692 36 Z Z" stroke-miterlimit="10"></path></g><g transform="translate(-2,-6) scale(1,1)"><rect fill="#ffffff" stroke="none" x="692" y="50" width="155" height="57"></rect></g><g transform="translate(-2,-6) scale(1,1)"><path fill="none" stroke="#000000" d="M 692 50 L 847 50 L 847 107 L 692 107 L 692 50 Z Z" stroke-miterlimit="10"></path></g><g transform="translate(-2,-6) scale(1,1)"><g><path fill="none" stroke="none"></path><text fill="#000000" stroke="none" font-family="Arial" font-size="13px" font-style="normal" font-weight="bold" text-decoration="none" x="740.5" y="70.5">Package1</text></g></g><g transform="translate(-2,-6) scale(1,1)"><rect fill="#C0C0C0" stroke="none" x="699" y="259" width="58.799999999999955" height="15" opacity="0.2"></rect></g><g transform="translate(-2,-6) scale(1,1)"><rect fill="#C0C0C0" stroke="none" x="699" y="273" width="147" height="53" opacity="0.2"></rect></g><g transform="translate(-2,-6) scale(1,1)"><rect fill="#ffffff" stroke="none" x="692" y="267" width="147" height="52"></rect></g><g transform="translate(-2,-6) scale(1,1)"><path fill="none" stroke="#000000" d="M 692 267 L 839 267 L 839 319 L 692 319 L 692 267 Z Z" stroke-miterlimit="10"></path></g><g transform="translate(-2,-6) scale(1,1)"><rect fill="#ffffff" stroke="none" x="692" y="252" width="58.799999999999955" height="15"></rect></g><g transform="translate(-2,-6) scale(1,1)"><path fill="none" stroke="#000000" d="M 692 252 L 750.8 252 L 750.8 267 L 692 267 L 692 252 Z Z" stroke-miterlimit="10"></path></g><g transform="translate(-2,-6) scale(1,1)"><rect fill="#ffffff" stroke="none" x="692" y="266" width="147" height="53"></rect></g><g transform="translate(-2,-6) scale(1,1)"><path fill="none" stroke="#000000" d="M 692 266 L 839 266 L 839 319 L 692 319 L 692 266 Z Z" stroke-miterlimit="10"></path></g><g transform="translate(-2,-6) scale(1,1)"><path fill="none" stroke="#000000" d="M 741.8 255 L 735.8 262 L 747.8 262 L 741.8 255" stroke-miterlimit="10"></path></g><g transform="translate(-2,-6) scale(1,1)"><g><path fill="none" stroke="none"></path><text fill="#000000" stroke="none" font-family="Arial" font-size="13px" font-style="normal" font-weight="bold" text-decoration="none" x="744.5" y="286.5">Model1</text></g></g><g transform="translate(-2,-6) scale(1,1)"><rect fill="#C0C0C0" stroke="none" x="703" y="363" width="57.200000000000045" height="15" opacity="0.2"></rect></g><g transform="translate(-2,-6) scale(1,1)"><rect fill="#C0C0C0" stroke="none" x="703" y="377" width="143" height="49" opacity="0.2"></rect></g><g transform="translate(-2,-6) scale(1,1)"><rect fill="#ffffff" stroke="none" x="696" y="371" width="143" height="48"></rect></g><g transform="translate(-2,-6) scale(1,1)"><path fill="none" stroke="#000000" d="M 696 371 L 839 371 L 839 419 L 696 419 L 696 371 Z Z" stroke-miterlimit="10"></path></g><g transform="translate(-2,-6) scale(1,1)"><rect fill="#ffffff" stroke="none" x="696" y="356" width="57.200000000000045" height="15"></rect></g><g transform="translate(-2,-6) scale(1,1)"><path fill="none" stroke="#000000" d="M 696 356 L 753.2 356 L 753.2 371 L 696 371 L 696 356 Z Z" stroke-miterlimit="10"></path></g><g transform="translate(-2,-6) scale(1,1)"><rect fill="#ffffff" stroke="none" x="696" y="370" width="143" height="49"></rect></g><g transform="translate(-2,-6) scale(1,1)"><path fill="none" stroke="#000000" d="M 696 370 L 839 370 L 839 419 L 696 419 L 696 370 Z Z" stroke-miterlimit="10"></path></g><g transform="translate(-2,-6) scale(1,1)"><path fill="none" stroke="#000000" d="M 745.2 359 L 745.2 363" stroke-miterlimit="10"></path></g><g transform="translate(-2,-6) scale(1,1)"><path fill="none" stroke="#000000" d="M 742.2 367 L 742.2 363 L 748.2 363" stroke-miterlimit="10"></path></g><g transform="translate(-2,-6) scale(1,1)"><path fill="none" stroke="#000000" d="M 748.2 367 L 748.2 363 L 742.2 363" stroke-miterlimit="10"></path></g><g transform="translate(-2,-6) scale(1,1)"><g><path fill="none" stroke="none"></path><text fill="#000000" stroke="none" font-family="Arial" font-size="13px" font-style="normal" font-weight="bold" text-decoration="none" x="731" y="390.5">Subsystem1</text></g></g><g transform="translate(-2,-6) scale(1,1)"><rect fill="#C0C0C0" stroke="none" x="723" y="163" width="40" height="15" opacity="0.2"></rect></g><g transform="translate(-2,-6) scale(1,1)"><rect fill="#C0C0C0" stroke="none" x="723" y="177" width="100" height="42" opacity="0.2"></rect></g><g transform="translate(-2,-6) scale(1,1)"><rect fill="#ffffff" stroke="none" x="716" y="171" width="100" height="41"></rect></g><g transform="translate(-2,-6) scale(1,1)"><path fill="none" stroke="#000000" d="M 716 171 L 816 171 L 816 212 L 716 212 L 716 171 Z Z" stroke-miterlimit="10"></path></g><g transform="translate(-2,-6) scale(1,1)"><rect fill="#ffffff" stroke="none" x="716" y="156" width="40" height="15"></rect></g><g transform="translate(-2,-6) scale(1,1)"><path fill="none" stroke="#000000" d="M 716 156 L 756 156 L 756 171 L 716 171 L 716 156 Z Z" stroke-miterlimit="10"></path></g><g transform="translate(-2,-6) scale(1,1)"><rect fill="#ffffff" stroke="none" x="716" y="170" width="100" height="42"></rect></g><g transform="translate(-2,-6) scale(1,1)"><path fill="none" stroke="#000000" d="M 716 170 L 816 170 L 816 212 L 716 212 L 716 170 Z Z" stroke-miterlimit="10"></path></g><g transform="translate(-2,-6) scale(1,1)"><g><path fill="none" stroke="none"></path><text fill="#000000" stroke="none" font-family="Arial" font-size="13px" font-style="normal" font-weight="bold" text-decoration="none" x="737" y="190.5">Package2</text></g></g><g transform="translate(-2,-6) scale(1,1)"><path fill="none" stroke="#000000" d="M 766.7699115044247 155 L 768.0176991150443 108" stroke-miterlimit="10"></path></g><g transform="translate(-2,-6) scale(1,1)"><path fill="#FFFFFF" stroke="none" d="M 760.831923865719 114.99753439125084 C 760.831923865719 111.13154079125084 763.965930265719 107.99753439125084 767.831923865719 107.99753439125084 C 771.697917465719 107.99753439125084 774.831923865719 111.13154079125084 774.831923865719 114.99753439125084 C 774.831923865719 118.86352799125083 771.697917465719 121.99753439125084 767.831923865719 121.99753439125084 C 763.965930265719 121.99753439125084 760.831923865719 118.86352799125083 760.831923865719 114.99753439125084 Z"></path></g><g transform="translate(-2,-6) scale(1,1)"><path fill="none" stroke="#000000" d="M 760.831923865719 114.99753439125084 C 760.831923865719 111.13154079125084 763.965930265719 107.99753439125084 767.831923865719 107.99753439125084 C 771.697917465719 107.99753439125084 774.831923865719 111.13154079125084 774.831923865719 114.99753439125084 C 774.831923865719 118.86352799125083 771.697917465719 121.99753439125084 767.831923865719 121.99753439125084 C 763.965930265719 121.99753439125084 760.831923865719 118.86352799125083 760.831923865719 114.99753439125084 Z" stroke-miterlimit="10"></path></g><g transform="translate(-2,-6) scale(1,1)"><path fill="none" stroke="#000000" d="M 767.6461486163937 121.99506878250166 L 768.0176991150443 108" stroke-miterlimit="10"></path></g><g transform="translate(-2,-6) scale(1,1)"><path fill="none" stroke="#000000" d="M 774.8294582569698 115.18330964057608 L 760.8343894744681 114.81175914192559" stroke-miterlimit="10"></path></g><g transform="translate(-2,-6) scale(1,1)"><rect fill="#C0C0C0" stroke="none" x="915" y="63" width="115" height="55" opacity="0.2"></rect></g><g transform="translate(-2,-6) scale(1,1)"><rect fill="#ffffff" stroke="none" x="908" y="56" width="115" height="55"></rect></g><g transform="translate(-2,-6) scale(1,1)"><path fill="none" stroke="#000000" d="M 908 56 L 1023 56 L 1023 111 L 908 111 L 908 56 Z Z" stroke-miterlimit="10"></path></g><g transform="translate(-2,-6) scale(1,1)"><rect fill="#ffffff" stroke="none" x="908" y="56" width="115" height="55"></rect></g><g transform="translate(-2,-6) scale(1,1)"><path fill="none" stroke="#000000" d="M 908 56 L 1023 56 L 1023 111 L 908 111 L 908 56 Z Z" stroke-miterlimit="10"></path></g><g transform="translate(-2,-6) scale(1,1)"><g><path fill="none" stroke="none"></path><text fill="#000000" stroke="none" font-family="Arial" font-size="13px" font-style="normal" font-weight="bold" text-decoration="none" x="943" y="75.5">Object1</text><path fill="none" stroke="#000000" d="M 988 75.5 L 943 75.5" stroke-miterlimit="10"></path></g></g><g transform="translate(-2,-6) scale(1,1)"><path fill="#C0C0C0" stroke="none" d="M 963 151 L 991 151 L 1003 163 L 1003 201 L 963 201" opacity="0.2"></path></g><g transform="translate(-2,-6) scale(1,1)"><path fill="#ffffff" stroke="none" d="M 956 144 L 984 144 L 996 156 L 996 194 L 956 194"></path></g><g transform="translate(-2,-6) scale(1,1)"><path fill="none" stroke="#000000" d="M 956 144 L 984 144 L 996 156 L 996 194 L 956 194 L 956 144" stroke-miterlimit="10"></path></g><g transform="translate(-2,-6) scale(1,1)"><path fill="none" stroke="#000000" d="M 984 144 L 984 156 L 996 156 L 984 144" stroke-miterlimit="10"></path></g><g transform="translate(-2,-6) scale(1,1)"><g><path fill="none" stroke="none"></path><text fill="#000000" stroke="none" font-family="Arial" font-size="13px" font-style="normal" font-weight="bold" text-decoration="none" x="926.5" y="213.5">ArtifactInstance1</text><path fill="none" stroke="#000000" d="M 1025.5 213.5 L 926.5 213.5" stroke-miterlimit="10"></path></g></g><g transform="translate(-2,-6) scale(1,1)"><rect fill="#C0C0C0" stroke="none" x="917" y="251" width="150" height="44" opacity="0.2"></rect></g><g transform="translate(-2,-6) scale(1,1)"><rect fill="#ffffff" stroke="none" x="910" y="244" width="150" height="44"></rect></g><g transform="translate(-2,-6) scale(1,1)"><path fill="none" stroke="#000000" d="M 910 244 L 1060 244 L 1060 288 L 910 288 L 910 244 Z Z" stroke-miterlimit="10"></path></g><g transform="translate(-2,-6) scale(1,1)"><rect fill="#ffffff" stroke="none" x="900" y="251" width="20" height="10"></rect></g><g transform="translate(-2,-6) scale(1,1)"><path fill="none" stroke="#000000" d="M 900 251 L 920 251 L 920 261 L 900 261 L 900 251 Z Z" stroke-miterlimit="10"></path></g><g transform="translate(-2,-6) scale(1,1)"><rect fill="#ffffff" stroke="none" x="900" y="271" width="20" height="10"></rect></g><g transform="translate(-2,-6) scale(1,1)"><path fill="none" stroke="#000000" d="M 900 271 L 920 271 L 920 281 L 900 281 L 900 271 Z Z" stroke-miterlimit="10"></path></g><g transform="translate(-2,-6) scale(1,1)"><g><path fill="none" stroke="none"></path><text fill="#000000" stroke="none" font-family="Arial" font-size="13px" font-style="normal" font-weight="bold" text-decoration="none" x="928.5" y="263.5">ComponentInstance1</text><path fill="none" stroke="#000000" d="M 1051.5 263.5 L 928.5 263.5" stroke-miterlimit="10"></path></g></g><g transform="translate(-2,-6) scale(1,1)"><path fill="#C0C0C0" stroke="none" d="M 931 373 L 1030 373 L 1030 421 L 931 421" opacity="0.2"></path></g><g transform="translate(-2,-6) scale(1,1)"><path fill="#C0C0C0" stroke="none" d="M 931 373 L 941 363 L 1040 363 L 1030 373" opacity="0.2"></path></g><g transform="translate(-2,-6) scale(1,1)"><path fill="#C0C0C0" stroke="none" d="M 1040 363 L 1030 373 L 1030 421 L 1040 411" opacity="0.2"></path></g><g transform="translate(-2,-6) scale(1,1)"><path fill="#ffffff" stroke="none" d="M 924 366 L 1023 366 L 1023 414 L 924 414"></path></g><g transform="translate(-2,-6) scale(1,1)"><path fill="#ffffff" stroke="none" d="M 924 366 L 934 356 L 1033 356 L 1023 366"></path></g><g transform="translate(-2,-6) scale(1,1)"><path fill="#ffffff" stroke="none" d="M 1033 356 L 1023 366 L 1023 414 L 1033 404"></path></g><g transform="translate(-2,-6) scale(1,1)"><path fill="none" stroke="#000000" d="M 924 366 L 1023 366 L 1023 414 L 924 414 L 924 366" stroke-miterlimit="10"></path></g><g transform="translate(-2,-6) scale(1,1)"><path fill="none" stroke="#000000" d="M 924 366 L 934 356 L 1033 356 L 1023 366 L 924 366" stroke-miterlimit="10"></path></g><g transform="translate(-2,-6) scale(1,1)"><path fill="none" stroke="#000000" d="M 1033 356 L 1023 366 L 1023 414 L 1033 404 L 1033 356" stroke-miterlimit="10"></path></g><g transform="translate(-2,-6) scale(1,1)"><g><path fill="none" stroke="none"></path><text fill="#000000" stroke="none" font-family="Arial" font-size="13px" font-style="normal" font-weight="bold" text-decoration="none" x="930.5" y="385.5">NodeInstance1</text><path fill="none" stroke="#000000" d="M 1017.5 385.5 L 930.5 385.5" stroke-miterlimit="10"></path></g></g><g transform="translate(-2,-6) scale(1,1)"><path fill="none" stroke="#000000" d="M 979.8067226890756 289 L 979.2521008403361 355" stroke-miterlimit="10"></path></g><g transform="translate(-2,-6) scale(1,1)"><path fill="none" stroke="#000000" d="M 1035 357.5090909090909 L 1144 304 L 1080 180 L 1033 180.45192307692307" stroke-miterlimit="10"></path></g><g transform="translate(-2,-6) scale(1,1)"><path fill="none" stroke="#000000" d="M 1043.1217308307132 176.1448863937043 L 1033 180.45192307692307 L 1043.2026793532655 184.56353273914203" stroke-miterlimit="10"></path></g><g transform="translate(-2,-6) scale(1,1)"><g><path fill="none" stroke="none"></path><text fill="#000000" stroke="none" font-family="Arial" font-size="13px" font-style="normal" font-weight="normal" text-decoration="none" x="1129" y="74">This is annotation text</text></g></g><g transform="translate(-2,-6) scale(1,1)"><g><path fill="none" stroke="none"></path><text fill="#000000" stroke="none" font-family="Arial" font-size="13px" font-style="normal" font-weight="normal" text-decoration="none" x="1129" y="89">This is second line...</text></g></g><g transform="translate(-2,-6) scale(1,1)"><path fill="#ffffff" stroke="none" d="M 1120 112 L 1260 112 L 1270 122 L 1270 167 L 1120 167 L 1120 112"></path></g><g transform="translate(-2,-6) scale(1,1)"><path fill="none" stroke="#000000" d="M 1120 112 L 1260 112 L 1270 122 L 1270 167 L 1120 167 L 1120 112 L 1120 112" stroke-miterlimit="10"></path></g><g transform="translate(-2,-6) scale(1,1)"><path fill="none" stroke="#000000" d="M 1260 112 L 1260 122 L 1270 122 L 1260 112" stroke-miterlimit="10"></path></g><g transform="translate(-2,-6) scale(1,1)"><g><path fill="none" stroke="none"></path><text fill="#000000" stroke="none" font-family="Arial" font-size="13px" font-style="normal" font-weight="normal" text-decoration="none" x="1125" y="130">This is annotation text</text></g></g><g transform="translate(-2,-6) scale(1,1)"><g><path fill="none" stroke="none"></path><text fill="#000000" stroke="none" font-family="Arial" font-size="13px" font-style="normal" font-weight="normal" text-decoration="none" x="1125" y="145">This is second line...</text></g></g><g transform="translate(-2,-6) scale(1,1)"><path fill="none" stroke="#000000" d="M 1024 97.62173913043478 L 1119 121.16521739130434" stroke-miterlimit="10" stroke-dasharray="3"></path></g><g transform="translate(-2,-6) scale(1,1)"><rect fill="#ffa3ff" stroke="none" x="1324" y="68" width="111" height="83"></rect></g><g transform="translate(-2,-6) scale(1,1)"><path fill="none" stroke="#000000" d="M 1324 68 L 1435 68 L 1435 151 L 1324 151 L 1324 68 Z Z" stroke-miterlimit="10"></path></g><g transform="translate(-2,-6) scale(1,1)"><path fill="#ffa3ff" stroke="none" d="M 1349.3333333333333 180 L 1417.6666666666667 180 Q 1435 180 1435 197.33333333333334 L 1435 209.66666666666666 Q 1435 227 1417.6666666666667 227 L 1349.3333333333333 227 Q 1332 227 1332 209.66666666666666 L 1332 197.33333333333334 Q 1332 180 1349.3333333333333 180 Z"></path></g><g transform="translate(-2,-6) scale(1,1)"><path fill="none" stroke="#000000" d="M 1349.3333333333333 180 L 1417.6666666666667 180 Q 1435 180 1435 197.33333333333334 L 1435 209.66666666666666 Q 1435 227 1417.6666666666667 227 L 1349.3333333333333 227 Q 1332 227 1332 209.66666666666666 L 1332 197.33333333333334 Q 1332 180 1349.3333333333333 180 Z" stroke-miterlimit="10"></path></g><g transform="translate(-2,-6) scale(1,1)"><path fill="#ffa3ff" stroke="none" d="M 1340 287.5 C 1340 276.7304464 1360.3710416 268 1385.5 268 C 1410.6289584 268 1431 276.7304464 1431 287.5 C 1431 298.2695536 1410.6289584 307 1385.5 307 C 1360.3710416 307 1340 298.2695536 1340 287.5 Z"></path></g><g transform="translate(-2,-6) scale(1,1)"><path fill="none" stroke="#000000" d="M 1340 287.5 C 1340 276.7304464 1360.3710416 268 1385.5 268 C 1410.6289584 268 1431 276.7304464 1431 287.5 C 1431 298.2695536 1410.6289584 307 1385.5 307 C 1360.3710416 307 1340 298.2695536 1340 287.5 Z" stroke-miterlimit="10"></path></g><g transform="translate(-2,-6) scale(1,1)"><rect fill="#C0C0C0" stroke="none" x="319" y="235" width="97" height="44" opacity="0.2"></rect></g><g transform="translate(-2,-6) scale(1,1)"><rect fill="#ffffff" stroke="none" x="312" y="228" width="97" height="44"></rect></g><g transform="translate(-2,-6) scale(1,1)"><path fill="none" stroke="#000000" d="M 312 228 L 409 228 L 409 272 L 312 272 L 312 228 Z Z" stroke-miterlimit="10"></path></g><g transform="translate(-2,-6) scale(1,1)"><path fill="none" stroke="#000000" d="M 312 253 L 409 253" stroke-miterlimit="10"></path></g><g transform="translate(-2,-6) scale(1,1)"><path fill="none" stroke="#000000" d="M 312 263 L 409 263" stroke-miterlimit="10"></path></g><g transform="translate(-2,-6) scale(1,1)"><g><path fill="none" stroke="none"></path><text fill="#000000" stroke="none" font-family="Courier" font-size="13px" font-style="normal" font-weight="bold" text-decoration="none" x="332.5" y="247.5">Courier</text></g></g><g transform="translate(-2,-6) scale(1,1)"><rect fill="#C0C0C0" stroke="none" x="323" y="303" width="50" height="44" opacity="0.2"></rect></g><g transform="translate(-2,-6) scale(1,1)"><rect fill="#ffffff" stroke="none" x="316" y="296" width="50" height="44"></rect></g><g transform="translate(-2,-6) scale(1,1)"><path fill="none" stroke="#000000" d="M 316 296 L 366 296 L 366 340 L 316 340 L 316 296 Z Z" stroke-miterlimit="10"></path></g><g transform="translate(-2,-6) scale(1,1)"><path fill="none" stroke="#000000" d="M 316 321 L 366 321" stroke-miterlimit="10"></path></g><g transform="translate(-2,-6) scale(1,1)"><path fill="none" stroke="#000000" d="M 316 331 L 366 331" stroke-miterlimit="10"></path></g><g transform="translate(-2,-6) scale(1,1)"><g><path fill="none" stroke="none"></path><text fill="#000000" stroke="none" font-family="Times" font-size="13px" font-style="normal" font-weight="bold" text-decoration="none" x="324.5" y="315.5">Times</text></g></g><g transform="translate(-2,-6) scale(1,1)"><rect fill="#C0C0C0" stroke="none" x="403" y="303" width="125" height="44" opacity="0.2"></rect></g><g transform="translate(-2,-6) scale(1,1)"><rect fill="#ffffff" stroke="none" x="396" y="296" width="125" height="44"></rect></g><g transform="translate(-2,-6) scale(1,1)"><path fill="none" stroke="#000000" d="M 396 296 L 521 296 L 521 340 L 396 340 L 396 296 Z Z" stroke-miterlimit="10"></path></g><g transform="translate(-2,-6) scale(1,1)"><path fill="none" stroke="#000000" d="M 396 321 L 521 321" stroke-miterlimit="10"></path></g><g transform="translate(-2,-6) scale(1,1)"><path fill="none" stroke="#000000" d="M 396 331 L 521 331" stroke-miterlimit="10"></path></g><g transform="translate(-2,-6) scale(1,1)"><g><path fill="none" stroke="none"></path><text fill="#000000" stroke="none" font-family="Times New Roman" font-size="13px" font-style="normal" font-weight="bold" text-decoration="none" x="407.5" y="315.5">Times New Roman</text></g></g><g transform="translate(-2,-6) scale(1,1)"><rect fill="#C0C0C0" stroke="none" x="443" y="235" width="97" height="44" opacity="0.2"></rect></g><g transform="translate(-2,-6) scale(1,1)"><rect fill="#ffffff" stroke="none" x="436" y="228" width="97" height="44"></rect></g><g transform="translate(-2,-6) scale(1,1)"><path fill="none" stroke="#000000" d="M 436 228 L 533 228 L 533 272 L 436 272 L 436 228 Z Z" stroke-miterlimit="10"></path></g><g transform="translate(-2,-6) scale(1,1)"><path fill="none" stroke="#000000" d="M 436 253 L 533 253" stroke-miterlimit="10"></path></g><g transform="translate(-2,-6) scale(1,1)"><path fill="none" stroke="#000000" d="M 436 263 L 533 263" stroke-miterlimit="10"></path></g><g transform="translate(-2,-6) scale(1,1)"><g><path fill="none" stroke="none"></path><text fill="#000000" stroke="none" font-family="Courier New" font-size="13px" font-style="normal" font-weight="bold" text-decoration="none" x="440.5" y="247.5">Courier New</text></g></g><g transform="translate(-2,-6) scale(1,1)"><rect fill="#C0C0C0" stroke="none" x="323" y="375" width="65" height="44" opacity="0.2"></rect></g><g transform="translate(-2,-6) scale(1,1)"><rect fill="#ffffff" stroke="none" x="316" y="368" width="65" height="44"></rect></g><g transform="translate(-2,-6) scale(1,1)"><path fill="none" stroke="#000000" d="M 316 368 L 381 368 L 381 412 L 316 412 L 316 368 Z Z" stroke-miterlimit="10"></path></g><g transform="translate(-2,-6) scale(1,1)"><path fill="none" stroke="#000000" d="M 316 393 L 381 393" stroke-miterlimit="10"></path></g><g transform="translate(-2,-6) scale(1,1)"><path fill="none" stroke="#000000" d="M 316 403 L 381 403" stroke-miterlimit="10"></path></g><g transform="translate(-2,-6) scale(1,1)"><g><path fill="none" stroke="none"></path><text fill="#000000" stroke="none" font-family="Helvetica" font-size="13px" font-style="normal" font-weight="bold" text-decoration="none" x="321.5" y="387.5">Helvetica</text></g></g></g></svg>