<svg version="1.1" xmlns="http://www.w3.org/2000/svg" xmlns:xlink="http://www.w3.org/1999/xlink" width="610" height="363"><defs></defs><g><g transform="translate(-34,-26) scale(1,1)"><rect fill="#C0C0C0" stroke="none" x="291" y="43" width="99" height="40" opacity="0.2"></rect></g><g transform="translate(-34,-26) scale(1,1)"><rect fill="#C0C0C0" stroke="none" x="284" y="36" width="99" height="40"></rect></g><g transform="translate(-34,-26) scale(1,1)"><path fill="none" stroke="#000000" d="M 284 36 L 383 36 L 383 76 L 284 76 L 284 36 Z Z" stroke-miterlimit="10"></path></g><g transform="translate(-34,-26) scale(1,1)"><g><path fill="none" stroke="none"></path><text fill="#000000" stroke="none" font-family="Arial" font-size="11px" font-style="normal" font-weight="bold" text-decoration="none" x="308" y="53.5">UMLClass</text></g></g><g transform="translate(-34,-26) scale(1,1)"><rect fill="#C0C0C0" stroke="none" x="60" y="44" width="79" height="43" opacity="0.2"></rect></g><g transform="translate(-34,-26) scale(1,1)"><rect fill="#C0C0C0" stroke="none" x="53" y="37" width="79" height="43"></rect></g><g transform="translate(-34,-26) scale(1,1)"><path fill="none" stroke="#000000" d="M 53 37 L 132 37 L 132 80 L 53 80 L 53 37 Z Z" stroke-miterlimit="10"></path></g><g transform="translate(-34,-26) scale(1,1)"><g><path fill="none" stroke="none"></path><text fill="#000000" stroke="none" font-family="Arial" font-size="11px" font-style="normal" font-weight="bold" text-decoration="none" x="59.5" y="54.5">UMLPackage</text></g></g><g transform="translate(-34,-26) scale(1,1)"><rect fill="#C0C0C0" stroke="none" x="207" y="163" width="121" height="89" opacity="0.2"></rect></g><g transform="translate(-34,-26) scale(1,1)"><rect fill="#FFFFFF" stroke="none" x="200" y="156" width="121" height="89"></rect></g><g transform="translate(-34,-26) scale(1,1)"><path fill="none" stroke="#000000" d="M 200 156 L 321 156 L 321 245 L 200 245 L 200 156 Z Z" stroke-miterlimit="10"></path></g><g transform="translate(-34,-26) scale(1,1)"><path fill="none" stroke="#000000" d="M 200 179 L 321 179" stroke-miterlimit="10"></path></g><g transform="translate(-34,-26) scale(1,1)"><g><path fill="none" stroke="none"></path><text fill="#000000" stroke="none" font-family="Arial" font-size="11px" font-style="normal" font-weight="bold" text-decoration="none" x="222.5" y="173.5">UMLStereotype</text></g></g><g transform="translate(-34,-26) scale(1,1)"><rect fill="#C0C0C0" stroke="none" x="51" y="163" width="96" height="76" opacity="0.2"></rect></g><g transform="translate(-34,-26) scale(1,1)"><rect fill="#FFFFFF" stroke="none" x="44" y="156" width="96" height="76"></rect></g><g transform="translate(-34,-26) scale(1,1)"><path fill="none" stroke="#000000" d="M 44 156 L 140 156 L 140 232 L 44 232 L 44 156 Z Z" stroke-miterlimit="10"></path></g><g transform="translate(-34,-26) scale(1,1)"><path fill="none" stroke="#000000" d="M 44 179 L 140 179" stroke-miterlimit="10"></path></g><g transform="translate(-34,-26) scale(1,1)"><g><path fill="none" stroke="none"></path><text fill="#000000" stroke="none" font-family="Arial" font-size="11px" font-style="normal" font-weight="bold" text-decoration="none" x="65.5" y="173.5">UMLProfile</text></g></g><g transform="translate(-34,-26) scale(1,1)"><path fill="none" stroke="#000000" d="M 92 156 L 92 80" stroke-miterlimit="10"></path></g><g transform="translate(-34,-26) scale(1,1)"><path fill="#FFFFFF" stroke="none" d="M 100.41903551203198 100.32534971524831 L 92 80 L 83.58096448796803 100.32534971524831"></path></g><g transform="translate(-34,-26) scale(1,1)"><path fill="none" stroke="#000000" d="M 100.41903551203198 100.32534971524831 L 92 80 L 83.58096448796803 100.32534971524831 L 100.41903551203198 100.32534971524831" stroke-miterlimit="10"></path></g><g transform="translate(-34,-26) scale(1,1)"><path fill="none" stroke="#000000" d="M 252 156 L 252 124 L 332 124 L 332 76" stroke-miterlimit="10"></path></g><g transform="translate(-34,-26) scale(1,1)"><path fill="#FFFFFF" stroke="none" d="M 340.419035512032 96.32534971524831 L 332 76 L 323.580964487968 96.32534971524831"></path></g><g transform="translate(-34,-26) scale(1,1)"><path fill="none" stroke="#000000" d="M 340.419035512032 96.32534971524831 L 332 76 L 323.580964487968 96.32534971524831 L 340.419035512032 96.32534971524831" stroke-miterlimit="10"></path></g><g transform="translate(-34,-26) scale(1,1)"><rect fill="#C0C0C0" stroke="none" x="487" y="43" width="154" height="36" opacity="0.2"></rect></g><g transform="translate(-34,-26) scale(1,1)"><rect fill="#C0C0C0" stroke="none" x="480" y="36" width="154" height="36"></rect></g><g transform="translate(-34,-26) scale(1,1)"><path fill="none" stroke="#000000" d="M 480 36 L 634 36 L 634 72 L 480 72 L 480 36 Z Z" stroke-miterlimit="10"></path></g><g transform="translate(-34,-26) scale(1,1)"><g><path fill="none" stroke="none"></path><text fill="#000000" stroke="none" font-family="Arial" font-size="11px" font-style="normal" font-weight="bold" text-decoration="none" x="495.5" y="53.5">UMLDirectedRelationship</text></g></g><g transform="translate(-34,-26) scale(1,1)"><rect fill="#C0C0C0" stroke="none" x="507" y="163" width="112" height="68" opacity="0.2"></rect></g><g transform="translate(-34,-26) scale(1,1)"><rect fill="#FFFFFF" stroke="none" x="500" y="156" width="112" height="68"></rect></g><g transform="translate(-34,-26) scale(1,1)"><path fill="none" stroke="#000000" d="M 500 156 L 612 156 L 612 224 L 500 224 L 500 156 Z Z" stroke-miterlimit="10"></path></g><g transform="translate(-34,-26) scale(1,1)"><path fill="none" stroke="#000000" d="M 500 179 L 612 179" stroke-miterlimit="10"></path></g><g transform="translate(-34,-26) scale(1,1)"><g><path fill="none" stroke="none"></path><text fill="#000000" stroke="none" font-family="Arial" font-size="11px" font-style="normal" font-weight="bold" text-decoration="none" x="520.5" y="173.5">UMLExtension</text></g></g><g transform="translate(-34,-26) scale(1,1)"><path fill="none" stroke="#000000" d="M 555 156 L 555 72" stroke-miterlimit="10"></path></g><g transform="translate(-34,-26) scale(1,1)"><path fill="#FFFFFF" stroke="none" d="M 563.419035512032 92.32534971524831 L 555 72 L 546.580964487968 92.32534971524831"></path></g><g transform="translate(-34,-26) scale(1,1)"><path fill="none" stroke="#000000" d="M 563.419035512032 92.32534971524831 L 555 72 L 546.580964487968 92.32534971524831 L 563.419035512032 92.32534971524831" stroke-miterlimit="10"></path></g><g transform="translate(-34,-26) scale(1,1)"><rect fill="#C0C0C0" stroke="none" x="207" y="311" width="124" height="75" opacity="0.2"></rect></g><g transform="translate(-34,-26) scale(1,1)"><rect fill="#FFFFFF" stroke="none" x="200" y="304" width="124" height="75"></rect></g><g transform="translate(-34,-26) scale(1,1)"><path fill="none" stroke="#000000" d="M 200 304 L 324 304 L 324 379 L 200 379 L 200 304 Z Z" stroke-miterlimit="10"></path></g><g transform="translate(-34,-26) scale(1,1)"><path fill="none" stroke="#000000" d="M 200 327 L 324 327" stroke-miterlimit="10"></path></g><g transform="translate(-34,-26) scale(1,1)"><g><path fill="none" stroke="none"></path><text fill="#000000" stroke="none" font-family="Arial" font-size="11px" font-style="normal" font-weight="bold" text-decoration="none" x="235.5" y="321.5">UMLImage</text></g></g><g transform="translate(-34,-26) scale(1,1)"><g><path fill="none" stroke="none"></path><text fill="#000000" stroke="none" font-family="Arial" font-size="11px" font-style="normal" font-weight="normal" text-decoration="none" x="205" y="342.5">+width: Integer</text></g></g><g transform="translate(-34,-26) scale(1,1)"><g><path fill="none" stroke="none"></path><text fill="#000000" stroke="none" font-family="Arial" font-size="11px" font-style="normal" font-weight="normal" text-decoration="none" x="205" y="355.5">+height: Integer</text></g></g><g transform="translate(-34,-26) scale(1,1)"><g><path fill="none" stroke="none"></path><text fill="#000000" stroke="none" font-family="Arial" font-size="11px" font-style="normal" font-weight="normal" text-decoration="none" x="205" y="368.5">+content: String</text></g></g><g transform="translate(-34,-26) scale(1,1)"><path fill="none" stroke="#000000" d="M 263 304 L 263 245" stroke-miterlimit="10"></path></g><g transform="translate(-34,-26) scale(1,1)"><path fill="#000000" stroke="none" d="M 267.209517756016 255.16267485762415 L 263 245 L 258.790482243984 255.16267485762415 L 263 267"></path></g><g transform="translate(-34,-26) scale(1,1)"><path fill="none" stroke="#000000" d="M 267.209517756016 255.16267485762415 L 263 245 L 258.790482243984 255.16267485762415 L 263 267 L 267.209517756016 255.16267485762415" stroke-miterlimit="10"></path></g><g transform="translate(-34,-26) scale(1,1)"><g><path fill="none" stroke="none"></path><text fill="#000000" stroke="none" font-family="Arial" font-size="11px" font-style="normal" font-weight="normal" text-decoration="none" x="227" y="296">+icon</text></g></g><g transform="translate(-34,-26) scale(1,1)"><g><path fill="none" stroke="none"></path><text fill="#000000" stroke="none" font-family="Arial" font-size="11px" font-style="normal" font-weight="normal" text-decoration="none" x="271" y="297">1</text></g></g><g transform="translate(-34,-26) scale(1,1)"><rect fill="#C0C0C0" stroke="none" x="355" y="163" width="104" height="68" opacity="0.2"></rect></g><g transform="translate(-34,-26) scale(1,1)"><rect fill="#FFFFFF" stroke="none" x="348" y="156" width="104" height="68"></rect></g><g transform="translate(-34,-26) scale(1,1)"><path fill="none" stroke="#000000" d="M 348 156 L 452 156 L 452 224 L 348 224 L 348 156 Z Z" stroke-miterlimit="10"></path></g><g transform="translate(-34,-26) scale(1,1)"><path fill="none" stroke="#000000" d="M 348 179 L 452 179" stroke-miterlimit="10"></path></g><g transform="translate(-34,-26) scale(1,1)"><g><path fill="none" stroke="none"></path><text fill="#000000" stroke="none" font-family="Arial" font-size="11px" font-style="normal" font-weight="bold" text-decoration="none" x="362.5" y="173.5">UMLMetaClass</text></g></g><g transform="translate(-34,-26) scale(1,1)"><path fill="none" stroke="#000000" d="M 388 156 L 388 124 L 332 124 L 332 76" stroke-miterlimit="10"></path></g><g transform="translate(-34,-26) scale(1,1)"><path fill="#FFFFFF" stroke="none" d="M 340.419035512032 96.32534971524831 L 332 76 L 323.580964487968 96.32534971524831"></path></g><g transform="translate(-34,-26) scale(1,1)"><path fill="none" stroke="#000000" d="M 340.419035512032 96.32534971524831 L 332 76 L 323.580964487968 96.32534971524831 L 340.419035512032 96.32534971524831" stroke-miterlimit="10"></path></g></g></svg>