<svg version="1.1" xmlns="http://www.w3.org/2000/svg" xmlns:xlink="http://www.w3.org/1999/xlink" width="828" height="676"><defs></defs><g><g transform="translate(-18,-10) scale(1,1)"><rect fill="#C0C0C0" stroke="none" x="255" y="151" width="112" height="32" opacity="0.2"></rect></g><g transform="translate(-18,-10) scale(1,1)"><rect fill="#C0C0C0" stroke="none" x="248" y="144" width="112" height="32"></rect></g><g transform="translate(-18,-10) scale(1,1)"><path fill="none" stroke="#000000" d="M 248 144 L 360 144 L 360 176 L 248 176 L 248 144 Z Z" stroke-miterlimit="10"></path></g><g transform="translate(-18,-10) scale(1,1)"><g><path fill="none" stroke="none"></path><text fill="#000000" stroke="none" font-family="Arial" font-size="11px" font-style="normal" font-weight="bold" text-decoration="none" x="258.5" y="161.5">UMLModelElement</text></g></g><g transform="translate(-18,-10) scale(1,1)"><rect fill="#C0C0C0" stroke="none" x="515" y="251" width="147" height="32" opacity="0.2"></rect></g><g transform="translate(-18,-10) scale(1,1)"><rect fill="#C0C0C0" stroke="none" x="508" y="244" width="147" height="32"></rect></g><g transform="translate(-18,-10) scale(1,1)"><path fill="none" stroke="#000000" d="M 508 244 L 655 244 L 655 276 L 508 276 L 508 244 Z Z" stroke-miterlimit="10"></path></g><g transform="translate(-18,-10) scale(1,1)"><g><path fill="none" stroke="none"></path><text fill="#000000" stroke="none" font-family="Arial" font-size="11px" font-style="normal" font-weight="bold" text-decoration="none" x="520" y="261.5">UMLDirectedRelationship</text></g></g><g transform="translate(-18,-10) scale(1,1)"><rect fill="#C0C0C0" stroke="none" x="399" y="95" width="116" height="48" opacity="0.2"></rect></g><g transform="translate(-18,-10) scale(1,1)"><rect fill="#FFFFFF" stroke="none" x="392" y="88" width="116" height="48"></rect></g><g transform="translate(-18,-10) scale(1,1)"><path fill="none" stroke="#000000" d="M 392 88 L 508 88 L 508 136 L 392 136 L 392 88 Z Z" stroke-miterlimit="10"></path></g><g transform="translate(-18,-10) scale(1,1)"><path fill="none" stroke="#000000" d="M 392 111 L 508 111" stroke-miterlimit="10"></path></g><g transform="translate(-18,-10) scale(1,1)"><g><path fill="none" stroke="none"></path><text fill="#000000" stroke="none" font-family="Arial" font-size="11px" font-style="normal" font-weight="bold" text-decoration="none" x="405.5" y="105.5">UMLStateMachine</text></g></g><g transform="translate(-18,-10) scale(1,1)"><rect fill="#C0C0C0" stroke="none" x="423" y="459" width="168" height="128" opacity="0.2"></rect></g><g transform="translate(-18,-10) scale(1,1)"><rect fill="#FFFFFF" stroke="none" x="416" y="452" width="168" height="128"></rect></g><g transform="translate(-18,-10) scale(1,1)"><path fill="none" stroke="#000000" d="M 416 452 L 584 452 L 584 580 L 416 580 L 416 452 Z Z" stroke-miterlimit="10"></path></g><g transform="translate(-18,-10) scale(1,1)"><path fill="none" stroke="#000000" d="M 416 475 L 584 475" stroke-miterlimit="10"></path></g><g transform="translate(-18,-10) scale(1,1)"><g><path fill="none" stroke="none"></path><text fill="#000000" stroke="none" font-family="Arial" font-size="11px" font-style="normal" font-weight="bold" text-decoration="none" x="476" y="469.5">UMLState</text></g></g><g transform="translate(-18,-10) scale(1,1)"><rect fill="#C0C0C0" stroke="none" x="379" y="327" width="212" height="64" opacity="0.2"></rect></g><g transform="translate(-18,-10) scale(1,1)"><rect fill="#FFFFFF" stroke="none" x="372" y="320" width="212" height="64"></rect></g><g transform="translate(-18,-10) scale(1,1)"><path fill="none" stroke="#000000" d="M 372 320 L 584 320 L 584 384 L 372 384 L 372 320 Z Z" stroke-miterlimit="10"></path></g><g transform="translate(-18,-10) scale(1,1)"><path fill="none" stroke="#000000" d="M 372 343 L 584 343" stroke-miterlimit="10"></path></g><g transform="translate(-18,-10) scale(1,1)"><g><path fill="none" stroke="none"></path><text fill="#000000" stroke="none" font-family="Arial" font-size="11px" font-style="normal" font-weight="bold" text-decoration="none" x="442.5" y="337.5">UMLTransition</text></g></g><g transform="translate(-18,-10) scale(1,1)"><g><path fill="none" stroke="none"></path><text fill="#000000" stroke="none" font-family="Arial" font-size="11px" font-style="normal" font-weight="normal" text-decoration="none" x="377" y="358.5">+kind: UMLTransitionKind</text></g></g><g transform="translate(-18,-10) scale(1,1)"><g><path fill="none" stroke="none"></path><text fill="#000000" stroke="none" font-family="Arial" font-size="11px" font-style="normal" font-weight="normal" text-decoration="none" x="377" y="371.5">+guard: String</text></g></g><g transform="translate(-18,-10) scale(1,1)"><path fill="none" stroke="#000000" d="M 444 88 L 444 53" stroke-miterlimit="10"></path></g><g transform="translate(-18,-10) scale(1,1)"><path fill="#FFFFFF" stroke="none" d="M 452.419035512032 73.32534971524831 L 444 53 L 435.580964487968 73.32534971524831"></path></g><g transform="translate(-18,-10) scale(1,1)"><path fill="none" stroke="#000000" d="M 452.419035512032 73.32534971524831 L 444 53 L 435.580964487968 73.32534971524831 L 452.419035512032 73.32534971524831" stroke-miterlimit="10"></path></g><g transform="translate(-18,-10) scale(1,1)"><path fill="none" stroke="#000000" d="M 440 452 L 440 424 L 244 424 L 244 367" stroke-miterlimit="10"></path></g><g transform="translate(-18,-10) scale(1,1)"><path fill="#FFFFFF" stroke="none" d="M 252.41903551203197 387.3253497152483 L 244 367 L 235.58096448796803 387.3253497152483"></path></g><g transform="translate(-18,-10) scale(1,1)"><path fill="none" stroke="#000000" d="M 252.41903551203197 387.3253497152483 L 244 367 L 235.58096448796803 387.3253497152483 L 252.41903551203197 387.3253497152483" stroke-miterlimit="10"></path></g><g transform="translate(-18,-10) scale(1,1)"><path fill="none" stroke="#000000" d="M 556 320 L 556 276" stroke-miterlimit="10"></path></g><g transform="translate(-18,-10) scale(1,1)"><path fill="#FFFFFF" stroke="none" d="M 564.419035512032 296.3253497152483 L 556 276 L 547.580964487968 296.3253497152483"></path></g><g transform="translate(-18,-10) scale(1,1)"><path fill="none" stroke="#000000" d="M 564.419035512032 296.3253497152483 L 556 276 L 547.580964487968 296.3253497152483 L 564.419035512032 296.3253497152483" stroke-miterlimit="10"></path></g><g transform="translate(-18,-10) scale(1,1)"><path fill="none" stroke="#000000" d="M 272 324 L 272 271" stroke-miterlimit="10"></path></g><g transform="translate(-18,-10) scale(1,1)"><path fill="#000000" stroke="none" d="M 276.209517756016 281.16267485762415 L 272 271 L 267.790482243984 281.16267485762415 L 272 293"></path></g><g transform="translate(-18,-10) scale(1,1)"><path fill="none" stroke="#000000" d="M 276.209517756016 281.16267485762415 L 272 271 L 267.790482243984 281.16267485762415 L 272 293 L 276.209517756016 281.16267485762415" stroke-miterlimit="10"></path></g><g transform="translate(-18,-10) scale(1,1)"><g><path fill="none" stroke="none"></path><text fill="#000000" stroke="none" font-family="Arial" font-size="11px" font-style="normal" font-weight="normal" text-decoration="none" x="271" y="319">+vertices</text></g></g><g transform="translate(-18,-10) scale(1,1)"><g><path fill="none" stroke="none"></path><text fill="#000000" stroke="none" font-family="Arial" font-size="11px" font-style="normal" font-weight="normal" text-decoration="none" x="250" y="320">0..*</text></g></g><g transform="translate(-18,-10) scale(1,1)"><path fill="none" stroke="#000000" d="M 432 320 L 432 271" stroke-miterlimit="10"></path></g><g transform="translate(-18,-10) scale(1,1)"><path fill="#000000" stroke="none" d="M 436.209517756016 281.16267485762415 L 432 271 L 427.790482243984 281.16267485762415 L 432 293"></path></g><g transform="translate(-18,-10) scale(1,1)"><path fill="none" stroke="#000000" d="M 436.209517756016 281.16267485762415 L 432 271 L 427.790482243984 281.16267485762415 L 432 293 L 436.209517756016 281.16267485762415" stroke-miterlimit="10"></path></g><g transform="translate(-18,-10) scale(1,1)"><g><path fill="none" stroke="none"></path><text fill="#000000" stroke="none" font-family="Arial" font-size="11px" font-style="normal" font-weight="normal" text-decoration="none" x="370" y="316">+transitions</text></g></g><g transform="translate(-18,-10) scale(1,1)"><g><path fill="none" stroke="none"></path><text fill="#000000" stroke="none" font-family="Arial" font-size="11px" font-style="normal" font-weight="normal" text-decoration="none" x="436" y="315">0..*</text></g></g><g transform="translate(-18,-10) scale(1,1)"><path fill="none" stroke="#000000" d="M 720 464 L 584 464" stroke-miterlimit="10"></path></g><g transform="translate(-18,-10) scale(1,1)"><path fill="#000000" stroke="none" d="M 594.1626748576241 459.790482243984 L 584 464 L 594.1626748576241 468.209517756016 L 606 464"></path></g><g transform="translate(-18,-10) scale(1,1)"><path fill="none" stroke="#000000" d="M 594.1626748576241 459.790482243984 L 584 464 L 594.1626748576241 468.209517756016 L 606 464 L 594.1626748576241 459.790482243984" stroke-miterlimit="10"></path></g><g transform="translate(-18,-10) scale(1,1)"><g><path fill="none" stroke="none"></path><text fill="#000000" stroke="none" font-family="Arial" font-size="11px" font-style="normal" font-weight="normal" text-decoration="none" x="624" y="451">+entryActivities</text></g></g><g transform="translate(-18,-10) scale(1,1)"><g><path fill="none" stroke="none"></path><text fill="#000000" stroke="none" font-family="Arial" font-size="11px" font-style="normal" font-weight="normal" text-decoration="none" x="707" y="455">*</text></g></g><g transform="translate(-18,-10) scale(1,1)"><path fill="none" stroke="#000000" d="M 800 448 L 800 372 L 584 372" stroke-miterlimit="10"></path></g><g transform="translate(-18,-10) scale(1,1)"><path fill="#000000" stroke="none" d="M 594.1626748576241 367.790482243984 L 584 372 L 594.1626748576241 376.209517756016 L 606 372"></path></g><g transform="translate(-18,-10) scale(1,1)"><path fill="none" stroke="#000000" d="M 594.1626748576241 367.790482243984 L 584 372 L 594.1626748576241 376.209517756016 L 606 372 L 594.1626748576241 367.790482243984" stroke-miterlimit="10"></path></g><g transform="translate(-18,-10) scale(1,1)"><g><path fill="none" stroke="none"></path><text fill="#000000" stroke="none" font-family="Arial" font-size="11px" font-style="normal" font-weight="normal" text-decoration="none" x="756" y="440">+effects</text></g></g><g transform="translate(-18,-10) scale(1,1)"><g><path fill="none" stroke="none"></path><text fill="#000000" stroke="none" font-family="Arial" font-size="11px" font-style="normal" font-weight="normal" text-decoration="none" x="815" y="440">*</text></g></g><g transform="translate(-18,-10) scale(1,1)"><path fill="none" stroke="#000000" d="M 720 548 L 584 548" stroke-miterlimit="10"></path></g><g transform="translate(-18,-10) scale(1,1)"><path fill="#000000" stroke="none" d="M 594.1626748576241 543.790482243984 L 584 548 L 594.1626748576241 552.209517756016 L 606 548"></path></g><g transform="translate(-18,-10) scale(1,1)"><path fill="none" stroke="#000000" d="M 594.1626748576241 543.790482243984 L 584 548 L 594.1626748576241 552.209517756016 L 606 548 L 594.1626748576241 543.790482243984" stroke-miterlimit="10"></path></g><g transform="translate(-18,-10) scale(1,1)"><g><path fill="none" stroke="none"></path><text fill="#000000" stroke="none" font-family="Arial" font-size="11px" font-style="normal" font-weight="normal" text-decoration="none" x="633" y="539">+exitActivities</text></g></g><g transform="translate(-18,-10) scale(1,1)"><g><path fill="none" stroke="none"></path><text fill="#000000" stroke="none" font-family="Arial" font-size="11px" font-style="normal" font-weight="normal" text-decoration="none" x="708" y="541">*</text></g></g><g transform="translate(-18,-10) scale(1,1)"><path fill="none" stroke="#000000" d="M 720 504 L 584 504" stroke-miterlimit="10"></path></g><g transform="translate(-18,-10) scale(1,1)"><path fill="#000000" stroke="none" d="M 594.1626748576241 499.790482243984 L 584 504 L 594.1626748576241 508.209517756016 L 606 504"></path></g><g transform="translate(-18,-10) scale(1,1)"><path fill="none" stroke="#000000" d="M 594.1626748576241 499.790482243984 L 584 504 L 594.1626748576241 508.209517756016 L 606 504 L 594.1626748576241 499.790482243984" stroke-miterlimit="10"></path></g><g transform="translate(-18,-10) scale(1,1)"><g><path fill="none" stroke="none"></path><text fill="#000000" stroke="none" font-family="Arial" font-size="11px" font-style="normal" font-weight="normal" text-decoration="none" x="637" y="495">+doActivities</text></g></g><g transform="translate(-18,-10) scale(1,1)"><g><path fill="none" stroke="none"></path><text fill="#000000" stroke="none" font-family="Arial" font-size="11px" font-style="normal" font-weight="normal" text-decoration="none" x="708" y="497">*</text></g></g><g transform="translate(-18,-10) scale(1,1)"><rect fill="#C0C0C0" stroke="none" x="415" y="27" width="81" height="33" opacity="0.2"></rect></g><g transform="translate(-18,-10) scale(1,1)"><rect fill="#C0C0C0" stroke="none" x="408" y="20" width="81" height="33"></rect></g><g transform="translate(-18,-10) scale(1,1)"><path fill="none" stroke="#000000" d="M 408 20 L 489 20 L 489 53 L 408 53 L 408 20 Z Z" stroke-miterlimit="10"></path></g><g transform="translate(-18,-10) scale(1,1)"><g><path fill="none" stroke="none"></path><text fill="#000000" stroke="none" font-family="Arial" font-size="11px" font-style="normal" font-weight="bold" text-decoration="none" x="415.5" y="37.5">UMLBehavior</text></g></g><g transform="translate(-18,-10) scale(1,1)"><rect fill="#C0C0C0" stroke="none" x="175" y="331" width="135" height="43" opacity="0.2"></rect></g><g transform="translate(-18,-10) scale(1,1)"><rect fill="#FFFFFF" stroke="none" x="168" y="324" width="135" height="43"></rect></g><g transform="translate(-18,-10) scale(1,1)"><path fill="none" stroke="#000000" d="M 168 324 L 303 324 L 303 367 L 168 367 L 168 324 Z Z" stroke-miterlimit="10"></path></g><g transform="translate(-18,-10) scale(1,1)"><path fill="none" stroke="#000000" d="M 168 347 L 303 347" stroke-miterlimit="10"></path></g><g transform="translate(-18,-10) scale(1,1)"><g><path fill="none" stroke="none"></path><text fill="#000000" stroke="none" font-family="Arial" font-size="11px" font-style="normal" font-weight="bold" text-decoration="none" x="208" y="341.5">UMLVertex</text></g></g><g transform="translate(-18,-10) scale(1,1)"><path fill="none" stroke="#000000" d="M 200 324 L 200 212 L 317 212 L 317 176" stroke-miterlimit="10"></path></g><g transform="translate(-18,-10) scale(1,1)"><path fill="#FFFFFF" stroke="none" d="M 325.419035512032 196.3253497152483 L 317 176 L 308.580964487968 196.3253497152483"></path></g><g transform="translate(-18,-10) scale(1,1)"><path fill="none" stroke="#000000" d="M 325.419035512032 196.3253497152483 L 317 176 L 308.580964487968 196.3253497152483 L 325.419035512032 196.3253497152483" stroke-miterlimit="10"></path></g><g transform="translate(-18,-10) scale(1,1)"><rect fill="#C0C0C0" stroke="none" x="55" y="459" width="146" height="52" opacity="0.2"></rect></g><g transform="translate(-18,-10) scale(1,1)"><rect fill="#FFFFFF" stroke="none" x="48" y="452" width="146" height="52"></rect></g><g transform="translate(-18,-10) scale(1,1)"><path fill="none" stroke="#000000" d="M 48 452 L 194 452 L 194 504 L 48 504 L 48 452 Z Z" stroke-miterlimit="10"></path></g><g transform="translate(-18,-10) scale(1,1)"><path fill="none" stroke="#000000" d="M 48 475 L 194 475" stroke-miterlimit="10"></path></g><g transform="translate(-18,-10) scale(1,1)"><g><path fill="none" stroke="none"></path><text fill="#000000" stroke="none" font-family="Arial" font-size="11px" font-style="normal" font-weight="bold" text-decoration="none" x="79" y="469.5">UMLPseudostate</text></g></g><g transform="translate(-18,-10) scale(1,1)"><g><path fill="none" stroke="none"></path><text fill="#000000" stroke="none" font-family="Arial" font-size="11px" font-style="normal" font-weight="normal" text-decoration="none" x="53" y="490.5">+kind: UMLPseudostateKind</text></g></g><g transform="translate(-18,-10) scale(1,1)"><path fill="none" stroke="#000000" d="M 160 452 L 160 424 L 244 424 L 244 367" stroke-miterlimit="10"></path></g><g transform="translate(-18,-10) scale(1,1)"><path fill="#FFFFFF" stroke="none" d="M 252.41903551203197 387.3253497152483 L 244 367 L 235.58096448796803 387.3253497152483"></path></g><g transform="translate(-18,-10) scale(1,1)"><path fill="none" stroke="#000000" d="M 252.41903551203197 387.3253497152483 L 244 367 L 235.58096448796803 387.3253497152483 L 252.41903551203197 387.3253497152483" stroke-miterlimit="10"></path></g><g transform="translate(-18,-10) scale(1,1)"><rect fill="#C0C0C0" stroke="none" x="235" y="235" width="236" height="43" opacity="0.2"></rect></g><g transform="translate(-18,-10) scale(1,1)"><rect fill="#FFFFFF" stroke="none" x="228" y="228" width="236" height="43"></rect></g><g transform="translate(-18,-10) scale(1,1)"><path fill="none" stroke="#000000" d="M 228 228 L 464 228 L 464 271 L 228 271 L 228 228 Z Z" stroke-miterlimit="10"></path></g><g transform="translate(-18,-10) scale(1,1)"><path fill="none" stroke="#000000" d="M 228 251 L 464 251" stroke-miterlimit="10"></path></g><g transform="translate(-18,-10) scale(1,1)"><g><path fill="none" stroke="none"></path><text fill="#000000" stroke="none" font-family="Arial" font-size="11px" font-style="normal" font-weight="bold" text-decoration="none" x="317.5" y="245.5">UMLRegion</text></g></g><g transform="translate(-18,-10) scale(1,1)"><path fill="none" stroke="#000000" d="M 317 228 L 317 176" stroke-miterlimit="10"></path></g><g transform="translate(-18,-10) scale(1,1)"><path fill="#FFFFFF" stroke="none" d="M 325.419035512032 196.3253497152483 L 317 176 L 308.580964487968 196.3253497152483"></path></g><g transform="translate(-18,-10) scale(1,1)"><path fill="none" stroke="#000000" d="M 325.419035512032 196.3253497152483 L 317 176 L 308.580964487968 196.3253497152483 L 325.419035512032 196.3253497152483" stroke-miterlimit="10"></path></g><g transform="translate(-18,-10) scale(1,1)"><path fill="none" stroke="#000000" d="M 440 228 L 440 136" stroke-miterlimit="10"></path></g><g transform="translate(-18,-10) scale(1,1)"><path fill="#000000" stroke="none" d="M 444.209517756016 146.16267485762415 L 440 136 L 435.790482243984 146.16267485762415 L 440 158"></path></g><g transform="translate(-18,-10) scale(1,1)"><path fill="none" stroke="#000000" d="M 444.209517756016 146.16267485762415 L 440 136 L 435.790482243984 146.16267485762415 L 440 158 L 444.209517756016 146.16267485762415" stroke-miterlimit="10"></path></g><g transform="translate(-18,-10) scale(1,1)"><g><path fill="none" stroke="none"></path><text fill="#000000" stroke="none" font-family="Arial" font-size="11px" font-style="normal" font-weight="normal" text-decoration="none" x="391" y="220">+regions</text></g></g><g transform="translate(-18,-10) scale(1,1)"><g><path fill="none" stroke="none"></path><text fill="#000000" stroke="none" font-family="Arial" font-size="11px" font-style="normal" font-weight="normal" text-decoration="none" x="449" y="221">0..*</text></g></g><g transform="translate(-18,-10) scale(1,1)"><path fill="none" stroke="#000000" d="M 342 271 L 342 404 L 488 404 L 488 452" stroke-miterlimit="10"></path></g><g transform="translate(-18,-10) scale(1,1)"><path fill="#000000" stroke="none" d="M 483.790482243984 441.83732514237585 L 488 452 L 492.209517756016 441.83732514237585 L 488 430"></path></g><g transform="translate(-18,-10) scale(1,1)"><path fill="none" stroke="#000000" d="M 483.790482243984 441.83732514237585 L 488 452 L 492.209517756016 441.83732514237585 L 488 430 L 483.790482243984 441.83732514237585" stroke-miterlimit="10"></path></g><g transform="translate(-18,-10) scale(1,1)"><g><path fill="none" stroke="none"></path><text fill="#000000" stroke="none" font-family="Arial" font-size="11px" font-style="normal" font-weight="normal" text-decoration="none" x="348" y="287">+regions</text></g></g><g transform="translate(-18,-10) scale(1,1)"><g><path fill="none" stroke="none"></path><text fill="#000000" stroke="none" font-family="Arial" font-size="11px" font-style="normal" font-weight="normal" text-decoration="none" x="317" y="288">0..*</text></g></g><g transform="translate(-18,-10) scale(1,1)"><path fill="none" stroke="#000000" d="M 416 568 L 28 568 L 28 112 L 392 112" stroke-miterlimit="10"></path></g><g transform="translate(-18,-10) scale(1,1)"><path fill="none" stroke="#000000" d="M 381.83732514237585 116.20951775601598 L 392 112 L 381.83732514237585 107.79048224398402" stroke-miterlimit="10"></path></g><g transform="translate(-18,-10) scale(1,1)"><g><path fill="none" stroke="none"></path><text fill="#000000" stroke="none" font-family="Arial" font-size="11px" font-style="normal" font-weight="normal" text-decoration="none" x="323" y="103">+submachine</text></g></g><g transform="translate(-18,-10) scale(1,1)"><g><path fill="none" stroke="none"></path><text fill="#000000" stroke="none" font-family="Arial" font-size="11px" font-style="normal" font-weight="normal" text-decoration="none" x="361" y="130">0..1</text></g></g><g transform="translate(-18,-10) scale(1,1)"><rect fill="#C0C0C0" stroke="none" x="559" y="27" width="127" height="173" opacity="0.2"></rect></g><g transform="translate(-18,-10) scale(1,1)"><rect fill="#80FFFF" stroke="none" x="552" y="20" width="127" height="173"></rect></g><g transform="translate(-18,-10) scale(1,1)"><path fill="none" stroke="#000000" d="M 552 20 L 679 20 L 679 193 L 552 193 L 552 20 Z Z" stroke-miterlimit="10"></path></g><g transform="translate(-18,-10) scale(1,1)"><path fill="none" stroke="#000000" d="M 552 54 L 679 54" stroke-miterlimit="10"></path></g><g transform="translate(-18,-10) scale(1,1)"><g><path fill="none" stroke="none"></path><text fill="#000000" stroke="none" font-family="Arial" font-size="11px" font-style="normal" font-weight="normal" text-decoration="none" x="579.5" y="35.5">«enumeration»</text></g></g><g transform="translate(-18,-10) scale(1,1)"><g><path fill="none" stroke="none"></path><text fill="#000000" stroke="none" font-family="Arial" font-size="11px" font-style="normal" font-weight="bold" text-decoration="none" x="563" y="48.5">UMLPseudostateKind</text></g></g><g transform="translate(-18,-10) scale(1,1)"><g><path fill="none" stroke="none"></path><text fill="#000000" stroke="none" font-family="Arial" font-size="11px" font-style="normal" font-weight="normal" text-decoration="none" x="557" y="69.5">initial</text></g></g><g transform="translate(-18,-10) scale(1,1)"><g><path fill="none" stroke="none"></path><text fill="#000000" stroke="none" font-family="Arial" font-size="11px" font-style="normal" font-weight="normal" text-decoration="none" x="557" y="82.5">deepHistory</text></g></g><g transform="translate(-18,-10) scale(1,1)"><g><path fill="none" stroke="none"></path><text fill="#000000" stroke="none" font-family="Arial" font-size="11px" font-style="normal" font-weight="normal" text-decoration="none" x="557" y="95.5">shallowHistory</text></g></g><g transform="translate(-18,-10) scale(1,1)"><g><path fill="none" stroke="none"></path><text fill="#000000" stroke="none" font-family="Arial" font-size="11px" font-style="normal" font-weight="normal" text-decoration="none" x="557" y="108.5">synchronization</text></g></g><g transform="translate(-18,-10) scale(1,1)"><g><path fill="none" stroke="none"></path><text fill="#000000" stroke="none" font-family="Arial" font-size="11px" font-style="normal" font-weight="normal" text-decoration="none" x="557" y="121.5">junction</text></g></g><g transform="translate(-18,-10) scale(1,1)"><g><path fill="none" stroke="none"></path><text fill="#000000" stroke="none" font-family="Arial" font-size="11px" font-style="normal" font-weight="normal" text-decoration="none" x="557" y="134.5">choice</text></g></g><g transform="translate(-18,-10) scale(1,1)"><g><path fill="none" stroke="none"></path><text fill="#000000" stroke="none" font-family="Arial" font-size="11px" font-style="normal" font-weight="normal" text-decoration="none" x="557" y="147.5">entryPoint</text></g></g><g transform="translate(-18,-10) scale(1,1)"><g><path fill="none" stroke="none"></path><text fill="#000000" stroke="none" font-family="Arial" font-size="11px" font-style="normal" font-weight="normal" text-decoration="none" x="557" y="160.5">exitPoint</text></g></g><g transform="translate(-18,-10) scale(1,1)"><g><path fill="none" stroke="none"></path><text fill="#000000" stroke="none" font-family="Arial" font-size="11px" font-style="normal" font-weight="normal" text-decoration="none" x="557" y="173.5">terminate</text></g></g><g transform="translate(-18,-10) scale(1,1)"><rect fill="#C0C0C0" stroke="none" x="707" y="27" width="113" height="89" opacity="0.2"></rect></g><g transform="translate(-18,-10) scale(1,1)"><rect fill="#80FFFF" stroke="none" x="700" y="20" width="113" height="89"></rect></g><g transform="translate(-18,-10) scale(1,1)"><path fill="none" stroke="#000000" d="M 700 20 L 813 20 L 813 109 L 700 109 L 700 20 Z Z" stroke-miterlimit="10"></path></g><g transform="translate(-18,-10) scale(1,1)"><path fill="none" stroke="#000000" d="M 700 54 L 813 54" stroke-miterlimit="10"></path></g><g transform="translate(-18,-10) scale(1,1)"><g><path fill="none" stroke="none"></path><text fill="#000000" stroke="none" font-family="Arial" font-size="11px" font-style="normal" font-weight="normal" text-decoration="none" x="720.5" y="35.5">«enumeration»</text></g></g><g transform="translate(-18,-10) scale(1,1)"><g><path fill="none" stroke="none"></path><text fill="#000000" stroke="none" font-family="Arial" font-size="11px" font-style="normal" font-weight="bold" text-decoration="none" x="710.5" y="48.5">UMLTransitionKind</text></g></g><g transform="translate(-18,-10) scale(1,1)"><g><path fill="none" stroke="none"></path><text fill="#000000" stroke="none" font-family="Arial" font-size="11px" font-style="normal" font-weight="normal" text-decoration="none" x="705" y="69.5">external</text></g></g><g transform="translate(-18,-10) scale(1,1)"><g><path fill="none" stroke="none"></path><text fill="#000000" stroke="none" font-family="Arial" font-size="11px" font-style="normal" font-weight="normal" text-decoration="none" x="705" y="82.5">internal</text></g></g><g transform="translate(-18,-10) scale(1,1)"><g><path fill="none" stroke="none"></path><text fill="#000000" stroke="none" font-family="Arial" font-size="11px" font-style="normal" font-weight="normal" text-decoration="none" x="705" y="95.5">local</text></g></g><g transform="translate(-18,-10) scale(1,1)"><rect fill="#C0C0C0" stroke="none" x="403" y="639" width="86" height="43" opacity="0.2"></rect></g><g transform="translate(-18,-10) scale(1,1)"><rect fill="#FFFFFF" stroke="none" x="396" y="632" width="86" height="43"></rect></g><g transform="translate(-18,-10) scale(1,1)"><path fill="none" stroke="#000000" d="M 396 632 L 482 632 L 482 675 L 396 675 L 396 632 Z Z" stroke-miterlimit="10"></path></g><g transform="translate(-18,-10) scale(1,1)"><path fill="none" stroke="#000000" d="M 396 655 L 482 655" stroke-miterlimit="10"></path></g><g transform="translate(-18,-10) scale(1,1)"><g><path fill="none" stroke="none"></path><text fill="#000000" stroke="none" font-family="Arial" font-size="11px" font-style="normal" font-weight="bold" text-decoration="none" x="403.5" y="649.5">UMLFinalState</text></g></g><g transform="translate(-18,-10) scale(1,1)"><path fill="none" stroke="#000000" d="M 452 632 L 452 580" stroke-miterlimit="10"></path></g><g transform="translate(-18,-10) scale(1,1)"><path fill="#FFFFFF" stroke="none" d="M 460.419035512032 600.3253497152483 L 452 580 L 443.580964487968 600.3253497152483"></path></g><g transform="translate(-18,-10) scale(1,1)"><path fill="none" stroke="#000000" d="M 460.419035512032 600.3253497152483 L 452 580 L 443.580964487968 600.3253497152483 L 460.419035512032 600.3253497152483" stroke-miterlimit="10"></path></g><g transform="translate(-18,-10) scale(1,1)"><rect fill="#C0C0C0" stroke="none" x="727" y="455" width="116" height="132" opacity="0.2"></rect></g><g transform="translate(-18,-10) scale(1,1)"><rect fill="#C0C0C0" stroke="none" x="720" y="448" width="116" height="132"></rect></g><g transform="translate(-18,-10) scale(1,1)"><path fill="none" stroke="#000000" d="M 720 448 L 836 448 L 836 580 L 720 580 L 720 448 Z Z" stroke-miterlimit="10"></path></g><g transform="translate(-18,-10) scale(1,1)"><g><path fill="none" stroke="none"></path><text fill="#000000" stroke="none" font-family="Arial" font-size="11px" font-style="normal" font-weight="bold" text-decoration="none" x="745" y="465.5">UMLBehavior</text></g></g><g transform="translate(-18,-10) scale(1,1)"><rect fill="#C0C0C0" stroke="none" x="731" y="327" width="108" height="36" opacity="0.2"></rect></g><g transform="translate(-18,-10) scale(1,1)"><rect fill="#C0C0C0" stroke="none" x="724" y="320" width="108" height="36"></rect></g><g transform="translate(-18,-10) scale(1,1)"><path fill="none" stroke="#000000" d="M 724 320 L 832 320 L 832 356 L 724 356 L 724 320 Z Z" stroke-miterlimit="10"></path></g><g transform="translate(-18,-10) scale(1,1)"><g><path fill="none" stroke="none"></path><text fill="#000000" stroke="none" font-family="Arial" font-size="11px" font-style="normal" font-weight="bold" text-decoration="none" x="752.5" y="337.5">UMLEvent</text></g></g><g transform="translate(-18,-10) scale(1,1)"><path fill="none" stroke="#000000" d="M 724 336 L 584 336" stroke-miterlimit="10"></path></g><g transform="translate(-18,-10) scale(1,1)"><path fill="#000000" stroke="none" d="M 594.1626748576241 331.790482243984 L 584 336 L 594.1626748576241 340.209517756016 L 606 336"></path></g><g transform="translate(-18,-10) scale(1,1)"><path fill="none" stroke="#000000" d="M 594.1626748576241 331.790482243984 L 584 336 L 594.1626748576241 340.209517756016 L 606 336 L 594.1626748576241 331.790482243984" stroke-miterlimit="10"></path></g><g transform="translate(-18,-10) scale(1,1)"><g><path fill="none" stroke="none"></path><text fill="#000000" stroke="none" font-family="Arial" font-size="11px" font-style="normal" font-weight="normal" text-decoration="none" x="673" y="352">+triggers</text></g></g><g transform="translate(-18,-10) scale(1,1)"><g><path fill="none" stroke="none"></path><text fill="#000000" stroke="none" font-family="Arial" font-size="11px" font-style="normal" font-weight="normal" text-decoration="none" x="708" y="329">*</text></g></g><g transform="translate(-18,-10) scale(1,1)"><rect fill="#C0C0C0" stroke="none" x="519" y="647" width="108" height="36" opacity="0.2"></rect></g><g transform="translate(-18,-10) scale(1,1)"><rect fill="#C0C0C0" stroke="none" x="512" y="640" width="108" height="36"></rect></g><g transform="translate(-18,-10) scale(1,1)"><path fill="none" stroke="#000000" d="M 512 640 L 620 640 L 620 676 L 512 676 L 512 640 Z Z" stroke-miterlimit="10"></path></g><g transform="translate(-18,-10) scale(1,1)"><g><path fill="none" stroke="none"></path><text fill="#000000" stroke="none" font-family="Arial" font-size="11px" font-style="normal" font-weight="bold" text-decoration="none" x="540.5" y="657.5">UMLEvent</text></g></g><g transform="translate(-18,-10) scale(1,1)"><path fill="none" stroke="#000000" d="M 548 640 L 548 580" stroke-miterlimit="10"></path></g><g transform="translate(-18,-10) scale(1,1)"><path fill="#000000" stroke="none" d="M 552.209517756016 590.1626748576241 L 548 580 L 543.790482243984 590.1626748576241 L 548 602"></path></g><g transform="translate(-18,-10) scale(1,1)"><path fill="none" stroke="#000000" d="M 552.209517756016 590.1626748576241 L 548 580 L 543.790482243984 590.1626748576241 L 548 602 L 552.209517756016 590.1626748576241" stroke-miterlimit="10"></path></g><g transform="translate(-18,-10) scale(1,1)"><g><path fill="none" stroke="none"></path><text fill="#000000" stroke="none" font-family="Arial" font-size="11px" font-style="normal" font-weight="normal" text-decoration="none" x="555" y="631">+deferrableTriggers</text></g></g><g transform="translate(-18,-10) scale(1,1)"><g><path fill="none" stroke="none"></path><text fill="#000000" stroke="none" font-family="Arial" font-size="11px" font-style="normal" font-weight="normal" text-decoration="none" x="531" y="633">*</text></g></g><g transform="translate(-18,-10) scale(1,1)"><rect fill="#C0C0C0" stroke="none" x="219" y="459" width="181" height="52" opacity="0.2"></rect></g><g transform="translate(-18,-10) scale(1,1)"><rect fill="#FFFFFF" stroke="none" x="212" y="452" width="181" height="52"></rect></g><g transform="translate(-18,-10) scale(1,1)"><path fill="none" stroke="#000000" d="M 212 452 L 393 452 L 393 504 L 212 504 L 212 452 Z Z" stroke-miterlimit="10"></path></g><g transform="translate(-18,-10) scale(1,1)"><path fill="none" stroke="#000000" d="M 212 475 L 393 475" stroke-miterlimit="10"></path></g><g transform="translate(-18,-10) scale(1,1)"><g><path fill="none" stroke="none"></path><text fill="#000000" stroke="none" font-family="Arial" font-size="11px" font-style="normal" font-weight="bold" text-decoration="none" x="226" y="469.5">UMLConnectionPointReference</text></g></g><g transform="translate(-18,-10) scale(1,1)"><path fill="none" stroke="#000000" d="M 244 452 L 244 367" stroke-miterlimit="10"></path></g><g transform="translate(-18,-10) scale(1,1)"><path fill="#FFFFFF" stroke="none" d="M 252.41903551203197 387.3253497152483 L 244 367 L 235.58096448796803 387.3253497152483"></path></g><g transform="translate(-18,-10) scale(1,1)"><path fill="none" stroke="#000000" d="M 252.41903551203197 387.3253497152483 L 244 367 L 235.58096448796803 387.3253497152483 L 252.41903551203197 387.3253497152483" stroke-miterlimit="10"></path></g><g transform="translate(-18,-10) scale(1,1)"><path fill="none" stroke="#000000" d="M 280 504 L 280 552 L 92 552 L 92 504" stroke-miterlimit="10"></path></g><g transform="translate(-18,-10) scale(1,1)"><path fill="none" stroke="#000000" d="M 96.20951775601598 514.1626748576241 L 92 504 L 87.79048224398402 514.1626748576241" stroke-miterlimit="10"></path></g><g transform="translate(-18,-10) scale(1,1)"><g><path fill="none" stroke="none"></path><text fill="#000000" stroke="none" font-family="Arial" font-size="11px" font-style="normal" font-weight="normal" text-decoration="none" x="53" y="524">+entry</text></g></g><g transform="translate(-18,-10) scale(1,1)"><g><path fill="none" stroke="none"></path><text fill="#000000" stroke="none" font-family="Arial" font-size="11px" font-style="normal" font-weight="normal" text-decoration="none" x="101" y="523">*</text></g></g><g transform="translate(-18,-10) scale(1,1)"><path fill="none" stroke="#000000" d="M 252 504 L 252 532 L 172 532 L 172 504" stroke-miterlimit="10"></path></g><g transform="translate(-18,-10) scale(1,1)"><path fill="none" stroke="#000000" d="M 176.209517756016 514.1626748576241 L 172 504 L 167.790482243984 514.1626748576241" stroke-miterlimit="10"></path></g><g transform="translate(-18,-10) scale(1,1)"><g><path fill="none" stroke="none"></path><text fill="#000000" stroke="none" font-family="Arial" font-size="11px" font-style="normal" font-weight="normal" text-decoration="none" x="141" y="524">+exit</text></g></g><g transform="translate(-18,-10) scale(1,1)"><g><path fill="none" stroke="none"></path><text fill="#000000" stroke="none" font-family="Arial" font-size="11px" font-style="normal" font-weight="normal" text-decoration="none" x="181" y="523">*</text></g></g><g transform="translate(-18,-10) scale(1,1)"><path fill="none" stroke="#000000" d="M 324 504 L 324 548 L 416 548" stroke-miterlimit="10"></path></g><g transform="translate(-18,-10) scale(1,1)"><path fill="#000000" stroke="none" d="M 405.83732514237585 552.209517756016 L 416 548 L 405.83732514237585 543.790482243984 L 394 548"></path></g><g transform="translate(-18,-10) scale(1,1)"><path fill="none" stroke="#000000" d="M 405.83732514237585 552.209517756016 L 416 548 L 405.83732514237585 543.790482243984 L 394 548 L 405.83732514237585 552.209517756016" stroke-miterlimit="10"></path></g><g transform="translate(-18,-10) scale(1,1)"><g><path fill="none" stroke="none"></path><text fill="#000000" stroke="none" font-family="Arial" font-size="11px" font-style="normal" font-weight="normal" text-decoration="none" x="330" y="520">+connections</text></g></g><g transform="translate(-18,-10) scale(1,1)"><g><path fill="none" stroke="none"></path><text fill="#000000" stroke="none" font-family="Arial" font-size="11px" font-style="normal" font-weight="normal" text-decoration="none" x="309" y="520">*</text></g></g></g></svg>