<svg version="1.1" xmlns="http://www.w3.org/2000/svg" xmlns:xlink="http://www.w3.org/1999/xlink" width="628" height="384"><defs></defs><g><g transform="translate(-26,-26) scale(1,1)"><rect fill="#C0C0C0" stroke="none" x="99" y="43" width="110" height="44" opacity="0.2"></rect></g><g transform="translate(-26,-26) scale(1,1)"><rect fill="#C0C0C0" stroke="none" x="92" y="36" width="110" height="44"></rect></g><g transform="translate(-26,-26) scale(1,1)"><path fill="none" stroke="#000000" d="M 92 36 L 202 36 L 202 80 L 92 80 L 92 36 Z Z" stroke-miterlimit="10"></path></g><g transform="translate(-26,-26) scale(1,1)"><path fill="none" stroke="#000000" d="M 92 59 L 202 59" stroke-miterlimit="10"></path></g><g transform="translate(-26,-26) scale(1,1)"><g><path fill="none" stroke="none"></path><text fill="#000000" stroke="none" font-family="Arial" font-size="11px" font-style="normal" font-weight="bold" text-decoration="none" x="113" y="53.5">UMLClassifier</text></g></g><g transform="translate(-26,-26) scale(1,1)"><rect fill="#C0C0C0" stroke="none" x="159" y="187" width="118" height="43" opacity="0.2"></rect></g><g transform="translate(-26,-26) scale(1,1)"><rect fill="#FFFFFF" stroke="none" x="152" y="180" width="118" height="43"></rect></g><g transform="translate(-26,-26) scale(1,1)"><path fill="none" stroke="#000000" d="M 152 180 L 270 180 L 270 223 L 152 223 L 152 180 Z Z" stroke-miterlimit="10"></path></g><g transform="translate(-26,-26) scale(1,1)"><path fill="none" stroke="#000000" d="M 152 203 L 270 203" stroke-miterlimit="10"></path></g><g transform="translate(-26,-26) scale(1,1)"><g><path fill="none" stroke="none"></path><text fill="#000000" stroke="none" font-family="Arial" font-size="11px" font-style="normal" font-weight="bold" text-decoration="none" x="176.5" y="197.5">UMLUseCase</text></g></g><g transform="translate(-26,-26) scale(1,1)"><path fill="none" stroke="#000000" d="M 174 180 L 174 80" stroke-miterlimit="10"></path></g><g transform="translate(-26,-26) scale(1,1)"><path fill="#FFFFFF" stroke="none" d="M 182.41903551203197 100.32534971524831 L 174 80 L 165.58096448796803 100.32534971524831"></path></g><g transform="translate(-26,-26) scale(1,1)"><path fill="none" stroke="#000000" d="M 182.41903551203197 100.32534971524831 L 174 80 L 165.58096448796803 100.32534971524831 L 182.41903551203197 100.32534971524831" stroke-miterlimit="10"></path></g><g transform="translate(-26,-26) scale(1,1)"><rect fill="#C0C0C0" stroke="none" x="43" y="187" width="104" height="44" opacity="0.2"></rect></g><g transform="translate(-26,-26) scale(1,1)"><rect fill="#FFFFFF" stroke="none" x="36" y="180" width="104" height="44"></rect></g><g transform="translate(-26,-26) scale(1,1)"><path fill="none" stroke="#000000" d="M 36 180 L 140 180 L 140 224 L 36 224 L 36 180 Z Z" stroke-miterlimit="10"></path></g><g transform="translate(-26,-26) scale(1,1)"><path fill="none" stroke="#000000" d="M 36 203 L 140 203" stroke-miterlimit="10"></path></g><g transform="translate(-26,-26) scale(1,1)"><g><path fill="none" stroke="none"></path><text fill="#000000" stroke="none" font-family="Arial" font-size="11px" font-style="normal" font-weight="bold" text-decoration="none" x="63.5" y="197.5">UMLActor</text></g></g><g transform="translate(-26,-26) scale(1,1)"><path fill="none" stroke="#000000" d="M 116 180 L 116 80" stroke-miterlimit="10"></path></g><g transform="translate(-26,-26) scale(1,1)"><path fill="#FFFFFF" stroke="none" d="M 124.41903551203198 100.32534971524831 L 116 80 L 107.58096448796803 100.32534971524831"></path></g><g transform="translate(-26,-26) scale(1,1)"><path fill="none" stroke="#000000" d="M 124.41903551203198 100.32534971524831 L 116 80 L 107.58096448796803 100.32534971524831 L 124.41903551203198 100.32534971524831" stroke-miterlimit="10"></path></g><g transform="translate(-26,-26) scale(1,1)"><rect fill="#C0C0C0" stroke="none" x="59" y="359" width="84" height="47" opacity="0.2"></rect></g><g transform="translate(-26,-26) scale(1,1)"><rect fill="#FFFFFF" stroke="none" x="52" y="352" width="84" height="47"></rect></g><g transform="translate(-26,-26) scale(1,1)"><path fill="none" stroke="#000000" d="M 52 352 L 136 352 L 136 399 L 52 399 L 52 352 Z Z" stroke-miterlimit="10"></path></g><g transform="translate(-26,-26) scale(1,1)"><path fill="none" stroke="#000000" d="M 52 375 L 136 375" stroke-miterlimit="10"></path></g><g transform="translate(-26,-26) scale(1,1)"><g><path fill="none" stroke="none"></path><text fill="#000000" stroke="none" font-family="Arial" font-size="11px" font-style="normal" font-weight="bold" text-decoration="none" x="65" y="369.5">UMLInclude</text></g></g><g transform="translate(-26,-26) scale(1,1)"><rect fill="#C0C0C0" stroke="none" x="163" y="359" width="97" height="48" opacity="0.2"></rect></g><g transform="translate(-26,-26) scale(1,1)"><rect fill="#FFFFFF" stroke="none" x="156" y="352" width="97" height="48"></rect></g><g transform="translate(-26,-26) scale(1,1)"><path fill="none" stroke="#000000" d="M 156 352 L 253 352 L 253 400 L 156 400 L 156 352 Z Z" stroke-miterlimit="10"></path></g><g transform="translate(-26,-26) scale(1,1)"><path fill="none" stroke="#000000" d="M 156 375 L 253 375" stroke-miterlimit="10"></path></g><g transform="translate(-26,-26) scale(1,1)"><g><path fill="none" stroke="none"></path><text fill="#000000" stroke="none" font-family="Arial" font-size="11px" font-style="normal" font-weight="bold" text-decoration="none" x="176" y="369.5">UMLExtend</text></g></g><g transform="translate(-26,-26) scale(1,1)"><g><path fill="none" stroke="none"></path><text fill="#000000" stroke="none" font-family="Arial" font-size="11px" font-style="normal" font-weight="normal" text-decoration="none" x="161" y="390.5">+condition: String</text></g></g><g transform="translate(-26,-26) scale(1,1)"><rect fill="#C0C0C0" stroke="none" x="99" y="267" width="147" height="43" opacity="0.2"></rect></g><g transform="translate(-26,-26) scale(1,1)"><rect fill="#C0C0C0" stroke="none" x="92" y="260" width="147" height="43"></rect></g><g transform="translate(-26,-26) scale(1,1)"><path fill="none" stroke="#000000" d="M 92 260 L 239 260 L 239 303 L 92 303 L 92 260 Z Z" stroke-miterlimit="10"></path></g><g transform="translate(-26,-26) scale(1,1)"><path fill="none" stroke="#000000" d="M 92 283 L 239 283" stroke-miterlimit="10"></path></g><g transform="translate(-26,-26) scale(1,1)"><g><path fill="none" stroke="none"></path><text fill="#000000" stroke="none" font-family="Arial" font-size="11px" font-style="normal" font-weight="bold" text-decoration="none" x="104" y="277.5">UMLDirectedRelationship</text></g></g><g transform="translate(-26,-26) scale(1,1)"><path fill="none" stroke="#000000" d="M 112 352 L 112 303" stroke-miterlimit="10"></path></g><g transform="translate(-26,-26) scale(1,1)"><path fill="#FFFFFF" stroke="none" d="M 120.41903551203198 323.3253497152483 L 112 303 L 103.58096448796803 323.3253497152483"></path></g><g transform="translate(-26,-26) scale(1,1)"><path fill="none" stroke="#000000" d="M 120.41903551203198 323.3253497152483 L 112 303 L 103.58096448796803 323.3253497152483 L 120.41903551203198 323.3253497152483" stroke-miterlimit="10"></path></g><g transform="translate(-26,-26) scale(1,1)"><path fill="none" stroke="#000000" d="M 176 352 L 176 303" stroke-miterlimit="10"></path></g><g transform="translate(-26,-26) scale(1,1)"><path fill="#FFFFFF" stroke="none" d="M 184.41903551203197 323.3253497152483 L 176 303 L 167.58096448796803 323.3253497152483"></path></g><g transform="translate(-26,-26) scale(1,1)"><path fill="none" stroke="#000000" d="M 184.41903551203197 323.3253497152483 L 176 303 L 167.58096448796803 323.3253497152483 L 184.41903551203197 323.3253497152483" stroke-miterlimit="10"></path></g><g transform="translate(-26,-26) scale(1,1)"><rect fill="#C0C0C0" stroke="none" x="399" y="183" width="115" height="48" opacity="0.2"></rect></g><g transform="translate(-26,-26) scale(1,1)"><rect fill="#FFFFFF" stroke="none" x="392" y="176" width="115" height="48"></rect></g><g transform="translate(-26,-26) scale(1,1)"><path fill="none" stroke="#000000" d="M 392 176 L 507 176 L 507 224 L 392 224 L 392 176 Z Z" stroke-miterlimit="10"></path></g><g transform="translate(-26,-26) scale(1,1)"><path fill="none" stroke="#000000" d="M 392 199 L 507 199" stroke-miterlimit="10"></path></g><g transform="translate(-26,-26) scale(1,1)"><g><path fill="none" stroke="none"></path><text fill="#000000" stroke="none" font-family="Arial" font-size="11px" font-style="normal" font-weight="bold" text-decoration="none" x="402" y="193.5">UMLExtensionPoint</text></g></g><g transform="translate(-26,-26) scale(1,1)"><g><path fill="none" stroke="none"></path><text fill="#000000" stroke="none" font-family="Arial" font-size="11px" font-style="normal" font-weight="normal" text-decoration="none" x="397" y="214.5">+location: String</text></g></g><g transform="translate(-26,-26) scale(1,1)"><path fill="none" stroke="#000000" d="M 392 204 L 270 204" stroke-miterlimit="10"></path></g><g transform="translate(-26,-26) scale(1,1)"><path fill="#000000" stroke="none" d="M 280.16267485762415 199.790482243984 L 270 204 L 280.16267485762415 208.209517756016 L 292 204"></path></g><g transform="translate(-26,-26) scale(1,1)"><path fill="none" stroke="#000000" d="M 280.16267485762415 199.790482243984 L 270 204 L 280.16267485762415 208.209517756016 L 292 204 L 280.16267485762415 199.790482243984" stroke-miterlimit="10"></path></g><g transform="translate(-26,-26) scale(1,1)"><g><path fill="none" stroke="none"></path><text fill="#000000" stroke="none" font-family="Arial" font-size="11px" font-style="normal" font-weight="normal" text-decoration="none" x="304" y="224">+extensionPoints</text></g></g><g transform="translate(-26,-26) scale(1,1)"><g><path fill="none" stroke="none"></path><text fill="#000000" stroke="none" font-family="Arial" font-size="11px" font-style="normal" font-weight="normal" text-decoration="none" x="362" y="197">0..*</text></g></g><g transform="translate(-26,-26) scale(1,1)"><rect fill="#C0C0C0" stroke="none" x="451" y="83" width="123" height="47" opacity="0.2"></rect></g><g transform="translate(-26,-26) scale(1,1)"><rect fill="#C0C0C0" stroke="none" x="444" y="76" width="123" height="47"></rect></g><g transform="translate(-26,-26) scale(1,1)"><path fill="none" stroke="#000000" d="M 444 76 L 567 76 L 567 123 L 444 123 L 444 76 Z Z" stroke-miterlimit="10"></path></g><g transform="translate(-26,-26) scale(1,1)"><path fill="none" stroke="#000000" d="M 444 99 L 567 99" stroke-miterlimit="10"></path></g><g transform="translate(-26,-26) scale(1,1)"><g><path fill="none" stroke="none"></path><text fill="#000000" stroke="none" font-family="Arial" font-size="11px" font-style="normal" font-weight="bold" text-decoration="none" x="460" y="93.5">UMLModelElement</text></g></g><g transform="translate(-26,-26) scale(1,1)"><path fill="none" stroke="#000000" d="M 476 176 L 476 123" stroke-miterlimit="10"></path></g><g transform="translate(-26,-26) scale(1,1)"><path fill="#FFFFFF" stroke="none" d="M 484.419035512032 143.3253497152483 L 476 123 L 467.580964487968 143.3253497152483"></path></g><g transform="translate(-26,-26) scale(1,1)"><path fill="none" stroke="#000000" d="M 484.419035512032 143.3253497152483 L 476 123 L 467.580964487968 143.3253497152483 L 484.419035512032 143.3253497152483" stroke-miterlimit="10"></path></g><g transform="translate(-26,-26) scale(1,1)"><path fill="none" stroke="#000000" d="M 253 380 L 452 380 L 452 224" stroke-miterlimit="10"></path></g><g transform="translate(-26,-26) scale(1,1)"><path fill="none" stroke="#000000" d="M 456.209517756016 234.16267485762415 L 452 224 L 447.790482243984 234.16267485762415" stroke-miterlimit="10"></path></g><g transform="translate(-26,-26) scale(1,1)"><g><path fill="none" stroke="none"></path><text fill="#000000" stroke="none" font-family="Arial" font-size="11px" font-style="normal" font-weight="normal" text-decoration="none" x="339" y="243">+extensionLocations</text></g></g><g transform="translate(-26,-26) scale(1,1)"><g><path fill="none" stroke="none"></path><text fill="#000000" stroke="none" font-family="Arial" font-size="11px" font-style="normal" font-weight="normal" text-decoration="none" x="462" y="251">*</text></g></g><g transform="translate(-26,-26) scale(1,1)"><rect fill="#C0C0C0" stroke="none" x="527" y="183" width="124" height="48" opacity="0.2"></rect></g><g transform="translate(-26,-26) scale(1,1)"><rect fill="#ffffff" stroke="none" x="520" y="176" width="124" height="48"></rect></g><g transform="translate(-26,-26) scale(1,1)"><path fill="none" stroke="#000000" d="M 520 176 L 644 176 L 644 224 L 520 224 L 520 176 Z Z" stroke-miterlimit="10"></path></g><g transform="translate(-26,-26) scale(1,1)"><path fill="none" stroke="#000000" d="M 520 199 L 644 199" stroke-miterlimit="10"></path></g><g transform="translate(-26,-26) scale(1,1)"><g><path fill="none" stroke="none"></path><text fill="#000000" stroke="none" font-family="Arial" font-size="11px" font-style="normal" font-weight="bold" text-decoration="none" x="529.5" y="193.5">UMLUseCaseSubject</text></g></g><g transform="translate(-26,-26) scale(1,1)"><path fill="none" stroke="#000000" d="M 548 176 L 548 123" stroke-miterlimit="10"></path></g><g transform="translate(-26,-26) scale(1,1)"><path fill="#FFFFFF" stroke="none" d="M 556.419035512032 143.3253497152483 L 548 123 L 539.580964487968 143.3253497152483"></path></g><g transform="translate(-26,-26) scale(1,1)"><path fill="none" stroke="#000000" d="M 556.419035512032 143.3253497152483 L 548 123 L 539.580964487968 143.3253497152483 L 556.419035512032 143.3253497152483" stroke-miterlimit="10"></path></g><g transform="translate(-26,-26) scale(1,1)"><path fill="none" stroke="#000000" d="M 604 176 L 604 56 L 202 56" stroke-miterlimit="10"></path></g><g transform="translate(-26,-26) scale(1,1)"><path fill="none" stroke="#000000" d="M 212.16267485762415 51.790482243984016 L 202 56 L 212.16267485762415 60.209517756015984" stroke-miterlimit="10"></path></g><g transform="translate(-26,-26) scale(1,1)"><g><path fill="none" stroke="none"></path><text fill="#000000" stroke="none" font-family="Roboto" font-size="13px" font-style="normal" font-weight="normal" text-decoration="none" x="216" y="76">+represent</text></g></g><g transform="translate(-26,-26) scale(1,1)"><g><path fill="none" stroke="none"></path><text fill="#000000" stroke="none" font-family="Roboto" font-size="13px" font-style="normal" font-weight="normal" text-decoration="none" x="220" y="49">0..1</text></g></g></g></svg>