<svg version="1.1" xmlns="http://www.w3.org/2000/svg" xmlns:xlink="http://www.w3.org/1999/xlink" width="624" height="344"><defs></defs><g><g transform="translate(-50,-10) scale(1,1)"><rect fill="#C0C0C0" stroke="none" x="479" y="27" width="130" height="42" opacity="0.2"></rect></g><g transform="translate(-50,-10) scale(1,1)"><rect fill="#E3E3E3" stroke="none" x="472" y="20" width="130" height="42"></rect></g><g transform="translate(-50,-10) scale(1,1)"><path fill="none" stroke="#000000" d="M 472 20 L 602 20 L 602 62 L 472 62 L 472 20 Z Z" stroke-miterlimit="10"></path></g><g transform="translate(-50,-10) scale(1,1)"><path fill="none" stroke="#000000" d="M 472 43 L 602 43" stroke-miterlimit="10"></path></g><g transform="translate(-50,-10) scale(1,1)"><g><path fill="none" stroke="none"></path><text fill="#000000" stroke="none" font-family="Arial" font-size="11px" font-style="normal" font-weight="bold" text-decoration="none" x="482" y="37.5">UMLGeneralEdgeView</text></g></g><g transform="translate(-50,-10) scale(1,1)"><rect fill="#C0C0C0" stroke="none" x="147" y="35" width="131" height="42" opacity="0.2"></rect></g><g transform="translate(-50,-10) scale(1,1)"><rect fill="#E3E3E3" stroke="none" x="140" y="28" width="131" height="42"></rect></g><g transform="translate(-50,-10) scale(1,1)"><path fill="none" stroke="#000000" d="M 140 28 L 271 28 L 271 70 L 140 70 L 140 28 Z Z" stroke-miterlimit="10"></path></g><g transform="translate(-50,-10) scale(1,1)"><path fill="none" stroke="#000000" d="M 140 51 L 271 51" stroke-miterlimit="10"></path></g><g transform="translate(-50,-10) scale(1,1)"><g><path fill="none" stroke="none"></path><text fill="#000000" stroke="none" font-family="Arial" font-size="11px" font-style="normal" font-weight="bold" text-decoration="none" x="150" y="45.5">UMLGeneralNodeView</text></g></g><g transform="translate(-50,-10) scale(1,1)"><rect fill="#C0C0C0" stroke="none" x="247" y="119" width="107" height="42" opacity="0.2"></rect></g><g transform="translate(-50,-10) scale(1,1)"><rect fill="#FFFFFF" stroke="none" x="240" y="112" width="107" height="42"></rect></g><g transform="translate(-50,-10) scale(1,1)"><path fill="none" stroke="#000000" d="M 240 112 L 347 112 L 347 154 L 240 154 L 240 112 Z Z" stroke-miterlimit="10"></path></g><g transform="translate(-50,-10) scale(1,1)"><path fill="none" stroke="#000000" d="M 240 135 L 347 135" stroke-miterlimit="10"></path></g><g transform="translate(-50,-10) scale(1,1)"><g><path fill="none" stroke="none"></path><text fill="#000000" stroke="none" font-family="Arial" font-size="11px" font-style="normal" font-weight="bold" text-decoration="none" x="247.5" y="129.5">UMLUseCaseView</text></g></g><g transform="translate(-50,-10) scale(1,1)"><rect fill="#C0C0C0" stroke="none" x="107" y="119" width="90" height="42" opacity="0.2"></rect></g><g transform="translate(-50,-10) scale(1,1)"><rect fill="#FFFFFF" stroke="none" x="100" y="112" width="90" height="42"></rect></g><g transform="translate(-50,-10) scale(1,1)"><path fill="none" stroke="#000000" d="M 100 112 L 190 112 L 190 154 L 100 154 L 100 112 Z Z" stroke-miterlimit="10"></path></g><g transform="translate(-50,-10) scale(1,1)"><path fill="none" stroke="#000000" d="M 100 135 L 190 135" stroke-miterlimit="10"></path></g><g transform="translate(-50,-10) scale(1,1)"><g><path fill="none" stroke="none"></path><text fill="#000000" stroke="none" font-family="Arial" font-size="11px" font-style="normal" font-weight="bold" text-decoration="none" x="109" y="129.5">UMLActorView</text></g></g><g transform="translate(-50,-10) scale(1,1)"><rect fill="#C0C0C0" stroke="none" x="570" y="115" width="101" height="42" opacity="0.2"></rect></g><g transform="translate(-50,-10) scale(1,1)"><rect fill="#FFFFFF" stroke="none" x="563" y="108" width="101" height="42"></rect></g><g transform="translate(-50,-10) scale(1,1)"><path fill="none" stroke="#000000" d="M 563 108 L 664 108 L 664 150 L 563 150 L 563 108 Z Z" stroke-miterlimit="10"></path></g><g transform="translate(-50,-10) scale(1,1)"><path fill="none" stroke="#000000" d="M 563 131 L 664 131" stroke-miterlimit="10"></path></g><g transform="translate(-50,-10) scale(1,1)"><g><path fill="none" stroke="none"></path><text fill="#000000" stroke="none" font-family="Arial" font-size="11px" font-style="normal" font-weight="bold" text-decoration="none" x="573" y="125.5">UMLIncludeView</text></g></g><g transform="translate(-50,-10) scale(1,1)"><rect fill="#C0C0C0" stroke="none" x="423" y="119" width="98" height="42" opacity="0.2"></rect></g><g transform="translate(-50,-10) scale(1,1)"><rect fill="#FFFFFF" stroke="none" x="416" y="112" width="98" height="42"></rect></g><g transform="translate(-50,-10) scale(1,1)"><path fill="none" stroke="#000000" d="M 416 112 L 514 112 L 514 154 L 416 154 L 416 112 Z Z" stroke-miterlimit="10"></path></g><g transform="translate(-50,-10) scale(1,1)"><path fill="none" stroke="#000000" d="M 416 135 L 514 135" stroke-miterlimit="10"></path></g><g transform="translate(-50,-10) scale(1,1)"><g><path fill="none" stroke="none"></path><text fill="#000000" stroke="none" font-family="Arial" font-size="11px" font-style="normal" font-weight="bold" text-decoration="none" x="425" y="129.5">UMLExtendView</text></g></g><g transform="translate(-50,-10) scale(1,1)"><rect fill="#C0C0C0" stroke="none" x="324" y="201" width="166" height="42" opacity="0.2"></rect></g><g transform="translate(-50,-10) scale(1,1)"><rect fill="#E3E3E3" stroke="none" x="317" y="194" width="166" height="42"></rect></g><g transform="translate(-50,-10) scale(1,1)"><path fill="none" stroke="#000000" d="M 317 194 L 483 194 L 483 236 L 317 236 L 317 194 Z Z" stroke-miterlimit="10"></path></g><g transform="translate(-50,-10) scale(1,1)"><path fill="none" stroke="#000000" d="M 317 217 L 483 217" stroke-miterlimit="10"></path></g><g transform="translate(-50,-10) scale(1,1)"><g><path fill="none" stroke="none"></path><text fill="#000000" stroke="none" font-family="Arial" font-size="11px" font-style="normal" font-weight="bold" text-decoration="none" x="333.5" y="211.5">UMLCompartmentItemView</text></g></g><g transform="translate(-50,-10) scale(1,1)"><rect fill="#C0C0C0" stroke="none" x="67" y="199" width="158" height="42" opacity="0.2"></rect></g><g transform="translate(-50,-10) scale(1,1)"><rect fill="#E3E3E3" stroke="none" x="60" y="192" width="158" height="42"></rect></g><g transform="translate(-50,-10) scale(1,1)"><path fill="none" stroke="#000000" d="M 60 192 L 218 192 L 218 234 L 60 234 L 60 192 Z Z" stroke-miterlimit="10"></path></g><g transform="translate(-50,-10) scale(1,1)"><path fill="none" stroke="#000000" d="M 60 215 L 218 215" stroke-miterlimit="10"></path></g><g transform="translate(-50,-10) scale(1,1)"><g><path fill="none" stroke="none"></path><text fill="#000000" stroke="none" font-family="Arial" font-size="11px" font-style="normal" font-weight="bold" text-decoration="none" x="74.5" y="209.5">UMLListCompartmentView</text></g></g><g transform="translate(-50,-10) scale(1,1)"><path fill="none" stroke="#000000" d="M 316 214.35632183908046 L 219 213.61302681992336" stroke-miterlimit="10"></path></g><g transform="translate(-50,-10) scale(1,1)"><path fill="#000000" stroke="none" d="M 229.19463239352578 209.48150526474845 L 219 213.61302681992336 L 229.1301206054487 217.9002936088069 L 240.9993541189594 213.7816042461223"></path></g><g transform="translate(-50,-10) scale(1,1)"><path fill="none" stroke="#000000" d="M 229.19463239352578 209.48150526474845 L 219 213.61302681992336 L 229.1301206054487 217.9002936088069 L 240.9993541189594 213.7816042461223 L 229.19463239352578 209.48150526474845" stroke-miterlimit="10"></path></g><g transform="translate(-50,-10) scale(1,1)"><g><path fill="none" stroke="none"></path><text fill="#000000" stroke="none" font-family="Arial" font-size="11px" font-style="normal" font-weight="normal" text-decoration="none" x="273" y="234.35632183908046">+items</text></g></g><g transform="translate(-50,-10) scale(1,1)"><g><path fill="none" stroke="none"></path><text fill="#000000" stroke="none" font-family="Arial" font-size="11px" font-style="normal" font-weight="normal" text-decoration="none" x="286" y="207.35632183908046">0..*</text></g></g><g transform="translate(-50,-10) scale(1,1)"><rect fill="#C0C0C0" stroke="none" x="335" y="275" width="143" height="42" opacity="0.2"></rect></g><g transform="translate(-50,-10) scale(1,1)"><rect fill="#FFFFFF" stroke="none" x="328" y="268" width="143" height="42"></rect></g><g transform="translate(-50,-10) scale(1,1)"><path fill="none" stroke="#000000" d="M 328 268 L 471 268 L 471 310 L 328 310 L 328 268 Z Z" stroke-miterlimit="10"></path></g><g transform="translate(-50,-10) scale(1,1)"><path fill="none" stroke="#000000" d="M 328 291 L 471 291" stroke-miterlimit="10"></path></g><g transform="translate(-50,-10) scale(1,1)"><g><path fill="none" stroke="none"></path><text fill="#000000" stroke="none" font-family="Arial" font-size="11px" font-style="normal" font-weight="bold" text-decoration="none" x="340.5" y="285.5">UMLExtensionPointView</text></g></g><g transform="translate(-50,-10) scale(1,1)"><path fill="none" stroke="#000000" d="M 399.2972972972973 267 L 399.7027027027027 237" stroke-miterlimit="10"></path></g><g transform="translate(-50,-10) scale(1,1)"><path fill="#FFFFFF" stroke="none" d="M 407.846327786394 257.43725447549826 L 399.7027027027027 237 L 391.00979399436176 257.2097337485789"></path></g><g transform="translate(-50,-10) scale(1,1)"><path fill="none" stroke="#000000" d="M 407.846327786394 257.43725447549826 L 399.7027027027027 237 L 391.00979399436176 257.2097337485789 L 407.846327786394 257.43725447549826" stroke-miterlimit="10"></path></g><g transform="translate(-50,-10) scale(1,1)"><path fill="none" stroke="#000000" d="M 160.71428571428572 111 L 189.28571428571428 71" stroke-miterlimit="10"></path></g><g transform="translate(-50,-10) scale(1,1)"><path fill="#FFFFFF" stroke="none" d="M 184.32269572193294 92.43288237115021 L 189.28571428571428 71 L 170.62099373909587 82.64595238340944"></path></g><g transform="translate(-50,-10) scale(1,1)"><path fill="none" stroke="#000000" d="M 184.32269572193294 92.43288237115021 L 189.28571428571428 71 L 170.62099373909587 82.64595238340944 L 184.32269572193294 92.43288237115021" stroke-miterlimit="10"></path></g><g transform="translate(-50,-10) scale(1,1)"><path fill="none" stroke="#000000" d="M 269.95238095238096 111 L 228.04761904761904 71" stroke-miterlimit="10"></path></g><g transform="translate(-50,-10) scale(1,1)"><path fill="#FFFFFF" stroke="none" d="M 248.56321328231763 78.94420500724908 L 228.04761904761904 71 L 236.9369336192841 91.12411703518897"></path></g><g transform="translate(-50,-10) scale(1,1)"><path fill="none" stroke="#000000" d="M 248.56321328231763 78.94420500724908 L 228.04761904761904 71 L 236.9369336192841 91.12411703518897 L 248.56321328231763 78.94420500724908" stroke-miterlimit="10"></path></g><g transform="translate(-50,-10) scale(1,1)"><path fill="none" stroke="#000000" d="M 482.2173913043478 111 L 519.7826086956521 63" stroke-miterlimit="10"></path></g><g transform="translate(-50,-10) scale(1,1)"><path fill="#FFFFFF" stroke="none" d="M 513.8859603144399 84.19503568924449 L 519.7826086956521 63 L 500.62589517566863 73.81759340672784"></path></g><g transform="translate(-50,-10) scale(1,1)"><path fill="none" stroke="#000000" d="M 513.8859603144399 84.19503568924449 L 519.7826086956521 63 L 500.62589517566863 73.81759340672784 L 513.8859603144399 84.19503568924449" stroke-miterlimit="10"></path></g><g transform="translate(-50,-10) scale(1,1)"><path fill="none" stroke="#000000" d="M 594 107 L 556 63" stroke-miterlimit="10"></path></g><g transform="translate(-50,-10) scale(1,1)"><path fill="#FFFFFF" stroke="none" d="M 575.656772224351 72.87984340564077 L 556 63 L 562.9133326668882 83.88554120526774"></path></g><g transform="translate(-50,-10) scale(1,1)"><path fill="none" stroke="#000000" d="M 575.656772224351 72.87984340564077 L 556 63 L 562.9133326668882 83.88554120526774 L 575.656772224351 72.87984340564077" stroke-miterlimit="10"></path></g><g transform="translate(-50,-10) scale(1,1)"><rect fill="#C0C0C0" stroke="none" x="71" y="307" width="160" height="44" opacity="0.2"></rect></g><g transform="translate(-50,-10) scale(1,1)"><rect fill="#ffffff" stroke="none" x="64" y="300" width="160" height="44"></rect></g><g transform="translate(-50,-10) scale(1,1)"><path fill="none" stroke="#000000" d="M 64 300 L 224 300 L 224 344 L 64 344 L 64 300 Z Z" stroke-miterlimit="10"></path></g><g transform="translate(-50,-10) scale(1,1)"><path fill="none" stroke="#000000" d="M 64 323 L 224 323" stroke-miterlimit="10"></path></g><g transform="translate(-50,-10) scale(1,1)"><g><path fill="none" stroke="none"></path><text fill="#000000" stroke="none" font-family="Arial" font-size="11px" font-style="normal" font-weight="bold" text-decoration="none" x="80" y="317.5">UMLUseCaseSubjectView</text></g></g></g></svg>